{"glyphs":{"0":{"ha":1667,"x_min":14,"x_max":1653,"o":"m 833 -21 q 364 28 543 -21 q 99 187 185 78 q 14 479 14 296 q 99 781 14 669 q 363 943 185 893 q 833 993 542 993 q 1303 943 1125 993 q 1567 781 1482 893 q 1653 479 1653 669 q 1567 187 1653 296 q 1302 28 1481 78 q 833 -21 1124 -21 m 833 446 q 948 454 921 446 q 975 479 975 463 q 948 504 975 494 q 833 514 921 514 q 719 505 746 514 q 692 479 692 496 q 719 454 692 463 q 833 446 746 446 z "},"1":{"ha":1667,"x_min":28,"x_max":1639,"o":"m 1639 389 l 1639 0 l 28 0 l 28 389 l 514 389 l 514 444 l 28 444 l 28 833 q 322 847 218 833 q 470 890 426 860 q 514 972 514 919 l 1347 972 l 1347 389 l 1639 389 z "},"2":{"ha":1667,"x_min":21,"x_max":1653,"o":"m 1117 289 q 1358 314 1250 289 q 1536 376 1465 339 q 1639 453 1607 414 l 1639 0 l 28 0 l 28 104 q 102 341 28 263 q 317 444 176 419 q 704 469 457 469 q 794 475 767 469 q 830 495 821 481 q 839 543 839 510 q 831 597 839 579 q 806 614 824 614 q 769 549 769 614 l 769 525 l 21 525 q 208 861 21 729 q 863 993 396 993 q 1291 968 1121 993 q 1557 875 1461 943 q 1653 681 1653 807 q 1500 425 1653 508 q 1114 342 1347 342 q 934 349 1026 342 q 783 367 842 357 l 775 317 q 920 297 826 306 q 1117 289 1014 289 z "},"3":{"ha":1667,"x_min":21,"x_max":1653,"o":"m 864 -21 q 204 98 388 -21 q 21 407 21 217 l 771 407 l 771 363 q 778 310 771 328 q 807 292 786 292 q 833 308 825 292 q 840 367 840 325 q 820 435 840 413 q 738 458 800 458 l 578 458 l 578 514 l 735 514 q 819 537 799 514 q 840 606 840 560 q 833 664 840 647 q 807 681 825 681 q 778 663 786 681 q 771 610 771 644 l 771 565 l 21 565 q 204 874 21 756 q 864 993 388 993 q 1290 972 1121 993 q 1556 890 1458 950 q 1653 717 1653 829 q 1598 582 1653 625 q 1435 526 1543 539 q 1115 514 1326 514 l 925 514 l 925 458 l 1115 458 q 1442 449 1339 458 q 1599 396 1544 439 q 1653 256 1653 353 q 1556 83 1653 143 q 1290 1 1458 22 q 864 -21 1121 -21 z "},"4":{"ha":1667,"x_min":21,"x_max":1639,"o":"m 1639 793 l 1639 0 l 849 0 l 851 56 l 21 56 l 63 972 l 846 972 l 803 153 l 857 153 l 890 793 l 1639 793 z "},"5":{"ha":1667,"x_min":21,"x_max":1646,"o":"m 878 -21 q 206 99 392 -21 q 21 414 21 218 l 764 414 l 764 369 q 772 316 764 333 q 807 299 781 299 q 838 315 829 299 q 846 374 846 332 q 837 449 846 428 q 793 469 828 469 l 28 469 l 28 972 l 1639 972 l 1639 588 l 764 588 l 764 532 l 1032 532 q 1385 517 1258 532 q 1578 451 1511 501 q 1646 297 1646 400 q 1441 51 1646 122 q 878 -21 1236 -21 z "},"6":{"ha":1667,"x_min":14,"x_max":1653,"o":"m 863 -21 q 374 27 557 -21 q 102 190 190 75 q 14 507 14 304 q 104 792 14 686 q 378 946 194 899 q 854 993 561 993 q 1255 980 1042 993 q 1614 951 1468 967 l 1628 575 l 897 575 q 889 649 897 628 q 858 669 881 669 q 824 637 832 669 q 817 521 817 604 q 1333 509 1174 521 q 1572 449 1492 497 q 1653 288 1653 400 q 1570 108 1653 175 q 1315 10 1488 40 q 863 -21 1143 -21 m 854 229 q 886 257 879 229 q 893 358 893 285 q 874 442 893 418 q 817 465 856 465 l 817 358 q 823 256 817 282 q 854 229 829 229 z "},"7":{"ha":1667,"x_min":28,"x_max":1639,"o":"m 1639 539 q 1486 427 1564 503 q 1349 241 1408 351 q 1274 0 1290 131 l 440 0 q 492 221 440 100 q 632 472 543 342 l 28 472 l 28 972 l 1639 972 l 1639 539 z "},"8":{"ha":1667,"x_min":14,"x_max":1653,"o":"m 1063 486 q 1422 463 1297 482 q 1600 399 1547 443 q 1653 274 1653 356 q 1572 109 1653 174 q 1310 11 1490 44 q 833 -22 1129 -22 q 357 11 538 -22 q 95 109 176 44 q 14 274 14 174 q 67 399 14 356 q 249 463 121 443 q 617 486 376 482 l 617 539 q 286 556 399 542 q 122 608 174 569 q 69 728 69 647 q 271 933 69 872 q 833 993 472 993 q 1396 933 1194 993 q 1597 728 1597 872 q 1545 609 1597 649 q 1382 556 1493 569 q 1063 540 1271 542 l 1063 486 m 838 690 q 735 681 760 690 q 710 653 710 671 q 734 625 710 635 q 838 615 758 615 q 941 625 917 615 q 965 653 965 635 q 940 681 965 671 q 838 690 915 690 m 838 338 q 952 347 925 338 q 979 375 979 357 q 952 403 979 393 q 838 413 925 413 q 723 403 750 413 q 696 375 696 393 q 723 347 696 357 q 838 338 750 338 z "},"9":{"ha":1667,"x_min":21,"x_max":1653,"o":"m 817 -21 q 242 80 453 -21 q 32 390 32 181 l 774 390 q 781 324 774 350 q 814 297 789 297 q 842 311 833 297 q 852 353 850 325 q 854 444 854 382 q 364 460 531 444 q 109 528 197 475 q 21 697 21 582 q 106 872 21 807 q 360 965 192 936 q 794 993 529 993 q 1288 949 1103 993 q 1563 795 1472 906 q 1653 486 1653 685 q 1563 184 1653 294 q 1292 26 1474 74 q 817 -21 1110 -21 m 853 606 q 847 708 853 682 q 815 735 840 735 q 783 707 790 735 q 776 606 776 679 q 795 522 776 546 q 853 499 814 499 l 853 606 z "}," ":{"ha":1667,"x_min":0,"x_max":0,"o":""},"A":{"ha":1667,"x_min":14,"x_max":1653,"o":"m 864 215 l 803 215 l 792 0 l 14 0 l 125 972 l 1542 972 l 1653 0 l 875 0 l 864 215 m 858 313 l 842 639 l 825 639 l 808 313 l 858 313 z "},"Á":{"ha":1667,"x_min":14,"x_max":1653,"o":"m 1293 910 l 369 896 l 369 951 l 1293 993 l 1293 910 m 863 188 l 804 188 l 792 0 l 14 0 l 139 833 l 1528 833 l 1653 0 l 875 0 l 863 188 m 856 286 l 842 500 l 825 500 l 811 286 l 856 286 z "},"Ă":{"ha":1667,"x_min":14,"x_max":1653,"o":"m 836 903 q 526 910 621 903 q 400 935 432 917 q 358 993 368 953 l 414 993 q 445 978 421 982 q 569 974 469 975 q 836 972 669 972 q 1103 974 1003 972 q 1227 978 1203 975 q 1258 993 1251 982 l 1314 993 q 1272 935 1304 953 q 1146 910 1240 917 q 836 903 1051 903 m 863 188 l 804 188 l 792 0 l 14 0 l 139 833 l 1528 833 l 1653 0 l 875 0 l 863 188 m 856 286 l 842 500 l 825 500 l 811 286 l 856 286 z "},"Â":{"ha":1667,"x_min":14,"x_max":1653,"o":"m 833 917 l 375 896 l 375 951 l 833 993 l 1292 951 l 1292 896 l 833 917 m 863 188 l 804 188 l 792 0 l 14 0 l 139 833 l 1528 833 l 1653 0 l 875 0 l 863 188 m 856 286 l 842 500 l 825 500 l 811 286 l 856 286 z "},"Ä":{"ha":1667,"x_min":14,"x_max":1653,"o":"m 419 903 q 380 916 396 903 q 364 949 364 929 q 380 981 364 968 q 419 993 396 993 q 460 980 443 993 q 476 949 476 967 q 460 916 476 929 q 419 903 443 903 m 1246 903 q 1206 916 1222 903 q 1190 949 1190 929 q 1206 981 1190 968 q 1246 993 1222 993 q 1286 980 1269 993 q 1303 949 1303 967 q 1286 916 1303 929 q 1246 903 1269 903 m 863 188 l 804 188 l 792 0 l 14 0 l 139 833 l 1528 833 l 1653 0 l 875 0 l 863 188 m 856 286 l 842 500 l 825 500 l 811 286 l 856 286 z "},"À":{"ha":1667,"x_min":14,"x_max":1653,"o":"m 1294 896 l 371 910 l 371 993 l 1294 951 l 1294 896 m 863 188 l 804 188 l 792 0 l 14 0 l 139 833 l 1528 833 l 1653 0 l 875 0 l 863 188 m 856 286 l 842 500 l 825 500 l 811 286 l 856 286 z "},"Ā":{"ha":1667,"x_min":14,"x_max":1653,"o":"m 1296 896 l 372 896 l 372 972 l 1296 972 l 1296 896 m 863 188 l 804 188 l 792 0 l 14 0 l 139 833 l 1528 833 l 1653 0 l 875 0 l 863 188 m 856 286 l 842 500 l 825 500 l 811 286 l 856 286 z "},"Ą":{"ha":1667,"x_min":14,"x_max":1669,"o":"m 1590 43 q 1669 49 1629 43 l 1661 0 q 1568 -17 1619 -17 q 1443 9 1486 -17 q 1400 76 1400 35 q 1439 139 1400 118 l 875 139 l 863 326 l 804 326 l 792 139 l 14 139 l 139 972 l 1528 972 l 1653 139 q 1531 122 1567 133 q 1494 85 1494 110 q 1590 43 1494 43 m 856 425 l 842 639 l 825 639 l 811 425 l 856 425 z "},"Å":{"ha":1667,"x_min":14,"x_max":1653,"o":"m 838 836 q 746 854 775 836 q 717 915 717 872 q 749 972 717 951 q 838 993 781 993 q 926 974 896 993 q 957 915 957 954 q 928 854 957 872 q 838 836 900 836 m 838 940 q 788 935 803 940 q 772 915 772 929 q 838 889 772 889 q 901 915 901 889 q 886 935 901 929 q 838 940 871 940 m 863 188 l 804 188 l 792 0 l 14 0 l 139 833 l 683 833 q 835 781 726 781 q 985 833 944 781 l 1528 833 l 1653 0 l 875 0 l 863 188 m 856 286 l 842 500 l 825 500 l 811 286 l 856 286 z "},"Ã":{"ha":1667,"x_min":14,"x_max":1653,"o":"m 664 924 q 517 916 583 924 q 413 900 450 908 l 399 953 q 664 993 538 993 q 821 982 724 993 q 997 969 915 969 q 1148 977 1081 969 q 1249 993 1215 985 l 1263 940 q 997 900 1124 900 q 898 904 944 900 q 813 913 851 908 q 664 924 721 924 m 863 188 l 804 188 l 792 0 l 14 0 l 139 833 l 1528 833 l 1653 0 l 875 0 l 863 188 m 856 286 l 842 500 l 825 500 l 811 286 l 856 286 z "},"Æ":{"ha":1667,"x_min":56,"x_max":1638,"o":"m 1244 593 l 1246 536 l 1567 528 l 1567 444 l 1251 436 l 1253 379 l 1638 392 l 1638 0 l 778 0 l 765 250 l 707 250 l 694 0 l 56 0 l 139 972 l 1638 972 l 1638 581 l 1244 593 m 760 349 l 744 639 l 728 639 l 713 349 l 760 349 z "},"B":{"ha":1667,"x_min":28,"x_max":1653,"o":"m 938 457 q 1358 443 1215 456 q 1576 385 1500 431 q 1653 240 1653 339 q 1574 90 1653 142 q 1326 19 1494 39 q 861 0 1158 0 l 28 0 l 28 972 l 1058 972 q 1380 957 1257 972 q 1578 890 1503 942 q 1653 733 1653 838 q 1576 587 1653 633 q 1358 528 1500 540 q 938 514 1215 515 l 938 457 m 861 761 l 861 550 q 915 579 897 553 q 932 675 932 606 q 922 743 932 725 q 881 761 911 761 l 861 761 m 881 210 q 922 228 911 210 q 932 296 932 246 q 915 392 932 365 q 861 421 897 418 l 861 210 l 881 210 z "},"C":{"ha":1667,"x_min":14,"x_max":1653,"o":"m 813 -21 q 369 29 544 -21 q 103 191 193 79 q 14 488 14 303 q 104 778 14 668 q 388 940 194 889 q 899 992 582 992 q 1639 943 1224 992 l 1653 499 l 903 499 q 894 577 903 554 q 865 600 886 600 q 831 567 839 600 q 822 475 822 535 q 831 379 822 414 q 865 344 839 344 q 894 367 885 344 q 903 443 903 390 l 1653 443 q 813 -21 1653 -21 z "},"Ć":{"ha":1667,"x_min":14,"x_max":1653,"o":"m 396 951 l 1319 993 l 1319 910 l 396 896 l 396 951 m 819 -21 q 213 84 413 -21 q 14 428 14 189 q 106 683 14 589 q 381 819 197 778 q 857 861 565 861 q 1265 846 1047 861 q 1639 811 1483 831 l 1653 446 l 903 446 q 894 522 903 497 q 864 547 885 547 q 830 514 838 547 q 822 421 822 481 q 831 342 822 365 q 864 319 840 319 q 894 335 885 319 q 903 390 903 350 l 1653 390 q 1456 87 1653 194 q 819 -21 1260 -21 z "},"Č":{"ha":1667,"x_min":14,"x_max":1653,"o":"m 401 938 l 401 993 l 860 972 l 1318 993 l 1318 938 l 860 896 l 401 938 m 819 -21 q 213 84 413 -21 q 14 428 14 189 q 106 683 14 589 q 381 819 197 778 q 857 861 565 861 q 1265 846 1047 861 q 1639 811 1483 831 l 1653 446 l 903 446 q 894 522 903 497 q 864 547 885 547 q 830 514 838 547 q 822 421 822 481 q 831 342 822 365 q 864 319 840 319 q 894 335 885 319 q 903 390 903 350 l 1653 390 q 1456 87 1653 194 q 819 -21 1260 -21 z "},"Ç":{"ha":1667,"x_min":14,"x_max":1653,"o":"m 864 451 q 894 467 885 451 q 903 522 903 482 l 1653 522 q 1466 224 1653 332 q 861 111 1279 117 l 875 18 l 875 -24 l 792 -24 l 792 18 l 806 111 q 366 158 540 113 q 103 301 192 203 q 14 560 14 400 q 106 815 14 721 q 381 951 197 910 q 857 993 565 993 q 1265 978 1047 993 q 1639 943 1483 963 l 1653 578 l 903 578 q 894 654 903 629 q 864 679 885 679 q 830 646 838 679 q 822 553 822 613 q 831 474 822 496 q 864 451 839 451 z "},"Ċ":{"ha":1667,"x_min":14,"x_max":1653,"o":"m 858 903 q 785 914 806 903 q 765 949 765 925 q 785 983 765 972 q 858 993 806 993 q 932 983 911 993 q 953 949 953 972 q 932 914 953 925 q 858 903 911 903 m 819 -21 q 213 84 413 -21 q 14 428 14 189 q 106 683 14 589 q 381 819 197 778 q 857 861 565 861 q 1265 846 1047 861 q 1639 811 1483 831 l 1653 446 l 903 446 q 894 522 903 497 q 864 547 885 547 q 830 514 838 547 q 822 421 822 481 q 831 342 822 365 q 864 319 840 319 q 894 335 885 319 q 903 390 903 350 l 1653 390 q 1456 87 1653 194 q 819 -21 1260 -21 z "},"D":{"ha":1667,"x_min":28,"x_max":1653,"o":"m 1653 482 q 1574 195 1653 299 q 1319 47 1496 92 q 833 0 1143 1 l 28 0 l 28 972 l 833 972 q 1317 925 1140 971 q 1573 773 1493 879 q 1653 482 1653 667 m 851 369 q 890 395 876 369 q 903 483 903 421 q 890 572 903 546 q 851 597 876 597 l 833 597 l 833 369 l 851 369 z "},"Ð":{"ha":1667,"x_min":0,"x_max":1653,"o":"m 1653 482 q 1574 195 1653 299 q 1319 47 1496 92 q 833 0 1143 1 l 56 0 l 56 456 l 0 456 l 0 511 l 56 511 l 56 972 l 833 972 q 1317 925 1140 971 q 1573 773 1493 879 q 1653 482 1653 667 m 851 369 q 890 395 876 369 q 903 483 903 421 q 890 572 903 546 q 851 597 876 597 l 833 597 l 833 369 l 851 369 z "},"Ď":{"ha":1667,"x_min":28,"x_max":1653,"o":"m 764 896 l 306 938 l 306 993 l 764 972 l 1222 993 l 1222 938 l 764 896 m 1653 413 q 1575 158 1653 246 q 1324 35 1497 69 q 833 0 1150 0 l 28 0 l 28 833 l 833 833 q 1322 797 1147 833 q 1574 672 1496 761 q 1653 413 1653 582 m 851 300 q 890 326 876 300 q 903 414 903 351 q 890 502 903 476 q 851 528 876 528 l 833 528 l 833 300 l 851 300 z "},"Đ":{"ha":1667,"x_min":0,"x_max":1653,"o":"m 1653 482 q 1574 195 1653 299 q 1319 47 1496 92 q 833 0 1143 1 l 56 0 l 56 456 l 0 456 l 0 511 l 56 511 l 56 972 l 833 972 q 1317 925 1140 971 q 1573 773 1493 879 q 1653 482 1653 667 m 851 369 q 890 395 876 369 q 903 483 903 421 q 890 572 903 546 q 851 597 876 597 l 833 597 l 833 369 l 851 369 z "},"E":{"ha":1667,"x_min":28,"x_max":1640,"o":"m 861 585 l 861 533 l 1471 528 l 1471 444 l 861 439 l 861 388 l 1639 401 l 1639 0 l 28 0 l 28 972 l 1640 972 l 1640 571 l 861 585 z "},"É":{"ha":1667,"x_min":28,"x_max":1639,"o":"m 1293 910 l 369 896 l 369 951 l 1293 993 l 1293 910 m 856 513 l 856 460 l 1471 449 l 1471 379 l 856 368 l 856 315 l 1639 329 l 1639 0 l 28 0 l 28 833 l 1639 833 l 1639 499 l 856 513 z "},"Ě":{"ha":1667,"x_min":28,"x_max":1639,"o":"m 833 896 l 375 938 l 375 993 l 833 972 l 1292 993 l 1292 938 l 833 896 m 856 513 l 856 460 l 1471 449 l 1471 379 l 856 368 l 856 315 l 1639 329 l 1639 0 l 28 0 l 28 833 l 1639 833 l 1639 499 l 856 513 z "},"Ê":{"ha":1667,"x_min":28,"x_max":1639,"o":"m 833 917 l 375 896 l 375 951 l 833 993 l 1292 951 l 1292 896 l 833 917 m 856 513 l 856 460 l 1471 449 l 1471 379 l 856 368 l 856 315 l 1639 329 l 1639 0 l 28 0 l 28 833 l 1639 833 l 1639 499 l 856 513 z "},"Ë":{"ha":1667,"x_min":28,"x_max":1639,"o":"m 419 903 q 380 916 396 903 q 364 949 364 929 q 380 981 364 968 q 419 993 396 993 q 460 980 443 993 q 476 949 476 967 q 460 916 476 929 q 419 903 443 903 m 1246 903 q 1206 916 1222 903 q 1190 949 1190 929 q 1206 981 1190 968 q 1246 993 1222 993 q 1286 980 1269 993 q 1303 949 1303 967 q 1286 916 1303 929 q 1246 903 1269 903 m 856 513 l 856 460 l 1471 449 l 1471 379 l 856 368 l 856 315 l 1639 329 l 1639 0 l 28 0 l 28 833 l 1639 833 l 1639 499 l 856 513 z "},"Ė":{"ha":1667,"x_min":28,"x_max":1639,"o":"m 832 903 q 759 914 779 903 q 739 949 739 925 q 759 983 739 972 q 832 993 779 993 q 906 983 885 993 q 926 949 926 972 q 906 914 926 925 q 832 903 885 903 m 856 513 l 856 460 l 1471 449 l 1471 379 l 856 368 l 856 315 l 1639 329 l 1639 0 l 28 0 l 28 833 l 1639 833 l 1639 499 l 856 513 z "},"È":{"ha":1667,"x_min":28,"x_max":1639,"o":"m 1294 896 l 371 910 l 371 993 l 1294 951 l 1294 896 m 856 513 l 856 460 l 1471 449 l 1471 379 l 856 368 l 856 315 l 1639 329 l 1639 0 l 28 0 l 28 833 l 1639 833 l 1639 499 l 856 513 z "},"Ē":{"ha":1667,"x_min":28,"x_max":1639,"o":"m 1296 896 l 372 896 l 372 972 l 1296 972 l 1296 896 m 856 513 l 856 460 l 1471 449 l 1471 379 l 856 368 l 856 315 l 1639 329 l 1639 0 l 28 0 l 28 833 l 1639 833 l 1639 499 l 856 513 z "},"Ę":{"ha":1667,"x_min":28,"x_max":1656,"o":"m 1576 43 q 1656 49 1615 43 l 1647 0 q 1554 -17 1606 -17 q 1429 9 1472 -17 q 1386 76 1386 35 q 1425 139 1386 118 l 28 139 l 28 972 l 1639 972 l 1639 638 l 856 651 l 856 599 l 1471 588 l 1471 518 l 856 507 l 856 454 l 1639 468 l 1639 139 q 1517 122 1553 133 q 1481 85 1481 110 q 1576 43 1481 43 z "},"F":{"ha":1667,"x_min":28,"x_max":1639,"o":"m 861 585 l 861 539 l 1485 528 l 1485 278 l 861 267 l 861 0 l 28 0 l 28 972 l 1639 972 l 1639 571 l 861 585 z "},"G":{"ha":1667,"x_min":14,"x_max":1653,"o":"m 894 457 l 1653 457 l 1639 53 q 1251 1 1464 22 q 838 -21 1039 -21 q 367 32 547 -21 q 100 197 186 85 q 14 486 14 308 q 104 778 14 667 q 385 941 194 889 q 885 993 576 993 q 1278 980 1058 993 q 1639 951 1497 967 l 1653 513 l 903 513 q 896 590 903 565 q 867 614 889 614 q 831 581 839 614 q 822 496 822 549 q 834 367 822 408 q 865 315 846 325 q 917 304 885 304 q 1000 360 992 304 l 894 360 l 894 457 z "},"Ğ":{"ha":1667,"x_min":14,"x_max":1653,"o":"m 863 903 q 553 910 647 903 q 426 935 458 917 q 385 993 394 953 l 440 993 q 472 978 447 982 q 596 974 496 975 q 863 972 696 972 q 1129 974 1029 972 q 1253 978 1229 975 q 1285 993 1278 982 l 1340 993 q 1299 935 1331 953 q 1172 910 1267 917 q 863 903 1078 903 m 894 388 l 1653 388 l 1639 60 q 1260 4 1490 29 q 814 -21 1031 -21 q 373 22 549 -21 q 106 164 197 65 q 14 426 14 263 q 105 683 14 588 q 381 819 196 778 q 863 861 565 861 q 1272 846 1056 861 q 1639 811 1488 831 l 1653 443 l 903 443 q 896 522 903 497 q 867 547 889 547 q 831 515 839 547 q 822 429 822 482 q 832 303 822 344 q 861 248 842 261 q 917 235 881 235 q 1000 290 992 235 l 894 290 l 894 388 z "},"Ģ":{"ha":1667,"x_min":14,"x_max":1653,"o":"m 894 519 l 1653 519 l 1639 192 q 1260 136 1490 161 q 814 111 1031 111 q 373 154 549 111 q 106 296 197 197 q 14 558 14 394 q 105 815 14 719 q 381 951 196 910 q 863 993 565 993 q 1272 978 1056 993 q 1639 943 1488 963 l 1653 575 l 903 575 q 896 654 903 629 q 867 679 889 679 q 831 647 839 679 q 822 561 822 614 q 832 435 822 476 q 861 380 842 393 q 917 367 881 367 q 1000 422 992 367 l 894 422 l 894 519 m 621 35 q 756 37 721 35 q 799 48 790 39 q 807 83 807 57 l 911 83 q 898 8 911 26 q 832 -16 885 -11 q 621 -21 779 -21 l 621 35 z "},"Ġ":{"ha":1667,"x_min":14,"x_max":1653,"o":"m 858 903 q 785 914 806 903 q 765 949 765 925 q 785 983 765 972 q 858 993 806 993 q 932 983 911 993 q 953 949 953 972 q 932 914 953 925 q 858 903 911 903 m 894 388 l 1653 388 l 1639 60 q 1260 4 1490 29 q 814 -21 1031 -21 q 373 22 549 -21 q 106 164 197 65 q 14 426 14 263 q 105 683 14 588 q 381 819 196 778 q 863 861 565 861 q 1272 846 1056 861 q 1639 811 1488 831 l 1653 443 l 903 443 q 896 522 903 497 q 867 547 889 547 q 831 515 839 547 q 822 429 822 482 q 832 303 822 344 q 861 248 842 261 q 917 235 881 235 q 1000 290 992 235 l 894 290 l 894 388 z "},"H":{"ha":1667,"x_min":28,"x_max":1639,"o":"m 1639 972 l 1639 0 l 861 0 l 861 438 l 806 438 l 806 0 l 28 0 l 28 972 l 806 972 l 806 535 l 861 535 l 861 972 l 1639 972 z "},"Ħ":{"ha":1667,"x_min":28,"x_max":1639,"o":"m 1639 590 l 1583 590 l 1583 0 l 861 0 l 861 438 l 806 438 l 806 0 l 83 0 l 83 590 l 28 590 l 28 646 l 83 646 l 83 972 l 806 972 l 806 646 l 861 646 l 861 972 l 1583 972 l 1583 646 l 1639 646 l 1639 590 m 861 590 l 806 590 l 806 535 l 861 535 l 861 590 z "},"I":{"ha":1667,"x_min":28,"x_max":1639,"o":"m 1250 583 l 1250 389 l 1639 389 l 1639 0 l 28 0 l 28 389 l 417 389 l 417 583 l 28 583 l 28 972 l 1639 972 l 1639 583 l 1250 583 z "},"Í":{"ha":1667,"x_min":28,"x_max":1639,"o":"m 1293 910 l 369 896 l 369 951 l 1293 993 l 1293 910 m 1250 444 l 1250 389 l 1639 389 l 1639 0 l 28 0 l 28 389 l 417 389 l 417 444 l 28 444 l 28 833 l 1639 833 l 1639 444 l 1250 444 z "},"Î":{"ha":1667,"x_min":28,"x_max":1639,"o":"m 833 917 l 375 896 l 375 951 l 833 993 l 1292 951 l 1292 896 l 833 917 m 1250 444 l 1250 389 l 1639 389 l 1639 0 l 28 0 l 28 389 l 417 389 l 417 444 l 28 444 l 28 833 l 1639 833 l 1639 444 l 1250 444 z "},"Ï":{"ha":1667,"x_min":28,"x_max":1639,"o":"m 419 903 q 380 916 396 903 q 364 949 364 929 q 380 981 364 968 q 419 993 396 993 q 460 980 443 993 q 476 949 476 967 q 460 916 476 929 q 419 903 443 903 m 1246 903 q 1206 916 1222 903 q 1190 949 1190 929 q 1206 981 1190 968 q 1246 993 1222 993 q 1286 980 1269 993 q 1303 949 1303 967 q 1286 916 1303 929 q 1246 903 1269 903 m 1250 444 l 1250 389 l 1639 389 l 1639 0 l 28 0 l 28 389 l 417 389 l 417 444 l 28 444 l 28 833 l 1639 833 l 1639 444 l 1250 444 z "},"İ":{"ha":1667,"x_min":28,"x_max":1639,"o":"m 832 903 q 759 914 779 903 q 739 949 739 925 q 759 983 739 972 q 832 993 779 993 q 906 983 885 993 q 926 949 926 972 q 906 914 926 925 q 832 903 885 903 m 1250 444 l 1250 389 l 1639 389 l 1639 0 l 28 0 l 28 389 l 417 389 l 417 444 l 28 444 l 28 833 l 1639 833 l 1639 444 l 1250 444 z "},"Ì":{"ha":1667,"x_min":28,"x_max":1639,"o":"m 1294 896 l 371 910 l 371 993 l 1294 951 l 1294 896 m 1250 444 l 1250 389 l 1639 389 l 1639 0 l 28 0 l 28 389 l 417 389 l 417 444 l 28 444 l 28 833 l 1639 833 l 1639 444 l 1250 444 z "},"Ī":{"ha":1667,"x_min":28,"x_max":1639,"o":"m 1296 896 l 372 896 l 372 972 l 1296 972 l 1296 896 m 1250 444 l 1250 389 l 1639 389 l 1639 0 l 28 0 l 28 389 l 417 389 l 417 444 l 28 444 l 28 833 l 1639 833 l 1639 444 l 1250 444 z "},"Į":{"ha":1667,"x_min":28,"x_max":1656,"o":"m 1576 43 q 1656 49 1615 43 l 1647 0 q 1554 -17 1606 -17 q 1429 9 1472 -17 q 1386 76 1386 35 q 1425 139 1386 118 l 28 139 l 28 528 l 417 528 l 417 583 l 28 583 l 28 972 l 1639 972 l 1639 583 l 1250 583 l 1250 528 l 1639 528 l 1639 139 q 1517 122 1553 133 q 1481 85 1481 110 q 1576 43 1481 43 z "},"J":{"ha":1667,"x_min":28,"x_max":1639,"o":"m 1639 532 q 1517 183 1639 306 q 1212 20 1396 61 q 790 -21 1028 -21 q 430 -9 638 -21 q 28 21 222 3 l 28 389 q 325 386 178 386 q 649 397 551 386 q 776 435 746 407 q 806 529 806 464 l 806 583 l 28 583 l 28 972 l 1639 972 l 1639 532 z "},"K":{"ha":1667,"x_min":28,"x_max":1653,"o":"m 1538 486 l 1653 0 l 903 0 l 847 438 l 833 438 l 833 0 l 28 0 l 28 972 l 833 972 l 833 535 l 847 535 l 903 972 l 1653 972 l 1538 486 z "},"Ķ":{"ha":1667,"x_min":28,"x_max":1653,"o":"m 1538 540 l 1653 139 l 903 139 l 850 514 l 833 514 l 833 139 l 28 139 l 28 972 l 833 972 l 833 597 l 849 597 l 903 972 l 1653 972 l 1538 540 m 629 35 q 764 37 729 35 q 807 48 799 39 q 815 83 815 57 l 919 83 q 906 8 919 26 q 840 -16 893 -11 q 629 -21 788 -21 l 629 35 z "},"L":{"ha":1667,"x_min":28,"x_max":1639,"o":"m 1639 443 l 1639 0 l 28 0 l 28 972 l 861 972 l 861 443 l 1639 443 z "},"Ĺ":{"ha":1667,"x_min":26,"x_max":1639,"o":"m 950 910 l 26 896 l 26 951 l 950 993 l 950 910 m 1639 443 l 1639 0 l 28 0 l 28 833 l 861 833 l 861 443 l 1639 443 z "},"Ľ":{"ha":1667,"x_min":28,"x_max":1639,"o":"m 1639 443 l 1639 0 l 28 0 l 28 972 l 861 972 l 861 443 l 1639 443 m 1250 499 l 1236 735 l 1236 972 l 1319 972 l 1319 735 l 1306 499 l 1250 499 z "},"Ļ":{"ha":1667,"x_min":28,"x_max":1639,"o":"m 1639 582 l 1639 139 l 28 139 l 28 972 l 861 972 l 861 582 l 1639 582 m 594 35 q 729 37 694 35 q 772 48 764 39 q 781 83 781 57 l 885 83 q 872 8 885 26 q 806 -16 858 -11 q 594 -21 753 -21 l 594 35 z "},"Ŀ":{"ha":1667,"x_min":28,"x_max":1639,"o":"m 1639 443 l 1639 0 l 28 0 l 28 972 l 861 972 l 861 443 l 1639 443 m 1265 603 q 1154 649 1200 603 q 1108 760 1108 694 q 1154 871 1108 825 q 1265 917 1200 917 q 1376 871 1331 917 q 1422 760 1422 825 q 1376 649 1422 694 q 1265 603 1331 603 z "},"Ł":{"ha":1667,"x_min":28,"x_max":1639,"o":"m 1639 443 l 1639 0 l 28 0 l 28 972 l 861 972 l 861 603 l 1157 681 l 1174 622 l 861 544 l 861 443 l 1639 443 z "},"M":{"ha":1667,"x_min":14,"x_max":1653,"o":"m 946 0 l 906 603 l 897 603 l 864 0 l 801 0 l 768 603 l 760 603 l 719 0 l 14 0 l 69 972 l 785 972 l 826 258 l 840 258 l 881 972 l 1597 972 l 1653 0 l 946 0 z "},"N":{"ha":1667,"x_min":28,"x_max":1639,"o":"m 1639 972 l 1639 0 l 889 0 l 792 603 l 778 603 l 778 0 l 28 0 l 28 972 l 778 972 l 875 369 l 889 369 l 889 972 l 1639 972 z "},"Ń":{"ha":1667,"x_min":28,"x_max":1639,"o":"m 1293 910 l 369 896 l 369 951 l 1293 993 l 1293 910 m 1639 833 l 1639 0 l 885 0 l 796 499 l 782 499 l 782 0 l 28 0 l 28 833 l 782 833 l 871 335 l 885 335 l 885 833 l 1639 833 z "},"Ň":{"ha":1667,"x_min":28,"x_max":1639,"o":"m 833 896 l 375 938 l 375 993 l 833 972 l 1292 993 l 1292 938 l 833 896 m 1639 833 l 1639 0 l 885 0 l 796 499 l 782 499 l 782 0 l 28 0 l 28 833 l 782 833 l 871 335 l 885 335 l 885 833 l 1639 833 z "},"Ņ":{"ha":1667,"x_min":28,"x_max":1639,"o":"m 1639 972 l 1639 139 l 889 139 l 792 631 l 778 631 l 778 139 l 28 139 l 28 972 l 778 972 l 875 467 l 889 467 l 889 972 l 1639 972 m 594 35 q 729 37 694 35 q 772 48 764 39 q 781 83 781 57 l 885 83 q 872 8 885 26 q 806 -16 858 -11 q 594 -21 753 -21 l 594 35 z "},"Ŋ":{"ha":1667,"x_min":28,"x_max":1639,"o":"m 1639 972 l 1639 181 q 1619 63 1639 104 q 1558 3 1600 21 q 1446 -14 1517 -14 l 833 -14 l 833 83 q 877 93 864 83 q 890 122 890 103 q 889 139 890 133 l 792 654 l 778 654 l 778 0 l 28 0 l 28 972 l 778 972 l 875 451 l 889 451 l 889 972 l 1639 972 z "},"Ñ":{"ha":1667,"x_min":28,"x_max":1639,"o":"m 664 924 q 517 916 583 924 q 413 900 450 908 l 399 953 q 664 993 538 993 q 821 982 724 993 q 997 969 915 969 q 1148 977 1081 969 q 1249 993 1215 985 l 1263 940 q 997 900 1124 900 q 898 904 944 900 q 813 913 851 908 q 664 924 721 924 m 1639 833 l 1639 0 l 885 0 l 796 499 l 782 499 l 782 0 l 28 0 l 28 833 l 782 833 l 871 335 l 885 335 l 885 833 l 1639 833 z "},"O":{"ha":1667,"x_min":14,"x_max":1653,"o":"m 835 -21 q 358 32 538 -21 q 96 196 178 85 q 14 488 14 307 q 97 781 14 671 q 360 942 181 892 q 833 993 539 993 q 1310 942 1131 993 q 1571 781 1489 890 q 1653 489 1653 671 q 1571 196 1653 307 q 1310 32 1489 85 q 835 -21 1132 -21 m 836 331 q 856 340 849 331 q 868 385 864 350 q 872 492 872 419 q 868 590 872 558 q 856 632 864 622 q 835 642 849 642 q 813 632 821 642 q 801 590 806 622 q 797 490 797 557 q 801 385 797 419 q 813 341 806 351 q 836 331 821 331 z "},"Ó":{"ha":1667,"x_min":14,"x_max":1653,"o":"m 833 -21 q 358 28 539 -21 q 96 174 178 76 q 14 419 14 271 q 97 667 14 569 q 361 813 181 764 q 833 861 542 861 q 1307 813 1126 861 q 1570 667 1488 764 q 1653 419 1653 569 q 1571 174 1653 271 q 1308 28 1489 76 q 833 -21 1128 -21 m 835 314 q 860 337 850 314 q 869 428 869 360 q 860 519 869 496 q 835 542 850 542 q 809 519 818 542 q 800 428 800 497 q 809 336 800 358 q 835 314 818 314 z "},"Ô":{"ha":1667,"x_min":14,"x_max":1653,"o":"m 833 -21 q 358 28 539 -21 q 96 174 178 76 q 14 419 14 271 q 97 667 14 569 q 361 813 181 764 q 833 861 542 861 q 1307 813 1126 861 q 1570 667 1488 764 q 1653 419 1653 569 q 1571 174 1653 271 q 1308 28 1489 76 q 833 -21 1128 -21 m 835 314 q 860 337 850 314 q 869 428 869 360 q 860 519 869 496 q 835 542 850 542 q 809 519 818 542 q 800 428 800 497 q 809 336 800 358 q 835 314 818 314 m 375 951 l 833 993 l 1292 951 l 1292 896 l 833 917 l 375 896 l 375 951 z "},"Ö":{"ha":1667,"x_min":14,"x_max":1653,"o":"m 419 903 q 380 916 396 903 q 364 949 364 929 q 380 981 364 968 q 419 993 396 993 q 460 980 443 993 q 476 949 476 967 q 460 916 476 929 q 419 903 443 903 m 1246 903 q 1206 916 1222 903 q 1190 949 1190 929 q 1206 981 1190 968 q 1246 993 1222 993 q 1286 980 1269 993 q 1303 949 1303 967 q 1286 916 1303 929 q 1246 903 1269 903 m 833 -21 q 358 28 539 -21 q 96 174 178 76 q 14 419 14 271 q 97 667 14 569 q 361 813 181 764 q 833 861 542 861 q 1307 813 1126 861 q 1570 667 1488 764 q 1653 419 1653 569 q 1571 174 1653 271 q 1308 28 1489 76 q 833 -21 1128 -21 m 835 314 q 860 337 850 314 q 869 428 869 360 q 860 519 869 496 q 835 542 850 542 q 809 519 818 542 q 800 428 800 497 q 809 336 800 358 q 835 314 818 314 z "},"Ò":{"ha":1667,"x_min":14,"x_max":1653,"o":"m 371 910 l 371 993 l 1294 951 l 1294 896 l 371 910 m 833 -21 q 358 28 539 -21 q 96 174 178 76 q 14 419 14 271 q 97 667 14 569 q 361 813 181 764 q 833 861 542 861 q 1307 813 1126 861 q 1570 667 1488 764 q 1653 419 1653 569 q 1571 174 1653 271 q 1308 28 1489 76 q 833 -21 1128 -21 m 835 314 q 860 337 850 314 q 869 428 869 360 q 860 519 869 496 q 835 542 850 542 q 809 519 818 542 q 800 428 800 497 q 809 336 800 358 q 835 314 818 314 z "},"Ő":{"ha":1667,"x_min":14,"x_max":1653,"o":"m 833 -21 q 358 28 539 -21 q 96 174 178 76 q 14 419 14 271 q 97 667 14 569 q 361 813 181 764 q 833 861 542 861 q 1307 813 1126 861 q 1570 667 1488 764 q 1653 419 1653 569 q 1571 174 1653 271 q 1308 28 1489 76 q 833 -21 1128 -21 m 835 314 q 860 337 850 314 q 869 428 869 360 q 860 519 869 496 q 835 542 850 542 q 809 519 818 542 q 800 428 800 497 q 809 336 800 358 q 835 314 818 314 m 246 951 l 806 993 l 806 910 l 246 896 l 246 951 m 861 951 l 1421 993 l 1421 910 l 861 896 l 861 951 z "},"Ō":{"ha":1667,"x_min":14,"x_max":1653,"o":"m 833 -21 q 358 28 539 -21 q 96 174 178 76 q 14 419 14 271 q 97 667 14 569 q 361 813 181 764 q 833 861 542 861 q 1307 813 1126 861 q 1570 667 1488 764 q 1653 419 1653 569 q 1571 174 1653 271 q 1308 28 1489 76 q 833 -21 1128 -21 m 835 314 q 860 337 850 314 q 869 428 869 360 q 860 519 869 496 q 835 542 850 542 q 809 519 818 542 q 800 428 800 497 q 809 336 800 358 q 835 314 818 314 m 372 972 l 1296 972 l 1296 896 l 372 896 l 372 972 z "},"Ø":{"ha":1667,"x_min":14,"x_max":1653,"o":"m 1415 831 q 1595 689 1538 778 q 1653 475 1653 600 q 1571 229 1653 326 q 1308 83 1489 132 q 833 35 1128 35 q 300 101 492 35 l 188 -21 l 132 35 l 235 128 q 67 267 121 181 q 14 475 14 354 q 97 722 14 625 q 361 868 181 819 q 833 917 542 917 q 1351 854 1161 917 l 1479 993 l 1535 938 l 1415 831 m 835 369 q 860 392 850 369 q 869 483 869 415 q 860 574 869 551 q 835 597 850 597 q 809 575 818 597 q 800 483 800 553 q 809 392 800 414 q 835 369 818 369 z "},"Õ":{"ha":1667,"x_min":14,"x_max":1653,"o":"m 833 -21 q 358 28 539 -21 q 96 174 178 76 q 14 419 14 271 q 97 667 14 569 q 361 813 181 764 q 833 861 542 861 q 1307 813 1126 861 q 1570 667 1488 764 q 1653 419 1653 569 q 1571 174 1653 271 q 1308 28 1489 76 q 833 -21 1128 -21 m 835 314 q 860 337 850 314 q 869 428 869 360 q 860 519 869 496 q 835 542 850 542 q 809 519 818 542 q 800 428 800 497 q 809 336 800 358 q 835 314 818 314 m 399 953 q 664 993 538 993 q 821 982 724 993 q 997 969 915 969 q 1148 977 1081 969 q 1249 993 1215 985 l 1263 940 q 997 900 1124 900 q 898 904 944 900 q 813 913 851 908 q 664 924 721 924 q 517 916 583 924 q 413 900 450 908 l 399 953 z "},"Œ":{"ha":1667,"x_min":14,"x_max":1639,"o":"m 1249 576 q 1250 531 1250 561 l 1568 526 l 1568 446 l 1250 442 l 1249 394 l 1639 400 l 1639 0 l 942 0 q 710 -15 842 -15 q 327 31 479 -15 q 94 188 175 76 q 14 490 14 299 q 94 791 14 681 q 326 947 175 901 q 706 993 476 993 q 969 972 865 993 l 1639 972 l 1639 571 l 1249 576 m 688 344 q 713 372 703 344 q 722 486 722 399 q 713 601 722 574 q 688 628 703 628 q 662 601 671 628 q 653 486 653 574 q 662 372 653 399 q 688 344 671 344 z "},"P":{"ha":1667,"x_min":28,"x_max":1653,"o":"m 954 972 q 1369 942 1218 972 q 1586 845 1519 913 q 1653 660 1653 778 q 1576 458 1653 533 q 1337 348 1500 382 q 903 314 1174 314 l 847 314 l 847 0 l 28 0 l 28 972 l 954 972 m 851 411 q 897 442 878 411 q 917 536 917 474 q 903 613 917 588 q 865 639 889 639 l 847 639 l 847 411 l 851 411 z "},"Þ":{"ha":1667,"x_min":28,"x_max":1653,"o":"m 1653 513 q 1571 276 1653 358 q 1318 164 1489 194 q 847 132 1147 133 l 847 0 l 28 0 l 28 972 l 847 972 l 847 840 q 1326 818 1160 840 q 1572 726 1492 796 q 1653 513 1653 656 m 851 372 q 897 403 876 372 q 917 486 917 435 q 903 574 917 549 q 865 600 890 600 l 847 600 l 847 372 l 851 372 z "},"Q":{"ha":1667,"x_min":14,"x_max":1653,"o":"m 835 93 q 357 138 536 93 q 96 281 178 183 q 14 538 14 378 q 97 797 14 697 q 359 944 179 896 q 835 993 539 993 q 1309 944 1129 993 q 1571 797 1489 896 q 1653 538 1653 697 q 1571 281 1653 378 q 1310 138 1489 183 q 835 93 1132 93 m 833 400 q 861 426 850 400 q 872 528 872 451 q 862 624 872 600 q 835 647 851 647 q 807 624 817 647 q 797 528 797 600 q 833 400 797 400 m 751 35 l 1465 49 l 1465 -21 l 751 -21 l 751 35 z "},"R":{"ha":1667,"x_min":28,"x_max":1653,"o":"m 1653 660 q 1623 520 1653 579 q 1529 419 1593 461 l 1638 0 l 931 0 l 894 314 l 847 314 l 847 0 l 28 0 l 28 972 l 954 972 q 1369 942 1218 972 q 1586 845 1519 913 q 1653 660 1653 778 m 851 411 q 897 442 878 411 q 917 536 917 474 q 903 613 917 588 q 865 639 889 639 l 847 639 l 847 411 l 851 411 z "},"Ŕ":{"ha":1667,"x_min":28,"x_max":1653,"o":"m 1307 910 l 383 896 l 383 951 l 1307 993 l 1307 910 m 1653 563 q 1624 440 1653 489 q 1532 357 1596 390 l 1638 0 l 931 0 l 888 278 l 847 278 l 847 0 l 28 0 l 28 833 l 847 833 q 1342 812 1174 833 q 1581 733 1510 790 q 1653 563 1653 676 m 851 314 q 897 345 876 314 q 917 428 917 376 q 903 516 917 490 q 865 542 890 542 l 847 542 l 847 314 l 851 314 z "},"Ř":{"ha":1667,"x_min":28,"x_max":1653,"o":"m 847 896 l 389 938 l 389 993 l 847 972 l 1306 993 l 1306 938 l 847 896 m 1653 563 q 1624 440 1653 489 q 1532 357 1596 390 l 1638 0 l 931 0 l 888 278 l 847 278 l 847 0 l 28 0 l 28 833 l 847 833 q 1342 812 1174 833 q 1581 733 1510 790 q 1653 563 1653 676 m 851 314 q 897 345 876 314 q 917 428 917 376 q 903 516 917 490 q 865 542 890 542 l 847 542 l 847 314 l 851 314 z "},"Ŗ":{"ha":1667,"x_min":28,"x_max":1653,"o":"m 1653 706 q 1623 583 1653 633 q 1532 499 1593 533 l 1638 139 l 931 139 l 888 417 l 847 417 l 847 139 l 28 139 l 28 972 l 950 972 q 1367 948 1217 972 q 1585 866 1518 924 q 1653 706 1653 808 m 851 453 q 897 484 878 453 q 917 578 917 515 q 903 655 917 629 q 865 681 889 681 l 847 681 l 847 453 l 851 453 m 650 35 q 785 37 750 35 q 828 48 819 39 q 836 83 836 57 l 940 83 q 927 8 940 26 q 861 -16 914 -11 q 650 -21 808 -21 l 650 35 z "},"S":{"ha":1667,"x_min":14,"x_max":1653,"o":"m 824 -21 q 378 10 613 -21 q 42 74 143 40 l 42 494 q 550 378 232 378 q 892 418 751 378 l 883 454 q 539 429 690 429 q 258 459 376 429 q 77 545 140 489 q 14 679 14 601 q 228 917 14 840 q 835 993 443 993 q 1177 976 1008 993 q 1468 937 1346 960 q 1625 899 1590 914 l 1625 481 q 1403 568 1528 539 q 1117 597 1279 597 q 761 557 921 597 l 769 521 q 1128 546 958 546 q 1519 478 1385 546 q 1653 281 1653 411 q 1447 51 1653 122 q 824 -21 1242 -21 z "},"Ś":{"ha":1667,"x_min":14,"x_max":1653,"o":"m 824 -21 q 426 -3 638 -21 q 28 42 215 14 l 28 400 q 256 333 107 360 q 551 306 404 306 q 735 319 639 306 q 892 351 832 332 l 883 388 q 718 363 811 372 q 551 354 625 354 q 153 415 292 354 q 14 601 14 476 q 98 757 14 701 q 375 837 182 813 q 913 861 568 861 q 1639 800 1261 861 l 1639 456 q 1410 515 1558 492 q 1115 538 1263 538 q 924 524 1024 538 q 761 490 824 511 l 769 454 q 941 479 843 469 q 1115 489 1039 489 q 1516 426 1379 489 q 1653 239 1653 363 q 1578 81 1653 136 q 1328 2 1504 25 q 824 -21 1151 -21 z "},"Š":{"ha":1667,"x_min":14,"x_max":1653,"o":"m 824 -21 q 426 -3 638 -21 q 28 42 215 14 l 28 400 q 256 333 107 360 q 551 306 404 306 q 735 319 639 306 q 892 351 832 332 l 883 388 q 718 363 811 372 q 551 354 625 354 q 153 415 292 354 q 14 601 14 476 q 98 757 14 701 q 375 837 182 813 q 913 861 568 861 q 1639 800 1261 861 l 1639 456 q 1410 515 1558 492 q 1115 538 1263 538 q 924 524 1024 538 q 761 490 824 511 l 769 454 q 941 479 843 469 q 1115 489 1039 489 q 1516 426 1379 489 q 1653 239 1653 363 q 1578 81 1653 136 q 1328 2 1504 25 q 824 -21 1151 -21 m 417 938 l 417 993 l 875 972 l 1333 993 l 1333 938 l 875 896 l 417 938 z "},"Ş":{"ha":1667,"x_min":14,"x_max":1653,"o":"m 1653 371 q 1582 215 1653 269 q 1343 136 1511 160 q 864 111 1175 113 l 875 36 l 875 -6 l 792 -6 l 792 36 l 803 111 q 416 129 621 113 q 28 174 211 146 l 28 532 q 256 465 107 492 q 551 438 404 438 q 735 451 639 438 q 892 483 832 464 l 883 519 q 718 495 811 504 q 551 486 625 486 q 153 547 292 486 q 14 733 14 608 q 98 889 14 833 q 375 969 182 944 q 913 993 568 993 q 1639 932 1261 993 l 1639 588 q 1410 647 1558 624 q 1115 669 1263 669 q 924 656 1024 669 q 761 622 824 643 l 769 586 q 941 611 843 601 q 1115 621 1039 621 q 1516 558 1379 621 q 1653 371 1653 494 z "},"Ș":{"ha":1667,"x_min":14,"x_max":1653,"o":"m 824 111 q 426 128 638 111 q 28 174 215 146 l 28 532 q 256 465 107 492 q 551 438 404 438 q 735 451 639 438 q 892 483 832 464 l 883 519 q 718 495 811 504 q 551 486 625 486 q 153 547 292 486 q 14 733 14 608 q 98 889 14 833 q 375 969 182 944 q 913 993 568 993 q 1639 932 1261 993 l 1639 588 q 1410 647 1558 624 q 1115 669 1263 669 q 924 656 1024 669 q 761 622 824 643 l 769 586 q 941 611 843 601 q 1115 621 1039 621 q 1516 558 1379 621 q 1653 371 1653 494 q 1578 213 1653 268 q 1328 134 1504 157 q 824 111 1151 111 m 631 35 q 765 37 731 35 q 808 48 800 39 q 817 83 817 57 l 921 83 q 908 8 921 26 q 842 -16 894 -11 q 631 -21 789 -21 l 631 35 z "},"ẞ":{"ha":1667,"x_min":28,"x_max":1653,"o":"m 971 457 q 1349 446 1215 457 q 1568 388 1483 435 q 1653 239 1653 342 q 1574 94 1653 146 q 1326 21 1496 42 q 861 0 1156 0 l 861 317 l 861 457 l 861 513 l 861 697 q 847 750 861 739 q 806 761 833 761 l 806 0 l 28 0 l 28 972 l 1639 972 l 1639 789 q 1590 633 1639 692 q 1395 544 1540 575 q 971 514 1250 514 l 971 457 z "},"T":{"ha":1667,"x_min":28,"x_max":1639,"o":"m 1639 431 l 1250 431 l 1250 0 l 417 0 l 417 431 l 28 431 l 28 972 l 1639 972 l 1639 431 z "},"Ŧ":{"ha":1667,"x_min":28,"x_max":1639,"o":"m 1250 431 l 1250 375 l 1639 375 l 1639 319 l 1250 319 l 1250 0 l 417 0 l 417 319 l 28 319 l 28 375 l 417 375 l 417 431 l 28 431 l 28 972 l 1639 972 l 1639 431 l 1250 431 z "},"Ť":{"ha":1667,"x_min":28,"x_max":1639,"o":"m 833 896 l 375 938 l 375 993 l 833 972 l 1292 993 l 1292 938 l 833 896 m 1639 292 l 1250 292 l 1250 0 l 417 0 l 417 292 l 28 292 l 28 833 l 1639 833 l 1639 292 z "},"Ţ":{"ha":1667,"x_min":28,"x_max":1639,"o":"m 1639 431 l 1250 431 l 1250 139 l 861 139 l 875 43 l 875 1 l 792 1 l 792 43 l 806 139 l 417 139 l 417 431 l 28 431 l 28 972 l 1639 972 l 1639 431 z "},"Ț":{"ha":1667,"x_min":28,"x_max":1639,"o":"m 1639 431 l 1250 431 l 1250 139 l 417 139 l 417 431 l 28 431 l 28 972 l 1639 972 l 1639 431 m 601 35 q 736 37 701 35 q 779 48 771 39 q 788 83 788 57 l 892 83 q 878 8 892 26 q 813 -16 865 -11 q 601 -21 760 -21 l 601 35 z "},"U":{"ha":1667,"x_min":28,"x_max":1639,"o":"m 833 -21 q 349 31 522 -21 q 102 200 176 82 q 28 532 28 318 l 28 972 l 806 972 l 806 393 q 812 335 806 350 q 833 321 818 321 q 854 336 847 321 q 861 393 861 351 l 861 972 l 1639 972 l 1639 532 q 1565 200 1639 318 q 1317 31 1490 82 q 833 -21 1144 -21 z "},"Ú":{"ha":1667,"x_min":28,"x_max":1639,"o":"m 369 951 l 1293 993 l 1293 910 l 369 896 l 369 951 m 833 -21 q 352 31 526 -21 q 103 197 178 83 q 28 504 28 311 l 28 833 l 806 833 l 806 421 q 812 340 806 360 q 833 321 818 321 q 854 340 847 321 q 861 421 861 360 l 861 833 l 1639 833 l 1639 504 q 1564 197 1639 311 q 1315 31 1489 83 q 833 -21 1140 -21 z "},"Û":{"ha":1667,"x_min":28,"x_max":1639,"o":"m 375 951 l 833 993 l 1292 951 l 1292 896 l 833 917 l 375 896 l 375 951 m 833 -21 q 352 31 526 -21 q 103 197 178 83 q 28 504 28 311 l 28 833 l 806 833 l 806 421 q 812 340 806 360 q 833 321 818 321 q 854 340 847 321 q 861 421 861 360 l 861 833 l 1639 833 l 1639 504 q 1564 197 1639 311 q 1315 31 1489 83 q 833 -21 1140 -21 z "},"Ü":{"ha":1667,"x_min":28,"x_max":1639,"o":"m 419 903 q 380 916 396 903 q 364 949 364 929 q 380 981 364 968 q 419 993 396 993 q 460 980 443 993 q 476 949 476 967 q 460 916 476 929 q 419 903 443 903 m 1246 903 q 1206 916 1222 903 q 1190 949 1190 929 q 1206 981 1190 968 q 1246 993 1222 993 q 1286 980 1269 993 q 1303 949 1303 967 q 1286 916 1303 929 q 1246 903 1269 903 m 833 -21 q 352 31 526 -21 q 103 197 178 83 q 28 504 28 311 l 28 833 l 806 833 l 806 421 q 812 340 806 360 q 833 321 818 321 q 854 340 847 321 q 861 421 861 360 l 861 833 l 1639 833 l 1639 504 q 1564 197 1639 311 q 1315 31 1489 83 q 833 -21 1140 -21 z "},"Ù":{"ha":1667,"x_min":28,"x_max":1639,"o":"m 371 910 l 371 993 l 1294 951 l 1294 896 l 371 910 m 833 -21 q 352 31 526 -21 q 103 197 178 83 q 28 504 28 311 l 28 833 l 806 833 l 806 421 q 812 340 806 360 q 833 321 818 321 q 854 340 847 321 q 861 421 861 360 l 861 833 l 1639 833 l 1639 504 q 1564 197 1639 311 q 1315 31 1489 83 q 833 -21 1140 -21 z "},"Ű":{"ha":1667,"x_min":28,"x_max":1639,"o":"m 246 951 l 806 993 l 806 910 l 246 896 l 246 951 m 861 951 l 1421 993 l 1421 910 l 861 896 l 861 951 m 833 -21 q 352 31 526 -21 q 103 197 178 83 q 28 504 28 311 l 28 833 l 806 833 l 806 421 q 812 340 806 360 q 833 321 818 321 q 854 340 847 321 q 861 421 861 360 l 861 833 l 1639 833 l 1639 504 q 1564 197 1639 311 q 1315 31 1489 83 q 833 -21 1140 -21 z "},"Ū":{"ha":1667,"x_min":28,"x_max":1639,"o":"m 372 972 l 1296 972 l 1296 896 l 372 896 l 372 972 m 833 -21 q 352 31 526 -21 q 103 197 178 83 q 28 504 28 311 l 28 833 l 806 833 l 806 421 q 812 340 806 360 q 833 321 818 321 q 854 340 847 321 q 861 421 861 360 l 861 833 l 1639 833 l 1639 504 q 1564 197 1639 311 q 1315 31 1489 83 q 833 -21 1140 -21 z "},"Ų":{"ha":1667,"x_min":28,"x_max":1639,"o":"m 1639 972 l 1639 643 q 1597 397 1639 496 q 1463 238 1556 299 q 1369 151 1396 185 q 1342 88 1342 117 q 1364 50 1342 61 q 1438 39 1386 39 q 1517 44 1476 39 l 1508 -4 q 1415 -21 1467 -21 q 1290 5 1333 -21 q 1247 72 1247 31 q 1310 169 1247 121 q 833 118 1140 118 q 352 170 526 118 q 103 336 178 222 q 28 643 28 450 l 28 972 l 806 972 l 806 560 q 812 479 806 499 q 833 460 818 460 q 854 479 847 460 q 861 560 861 499 l 861 972 l 1639 972 z "},"Ů":{"ha":1667,"x_min":28,"x_max":1639,"o":"m 836 836 q 744 854 774 836 q 715 915 715 872 q 747 972 715 951 q 836 993 779 993 q 925 974 894 993 q 956 915 956 954 q 927 854 956 872 q 836 836 899 836 m 836 889 q 900 915 900 889 q 885 935 900 929 q 836 940 869 940 q 786 935 801 940 q 771 915 771 929 q 836 889 771 889 m 833 -21 q 352 31 526 -21 q 103 197 178 83 q 28 504 28 311 l 28 833 l 683 833 q 806 782 719 789 l 806 421 q 811 342 806 363 q 832 321 817 321 q 854 342 847 321 q 861 421 861 364 l 861 782 q 985 833 947 786 l 1639 833 l 1639 504 q 1564 197 1639 311 q 1315 31 1489 83 q 833 -21 1140 -21 z "},"V":{"ha":1667,"x_min":14,"x_max":1653,"o":"m 1653 972 l 1486 0 l 181 0 l 14 972 l 792 972 l 826 306 l 840 306 l 875 972 l 1653 972 z "},"W":{"ha":1667,"x_min":14,"x_max":1653,"o":"m 1653 972 l 1569 0 l 876 0 l 839 638 l 826 638 l 775 0 l 97 0 l 14 972 l 719 972 l 754 369 l 768 369 l 801 819 l 864 819 l 889 369 l 903 369 l 946 972 l 1653 972 z "},"Ẃ":{"ha":1667,"x_min":14,"x_max":1653,"o":"m 1293 910 l 369 896 l 369 951 l 1293 993 l 1293 910 m 1653 833 l 1556 0 l 876 0 l 839 515 l 826 515 l 775 0 l 111 0 l 14 833 l 719 833 l 756 282 l 768 282 l 801 704 l 864 704 l 889 282 l 900 282 l 946 833 l 1653 833 z "},"Ŵ":{"ha":1667,"x_min":14,"x_max":1653,"o":"m 833 917 l 375 896 l 375 951 l 833 993 l 1292 951 l 1292 896 l 833 917 m 1653 833 l 1556 0 l 876 0 l 839 515 l 826 515 l 775 0 l 111 0 l 14 833 l 719 833 l 756 282 l 768 282 l 801 704 l 864 704 l 889 282 l 900 282 l 946 833 l 1653 833 z "},"Ẅ":{"ha":1667,"x_min":14,"x_max":1653,"o":"m 419 903 q 380 916 396 903 q 364 949 364 929 q 380 981 364 968 q 419 993 396 993 q 460 980 443 993 q 476 949 476 967 q 460 916 476 929 q 419 903 443 903 m 1246 903 q 1206 916 1222 903 q 1190 949 1190 929 q 1206 981 1190 968 q 1246 993 1222 993 q 1286 980 1269 993 q 1303 949 1303 967 q 1286 916 1303 929 q 1246 903 1269 903 m 1653 833 l 1556 0 l 876 0 l 839 515 l 826 515 l 775 0 l 111 0 l 14 833 l 719 833 l 756 282 l 768 282 l 801 704 l 864 704 l 889 282 l 900 282 l 946 833 l 1653 833 z "},"Ẁ":{"ha":1667,"x_min":14,"x_max":1653,"o":"m 1294 896 l 371 910 l 371 993 l 1294 951 l 1294 896 m 1653 833 l 1556 0 l 876 0 l 839 515 l 826 515 l 775 0 l 111 0 l 14 833 l 719 833 l 756 282 l 768 282 l 801 704 l 864 704 l 889 282 l 900 282 l 946 833 l 1653 833 z "},"X":{"ha":1667,"x_min":14,"x_max":1653,"o":"m 1539 471 l 1653 0 l 878 0 l 840 419 l 826 419 l 789 0 l 14 0 l 128 471 l 14 972 l 789 972 l 826 517 l 840 517 l 878 972 l 1653 972 l 1539 471 z "},"Y":{"ha":1667,"x_min":14,"x_max":1653,"o":"m 1251 192 l 1251 0 l 418 0 l 418 189 l 14 972 l 789 972 l 825 556 l 844 556 l 878 972 l 1653 972 l 1251 192 z "},"Ý":{"ha":1667,"x_min":14,"x_max":1653,"o":"m 1293 910 l 369 896 l 369 951 l 1293 993 l 1293 910 m 1250 156 l 1250 0 l 419 0 l 419 153 l 14 833 l 789 833 l 825 490 l 842 490 l 878 833 l 1653 833 l 1250 156 z "},"Ŷ":{"ha":1667,"x_min":14,"x_max":1653,"o":"m 833 917 l 375 896 l 375 951 l 833 993 l 1292 951 l 1292 896 l 833 917 m 1250 156 l 1250 0 l 419 0 l 419 153 l 14 833 l 789 833 l 825 490 l 842 490 l 878 833 l 1653 833 l 1250 156 z "},"Ÿ":{"ha":1667,"x_min":14,"x_max":1653,"o":"m 419 903 q 380 916 396 903 q 364 949 364 929 q 380 981 364 968 q 419 993 396 993 q 460 980 443 993 q 476 949 476 967 q 460 916 476 929 q 419 903 443 903 m 1246 903 q 1206 916 1222 903 q 1190 949 1190 929 q 1206 981 1190 968 q 1246 993 1222 993 q 1286 980 1269 993 q 1303 949 1303 967 q 1286 916 1303 929 q 1246 903 1269 903 m 1250 156 l 1250 0 l 419 0 l 419 153 l 14 833 l 789 833 l 825 490 l 842 490 l 878 833 l 1653 833 l 1250 156 z "},"Ỳ":{"ha":1667,"x_min":14,"x_max":1653,"o":"m 1294 896 l 371 910 l 371 993 l 1294 951 l 1294 896 m 1250 156 l 1250 0 l 419 0 l 419 153 l 14 833 l 789 833 l 825 490 l 842 490 l 878 833 l 1653 833 l 1250 156 z "},"Z":{"ha":1667,"x_min":28,"x_max":1639,"o":"m 28 483 l 926 571 l 926 585 l 28 569 l 28 972 l 1635 972 l 1635 489 l 743 400 l 743 388 l 1639 403 l 1639 -1 l 28 -1 l 28 483 z "},"Ź":{"ha":1667,"x_min":28,"x_max":1639,"o":"m 28 361 l 996 499 l 996 513 l 28 431 l 28 833 l 1639 833 l 1639 471 l 674 319 l 674 306 l 1639 401 l 1639 -1 l 28 -1 l 28 361 z "},"Ž":{"ha":1667,"x_min":28,"x_max":1639,"o":"m 28 361 l 996 499 l 996 513 l 28 431 l 28 833 l 1639 833 l 1639 471 l 674 319 l 674 306 l 1639 401 l 1639 -1 l 28 -1 l 28 361 m 375 938 l 375 993 l 833 972 l 1292 993 l 1292 938 l 833 896 l 375 938 z "},"Ż":{"ha":1667,"x_min":28,"x_max":1639,"o":"m 28 361 l 996 499 l 996 513 l 28 431 l 28 833 l 1639 833 l 1639 471 l 674 319 l 674 306 l 1639 401 l 1639 -1 l 28 -1 l 28 361 m 832 903 q 759 914 779 903 q 739 949 739 925 q 759 983 739 972 q 832 993 779 993 q 906 983 885 993 q 926 949 926 972 q 906 914 926 925 q 832 903 885 903 z "},"a":{"ha":1667,"x_min":14,"x_max":1639,"o":"m 964 861 q 1353 825 1211 861 q 1567 685 1494 789 q 1639 378 1639 581 l 1639 0 l 819 0 l 806 83 l 792 83 q 613 5 707 31 q 378 -21 518 -21 q 96 30 178 -21 q 14 174 14 81 q 112 338 14 285 q 370 405 210 390 q 804 419 531 419 q 780 465 801 453 q 692 478 758 478 l 56 478 l 56 813 q 518 847 267 832 q 964 861 769 861 m 783 176 q 806 183 796 176 l 806 322 q 786 324 799 324 q 757 306 764 324 q 750 250 750 289 q 756 194 750 211 q 783 176 763 176 z "},"á":{"ha":1667,"x_min":14,"x_max":1639,"o":"m 964 861 q 1353 825 1211 861 q 1567 685 1494 789 q 1639 378 1639 581 l 1639 0 l 819 0 l 806 83 l 792 83 q 613 5 707 31 q 378 -21 518 -21 q 96 30 178 -21 q 14 174 14 81 q 112 338 14 285 q 370 405 210 390 q 804 419 531 419 q 780 465 801 453 q 692 478 758 478 l 56 478 l 56 813 q 518 847 267 832 q 964 861 769 861 m 783 176 q 806 183 796 176 l 806 322 q 786 324 799 324 q 757 306 764 324 q 750 250 750 289 q 756 194 750 211 q 783 176 763 176 z "},"ă":{"ha":1667,"x_min":14,"x_max":1639,"o":"m 964 861 q 1353 825 1211 861 q 1567 685 1494 789 q 1639 378 1639 581 l 1639 0 l 819 0 l 806 83 l 792 83 q 613 5 707 31 q 378 -21 518 -21 q 96 30 178 -21 q 14 174 14 81 q 112 338 14 285 q 370 405 210 390 q 804 419 531 419 q 780 465 801 453 q 692 478 758 478 l 56 478 l 56 813 q 518 847 267 832 q 964 861 769 861 m 783 176 q 806 183 796 176 l 806 322 q 786 324 799 324 q 757 306 764 324 q 750 250 750 289 q 756 194 750 211 q 783 176 763 176 m 919 903 q 610 910 704 903 q 483 935 515 917 q 442 993 451 953 l 497 993 q 528 978 504 982 q 653 974 553 975 q 919 972 753 972 q 1186 974 1086 972 q 1310 978 1286 975 q 1342 993 1335 982 l 1397 993 q 1356 935 1388 953 q 1229 910 1324 917 q 919 903 1135 903 z "},"â":{"ha":1667,"x_min":14,"x_max":1639,"o":"m 964 861 q 1353 825 1211 861 q 1567 685 1494 789 q 1639 378 1639 581 l 1639 0 l 819 0 l 806 83 l 792 83 q 613 5 707 31 q 378 -21 518 -21 q 96 30 178 -21 q 14 174 14 81 q 112 338 14 285 q 370 405 210 390 q 804 419 531 419 q 780 465 801 453 q 692 478 758 478 l 56 478 l 56 813 q 518 847 267 832 q 964 861 769 861 m 783 176 q 806 183 796 176 l 806 322 q 786 324 799 324 q 757 306 764 324 q 750 250 750 289 q 756 194 750 211 q 783 176 763 176 m 458 951 l 917 993 l 1375 951 l 1375 896 l 917 917 l 458 896 l 458 951 z "},"ä":{"ha":1667,"x_min":14,"x_max":1639,"o":"m 503 903 q 463 916 479 903 q 447 949 447 929 q 463 981 447 968 q 503 993 479 993 q 543 980 526 993 q 560 949 560 967 q 543 916 560 929 q 503 903 526 903 m 1329 903 q 1290 916 1306 903 q 1274 949 1274 929 q 1290 981 1274 968 q 1329 993 1306 993 q 1369 980 1353 993 q 1386 949 1386 967 q 1369 916 1386 929 q 1329 903 1353 903 m 964 861 q 1353 825 1211 861 q 1567 685 1494 789 q 1639 378 1639 581 l 1639 0 l 819 0 l 806 83 l 792 83 q 613 5 707 31 q 378 -21 518 -21 q 96 30 178 -21 q 14 174 14 81 q 112 338 14 285 q 370 405 210 390 q 804 419 531 419 q 780 465 801 453 q 692 478 758 478 l 56 478 l 56 813 q 518 847 267 832 q 964 861 769 861 m 783 176 q 806 183 796 176 l 806 322 q 786 324 799 324 q 757 306 764 324 q 750 250 750 289 q 756 194 750 211 q 783 176 763 176 z "},"à":{"ha":1667,"x_min":14,"x_max":1639,"o":"m 1378 896 l 454 910 l 454 993 l 1378 951 l 1378 896 m 964 861 q 1353 825 1211 861 q 1567 685 1494 789 q 1639 378 1639 581 l 1639 0 l 819 0 l 806 83 l 792 83 q 613 5 707 31 q 378 -21 518 -21 q 96 30 178 -21 q 14 174 14 81 q 112 338 14 285 q 370 405 210 390 q 804 419 531 419 q 780 465 801 453 q 692 478 758 478 l 56 478 l 56 813 q 518 847 267 832 q 964 861 769 861 m 783 176 q 806 183 796 176 l 806 322 q 786 324 799 324 q 757 306 764 324 q 750 250 750 289 q 756 194 750 211 q 783 176 763 176 z "},"ā":{"ha":1667,"x_min":14,"x_max":1639,"o":"m 964 861 q 1353 825 1211 861 q 1567 685 1494 789 q 1639 378 1639 581 l 1639 0 l 819 0 l 806 83 l 792 83 q 613 5 707 31 q 378 -21 518 -21 q 96 30 178 -21 q 14 174 14 81 q 112 338 14 285 q 370 405 210 390 q 804 419 531 419 q 780 465 801 453 q 692 478 758 478 l 56 478 l 56 813 q 518 847 267 832 q 964 861 769 861 m 783 176 q 806 183 796 176 l 806 322 q 786 324 799 324 q 757 306 764 324 q 750 250 750 289 q 756 194 750 211 q 783 176 763 176 m 456 972 l 1379 972 l 1379 896 l 456 896 l 456 972 z "},"ą":{"ha":1667,"x_min":14,"x_max":1656,"o":"m 1576 43 q 1656 49 1615 43 l 1647 0 q 1554 -17 1606 -17 q 1429 9 1472 -17 q 1386 76 1386 35 q 1428 140 1386 118 l 1422 153 q 1355 135 1379 153 q 1331 83 1331 118 l 792 83 q 613 5 707 31 q 378 -21 518 -21 q 96 30 178 -21 q 14 174 14 81 q 112 338 14 285 q 370 405 210 390 q 804 419 531 419 q 777 466 800 454 q 692 478 754 478 l 56 478 l 56 813 q 518 847 267 832 q 964 861 769 861 q 1353 825 1211 861 q 1567 685 1494 789 q 1639 378 1639 581 l 1639 139 q 1517 122 1553 133 q 1481 85 1481 110 q 1576 43 1481 43 m 783 176 q 806 183 796 176 l 806 322 q 786 324 799 324 q 757 306 764 324 q 750 250 750 289 q 756 194 750 211 q 783 176 763 176 z "},"å":{"ha":1667,"x_min":14,"x_max":1639,"o":"m 906 836 q 814 854 843 836 q 785 915 785 872 q 817 972 785 951 q 906 993 849 993 q 994 974 964 993 q 1025 915 1025 954 q 997 854 1025 872 q 906 836 968 836 m 906 889 q 969 915 969 889 q 954 935 969 929 q 906 940 939 940 q 856 935 871 940 q 840 915 840 929 q 906 889 840 889 m 378 -21 q 96 30 178 -21 q 14 174 14 81 q 112 338 14 285 q 370 405 210 390 q 803 419 531 419 q 776 464 800 450 q 692 478 753 478 l 56 478 l 56 813 q 378 837 185 824 q 738 857 572 850 q 903 781 772 781 q 1068 860 1036 781 q 1397 810 1275 853 q 1578 667 1518 768 q 1639 378 1639 565 l 1639 0 l 819 0 l 806 83 l 792 83 q 613 5 707 31 q 378 -21 518 -21 m 783 176 q 806 183 796 176 l 806 322 l 788 324 q 757 306 764 324 q 750 250 750 289 q 756 194 750 211 q 783 176 763 176 z "},"ã":{"ha":1667,"x_min":14,"x_max":1639,"o":"m 964 861 q 1353 825 1211 861 q 1567 685 1494 789 q 1639 378 1639 581 l 1639 0 l 819 0 l 806 83 l 792 83 q 613 5 707 31 q 378 -21 518 -21 q 96 30 178 -21 q 14 174 14 81 q 112 338 14 285 q 370 405 210 390 q 804 419 531 419 q 780 465 801 453 q 692 478 758 478 l 56 478 l 56 813 q 518 847 267 832 q 964 861 769 861 m 783 176 q 806 183 796 176 l 806 322 q 786 324 799 324 q 757 306 764 324 q 750 250 750 289 q 756 194 750 211 q 783 176 763 176 m 482 953 q 747 993 621 993 q 904 982 807 993 q 1081 969 999 969 q 1231 977 1164 969 q 1332 993 1299 985 l 1346 940 q 1081 900 1207 900 q 981 904 1028 900 q 896 913 935 908 q 747 924 804 924 q 600 916 667 924 q 496 900 533 908 l 482 953 z "},"æ":{"ha":1667,"x_min":14,"x_max":1653,"o":"m 264 -21 q 14 169 14 -21 q 94 335 14 281 q 295 405 175 390 q 594 419 415 419 q 567 463 590 450 q 483 478 543 476 l 56 478 l 56 813 q 900 861 507 861 q 1285 835 1125 861 q 1549 723 1446 808 q 1653 472 1653 638 l 1625 403 l 1035 403 q 1081 358 1046 368 q 1201 347 1117 347 l 1611 347 l 1611 28 q 1349 -8 1460 4 q 1114 -21 1239 -21 q 800 8 931 -21 q 597 83 669 38 l 583 83 q 426 4 494 29 q 264 -21 357 -21 m 1111 485 q 1101 560 1108 538 q 1074 582 1093 582 q 1042 558 1051 582 q 1031 485 1033 535 l 1111 485 m 575 176 q 597 183 588 176 l 597 322 q 576 324 589 324 q 549 306 556 324 q 542 250 542 288 q 548 194 542 211 q 575 176 554 176 z "},"b":{"ha":1667,"x_min":28,"x_max":1653,"o":"m 1276 861 q 1555 758 1457 861 q 1653 424 1653 656 q 1275 -21 1653 -21 q 861 208 1001 -21 l 833 208 l 819 0 l 28 0 l 28 972 l 833 972 l 833 639 l 861 639 q 1031 804 926 747 q 1276 861 1135 861 m 856 343 q 881 360 874 343 q 889 424 889 378 q 881 487 889 469 q 856 504 874 504 q 833 497 843 504 l 833 350 q 856 343 843 343 z "},"c":{"ha":1667,"x_min":14,"x_max":1639,"o":"m 865 -21 q 381 22 567 -21 q 104 160 194 64 q 14 418 14 257 q 106 679 14 582 q 383 819 199 776 q 856 861 567 861 q 1260 845 1051 861 q 1639 806 1469 829 l 1639 447 l 951 447 q 863 442 890 447 q 836 419 836 438 q 863 397 836 401 q 951 392 890 392 l 1639 392 l 1611 28 q 1252 -7 1451 7 q 865 -21 1053 -21 z "},"ć":{"ha":1667,"x_min":14,"x_max":1639,"o":"m 865 -21 q 381 22 567 -21 q 104 160 194 64 q 14 418 14 257 q 106 679 14 582 q 383 819 199 776 q 856 861 567 861 q 1260 845 1051 861 q 1639 806 1469 829 l 1639 447 l 951 447 q 863 442 890 447 q 836 419 836 438 q 863 397 836 401 q 951 392 890 392 l 1639 392 l 1611 28 q 1252 -7 1451 7 q 865 -21 1053 -21 z "},"č":{"ha":1667,"x_min":14,"x_max":1639,"o":"m 865 -21 q 381 22 567 -21 q 104 160 194 64 q 14 418 14 257 q 106 679 14 582 q 383 819 199 776 q 856 861 567 861 q 1260 845 1051 861 q 1639 806 1469 829 l 1639 447 l 951 447 q 863 442 890 447 q 836 419 836 438 q 863 397 836 401 q 951 392 890 392 l 1639 392 l 1611 28 q 1252 -7 1451 7 q 865 -21 1053 -21 m 397 938 l 397 993 l 856 972 l 1314 993 l 1314 938 l 856 896 l 397 938 z "},"ç":{"ha":1667,"x_min":14,"x_max":1639,"o":"m 946 514 q 858 508 879 514 q 836 486 836 503 q 858 464 836 469 q 946 458 879 458 l 1639 458 l 1611 164 q 1264 126 1458 142 q 890 110 1069 111 l 903 21 l 903 -21 l 819 -21 l 819 21 l 832 110 q 217 206 419 113 q 14 488 14 299 q 220 770 14 678 q 850 863 426 863 q 1242 847 1032 863 q 1639 806 1451 832 l 1639 514 l 946 514 z "},"ċ":{"ha":1667,"x_min":14,"x_max":1639,"o":"m 865 -21 q 381 22 567 -21 q 104 160 194 64 q 14 418 14 257 q 106 679 14 582 q 383 819 199 776 q 856 861 567 861 q 1260 845 1051 861 q 1639 806 1469 829 l 1639 447 l 951 447 q 863 442 890 447 q 836 419 836 438 q 863 397 836 401 q 951 392 890 392 l 1639 392 l 1611 28 q 1252 -7 1451 7 q 865 -21 1053 -21 m 854 903 q 781 914 801 903 q 761 949 761 925 q 781 983 761 972 q 854 993 801 993 q 928 983 907 993 q 949 949 949 972 q 928 914 949 925 q 854 903 907 903 z "},"d":{"ha":1667,"x_min":47,"x_max":1639,"o":"m 1639 972 l 1639 0 l 861 0 l 847 208 l 833 208 q 647 40 758 100 q 410 -21 536 -21 q 140 95 233 -21 q 47 407 47 211 q 101 632 47 549 q 274 753 156 715 q 596 790 393 790 q 847 779 689 790 l 847 972 l 1639 972 m 821 343 q 847 351 835 343 l 847 599 l 835 599 q 769 467 769 599 q 821 343 769 343 z "},"ð":{"ha":1667,"x_min":47,"x_max":1653,"o":"m 1653 846 l 1597 846 l 1597 0 l 875 0 l 861 208 l 847 208 q 655 40 772 101 q 410 -21 538 -21 q 140 95 233 -21 q 47 407 47 211 q 101 631 47 547 q 273 752 154 714 q 594 790 392 790 q 861 779 703 790 l 861 846 l 679 846 l 679 901 l 861 901 l 861 972 l 1597 972 l 1597 901 l 1653 901 l 1653 846 m 835 343 q 861 351 849 343 l 861 599 l 849 599 q 783 467 783 599 q 835 343 783 343 z "},"ď":{"ha":1667,"x_min":47,"x_max":1639,"o":"m 792 972 l 1500 972 l 1500 0 l 806 0 l 792 208 l 778 208 q 592 42 704 104 q 365 -21 479 -21 q 130 94 213 -21 q 47 408 47 210 q 94 633 47 550 q 247 753 142 715 q 533 790 353 790 q 792 779 633 790 l 792 972 m 1639 972 l 1639 833 l 1625 694 l 1569 694 l 1556 833 l 1556 972 l 1639 972 m 765 343 q 792 351 779 343 l 792 599 l 779 599 q 714 467 714 599 q 765 343 714 343 z "},"đ":{"ha":1667,"x_min":47,"x_max":1667,"o":"m 1667 850 l 1611 850 l 1611 0 l 861 0 l 847 208 l 833 208 q 651 38 753 96 q 418 -21 549 -21 q 140 94 232 -21 q 47 400 47 208 q 101 628 47 543 q 276 751 156 713 q 597 790 396 790 q 847 779 689 790 l 847 850 l 597 850 l 597 906 l 847 906 l 847 972 l 1611 972 l 1611 906 l 1667 906 l 1667 850 m 821 343 q 847 351 835 343 l 847 599 l 835 599 q 769 467 769 599 q 821 343 769 343 z "},"e":{"ha":1667,"x_min":14,"x_max":1653,"o":"m 1625 403 l 829 403 q 869 358 838 368 q 979 347 900 347 l 1611 347 l 1611 28 q 1274 -6 1475 8 q 874 -21 1074 -21 q 383 21 569 -21 q 105 158 196 63 q 14 413 14 253 q 105 674 14 575 q 376 817 196 772 q 835 861 556 861 q 1461 762 1269 861 q 1653 472 1653 663 l 1625 403 m 865 582 q 833 554 842 582 q 822 485 824 526 l 903 485 q 892 560 900 538 q 865 582 885 582 z "},"é":{"ha":1667,"x_min":14,"x_max":1653,"o":"m 1625 403 l 829 403 q 869 358 838 368 q 979 347 900 347 l 1611 347 l 1611 28 q 1274 -6 1475 8 q 874 -21 1074 -21 q 383 21 569 -21 q 105 158 196 63 q 14 413 14 253 q 105 674 14 575 q 376 817 196 772 q 835 861 556 861 q 1461 762 1269 861 q 1653 472 1653 663 l 1625 403 m 865 582 q 833 554 842 582 q 822 485 824 526 l 903 485 q 892 560 900 538 q 865 582 885 582 z "},"ě":{"ha":1667,"x_min":14,"x_max":1653,"o":"m 1625 403 l 829 403 q 869 358 838 368 q 979 347 900 347 l 1611 347 l 1611 28 q 1274 -6 1475 8 q 874 -21 1074 -21 q 383 21 569 -21 q 105 158 196 63 q 14 413 14 253 q 105 674 14 575 q 376 817 196 772 q 835 861 556 861 q 1461 762 1269 861 q 1653 472 1653 663 l 1625 403 m 865 582 q 833 554 842 582 q 822 485 824 526 l 903 485 q 892 560 900 538 q 865 582 885 582 m 375 938 l 375 993 l 833 972 l 1292 993 l 1292 938 l 833 896 l 375 938 z "},"ê":{"ha":1667,"x_min":14,"x_max":1653,"o":"m 1625 403 l 829 403 q 869 358 838 368 q 979 347 900 347 l 1611 347 l 1611 28 q 1274 -6 1475 8 q 874 -21 1074 -21 q 383 21 569 -21 q 105 158 196 63 q 14 413 14 253 q 105 674 14 575 q 376 817 196 772 q 835 861 556 861 q 1461 762 1269 861 q 1653 472 1653 663 l 1625 403 m 865 582 q 833 554 842 582 q 822 485 824 526 l 903 485 q 892 560 900 538 q 865 582 885 582 m 375 951 l 833 993 l 1292 951 l 1292 896 l 833 917 l 375 896 l 375 951 z "},"ë":{"ha":1667,"x_min":14,"x_max":1653,"o":"m 421 903 q 383 915 397 903 q 369 949 369 928 q 383 981 369 968 q 421 993 397 993 q 459 981 444 993 q 474 949 474 968 q 459 916 474 929 q 421 903 444 903 m 1247 903 q 1210 915 1224 903 q 1196 949 1196 928 q 1210 981 1196 968 q 1247 993 1224 993 q 1285 981 1271 993 q 1300 949 1300 968 q 1285 916 1300 929 q 1247 903 1271 903 m 1625 403 l 829 403 q 869 358 838 368 q 979 347 900 347 l 1611 347 l 1611 28 q 1274 -6 1475 8 q 874 -21 1074 -21 q 383 21 569 -21 q 105 158 196 63 q 14 413 14 253 q 105 674 14 575 q 376 817 196 772 q 835 861 556 861 q 1461 762 1269 861 q 1653 472 1653 663 l 1625 403 m 865 582 q 833 554 842 582 q 822 485 824 526 l 903 485 q 892 560 900 538 q 865 582 885 582 z "},"ė":{"ha":1667,"x_min":14,"x_max":1653,"o":"m 1625 403 l 829 403 q 869 358 838 368 q 979 347 900 347 l 1611 347 l 1611 28 q 1274 -6 1475 8 q 874 -21 1074 -21 q 383 21 569 -21 q 105 158 196 63 q 14 413 14 253 q 105 674 14 575 q 376 817 196 772 q 835 861 556 861 q 1461 762 1269 861 q 1653 472 1653 663 l 1625 403 m 865 582 q 833 554 842 582 q 822 485 824 526 l 903 485 q 892 560 900 538 q 865 582 885 582 m 832 903 q 759 914 779 903 q 739 949 739 925 q 759 983 739 972 q 832 993 779 993 q 906 983 885 993 q 926 949 926 972 q 906 914 926 925 q 832 903 885 903 z "},"è":{"ha":1667,"x_min":14,"x_max":1653,"o":"m 374 910 l 374 993 l 1297 951 l 1297 896 l 374 910 m 1625 403 l 829 403 q 869 358 838 368 q 979 347 900 347 l 1611 347 l 1611 28 q 1274 -6 1475 8 q 874 -21 1074 -21 q 383 21 569 -21 q 105 158 196 63 q 14 413 14 253 q 105 674 14 575 q 376 817 196 772 q 835 861 556 861 q 1461 762 1269 861 q 1653 472 1653 663 l 1625 403 m 865 582 q 833 554 842 582 q 822 485 824 526 l 903 485 q 892 560 900 538 q 865 582 885 582 z "},"ē":{"ha":1667,"x_min":14,"x_max":1653,"o":"m 1625 403 l 829 403 q 869 358 838 368 q 979 347 900 347 l 1611 347 l 1611 28 q 1274 -6 1475 8 q 874 -21 1074 -21 q 383 21 569 -21 q 105 158 196 63 q 14 413 14 253 q 105 674 14 575 q 376 817 196 772 q 835 861 556 861 q 1461 762 1269 861 q 1653 472 1653 663 l 1625 403 m 865 582 q 833 554 842 582 q 822 485 824 526 l 903 485 q 892 560 900 538 q 865 582 885 582 m 372 972 l 1296 972 l 1296 896 l 372 896 l 372 972 z "},"ę":{"ha":1667,"x_min":14,"x_max":1653,"o":"m 1453 81 q 1549 39 1453 39 q 1628 44 1588 39 l 1619 -4 q 1526 -21 1578 -21 q 1401 5 1444 -21 q 1358 72 1358 31 q 1363 97 1358 88 q 1135 13 1267 46 q 804 -21 1003 -21 q 362 21 535 -21 q 101 158 189 63 q 14 413 14 253 q 105 674 14 575 q 376 817 196 772 q 835 861 556 861 q 1461 762 1269 861 q 1653 472 1653 663 l 1625 403 l 829 403 q 869 358 838 368 q 979 347 900 347 l 1611 347 l 1611 135 q 1489 117 1525 129 q 1453 81 1453 106 m 865 582 q 833 554 842 582 q 822 485 824 526 l 903 485 q 892 560 900 538 q 865 582 885 582 z "},"f":{"ha":1667,"x_min":14,"x_max":1639,"o":"m 1258 583 q 1172 571 1196 583 q 1146 528 1149 558 l 1556 528 l 1556 139 l 1144 139 l 1144 0 l 311 0 l 311 139 l 14 139 l 14 528 l 313 528 q 399 806 321 704 q 626 951 476 908 q 1015 993 776 993 q 1344 979 1168 993 q 1639 944 1519 965 l 1639 583 l 1258 583 z "},"g":{"ha":1667,"x_min":14,"x_max":1653,"o":"m 314 372 q 346 352 314 358 q 471 343 378 346 q 765 340 564 340 q 1625 382 1250 340 l 1625 22 q 765 -21 1156 -21 q 329 -2 488 -21 q 92 69 171 17 q 14 224 14 121 q 71 349 14 294 q 253 421 128 403 q 70 481 126 440 q 14 593 14 521 q 835 861 14 861 q 1367 817 1163 861 l 1367 849 q 1398 959 1367 926 q 1490 992 1429 992 q 1606 890 1606 992 q 1449 782 1606 782 l 1438 782 l 1438 767 q 1602 722 1551 757 q 1653 621 1653 686 q 1558 475 1653 524 q 1293 411 1464 426 q 835 396 1122 396 l 751 396 l 754 396 q 472 394 579 396 q 340 389 365 393 q 314 372 314 385 m 835 653 q 808 640 819 653 q 797 594 797 626 q 808 549 797 563 q 835 536 819 536 q 861 550 850 536 q 872 594 872 564 q 861 639 872 625 q 835 653 850 653 z "},"ğ":{"ha":1667,"x_min":14,"x_max":1653,"o":"m 314 372 q 346 352 314 358 q 471 343 378 346 q 765 340 564 340 q 1625 382 1250 340 l 1625 22 q 765 -21 1156 -21 q 329 -2 488 -21 q 92 69 171 17 q 14 224 14 121 q 71 349 14 294 q 253 421 128 403 q 70 481 126 440 q 14 593 14 521 q 835 861 14 861 q 1367 817 1163 861 l 1367 849 q 1398 959 1367 926 q 1490 992 1429 992 q 1606 890 1606 992 q 1449 782 1606 782 l 1438 782 l 1438 767 q 1602 722 1551 757 q 1653 621 1653 686 q 1558 475 1653 524 q 1293 411 1464 426 q 835 396 1122 396 l 751 396 l 754 396 q 472 394 579 396 q 340 389 365 393 q 314 372 314 385 m 835 653 q 808 640 819 653 q 797 594 797 626 q 808 549 797 563 q 835 536 819 536 q 861 550 850 536 q 872 594 872 564 q 861 639 872 625 q 835 653 850 653 m 836 903 q 526 910 621 903 q 400 935 432 917 q 358 993 368 953 l 414 993 q 445 978 421 982 q 569 974 469 975 q 836 972 669 972 q 1103 974 1003 972 q 1227 978 1203 975 q 1258 993 1251 982 l 1314 993 q 1272 935 1304 953 q 1146 910 1240 917 q 836 903 1051 903 z "},"ģ":{"ha":1667,"x_min":14,"x_max":1653,"o":"m 1081 938 q 946 935 981 938 q 903 924 911 933 q 894 889 894 915 l 790 889 q 803 965 790 946 q 869 988 817 983 q 1081 993 922 993 l 1081 938 m 314 369 q 349 351 314 357 q 478 342 383 344 q 765 340 572 340 q 1281 356 1058 340 q 1625 396 1503 372 l 1625 28 q 1225 -7 1453 7 q 765 -21 997 -21 q 329 -2 488 -21 q 92 69 171 17 q 14 224 14 121 q 71 349 14 294 q 253 421 128 403 q 70 481 126 440 q 14 593 14 521 q 208 783 14 719 q 835 847 401 847 q 1367 814 1175 847 l 1367 849 q 1398 959 1367 926 q 1490 992 1429 992 q 1606 890 1606 992 q 1449 782 1606 782 l 1438 782 l 1438 767 q 1602 722 1551 757 q 1653 621 1653 686 q 1558 475 1653 524 q 1293 411 1464 426 q 835 396 1122 396 l 751 396 l 754 396 q 446 394 529 396 q 338 388 363 393 q 314 369 314 383 m 835 653 q 808 640 819 653 q 797 594 797 626 q 808 549 797 563 q 835 536 819 536 q 861 550 850 536 q 872 594 872 564 q 861 639 872 625 q 835 653 850 653 z "},"ġ":{"ha":1667,"x_min":14,"x_max":1653,"o":"m 314 372 q 346 352 314 358 q 471 343 378 346 q 765 340 564 340 q 1625 382 1250 340 l 1625 22 q 765 -21 1156 -21 q 329 -2 488 -21 q 92 69 171 17 q 14 224 14 121 q 71 349 14 294 q 253 421 128 403 q 70 481 126 440 q 14 593 14 521 q 835 861 14 861 q 1367 817 1163 861 l 1367 849 q 1398 959 1367 926 q 1490 992 1429 992 q 1606 890 1606 992 q 1449 782 1606 782 l 1438 782 l 1438 767 q 1602 722 1551 757 q 1653 621 1653 686 q 1558 475 1653 524 q 1293 411 1464 426 q 835 396 1122 396 l 751 396 l 754 396 q 472 394 579 396 q 340 389 365 393 q 314 372 314 385 m 835 653 q 808 640 819 653 q 797 594 797 626 q 808 549 797 563 q 835 536 819 536 q 861 550 850 536 q 872 594 872 564 q 861 639 872 625 q 835 653 850 653 m 832 903 q 759 914 779 903 q 739 949 739 925 q 759 983 739 972 q 832 993 779 993 q 906 983 885 993 q 926 949 926 972 q 906 914 926 925 q 832 903 885 903 z "},"h":{"ha":1667,"x_min":28,"x_max":1639,"o":"m 1268 861 q 1471 840 1392 861 q 1594 758 1550 818 q 1639 583 1639 697 l 1639 0 l 861 0 l 861 465 q 838 504 861 504 q 806 496 818 504 l 806 0 l 28 0 l 28 972 l 806 972 l 806 639 l 819 639 q 1268 861 976 861 z "},"ħ":{"ha":1667,"x_min":0,"x_max":1639,"o":"m 1268 806 q 1471 784 1392 806 q 1594 702 1550 763 q 1639 528 1639 642 l 1639 0 l 875 0 l 875 465 q 851 504 875 504 q 819 496 832 504 l 819 0 l 69 0 l 69 850 l 0 850 l 0 906 l 69 906 l 69 972 l 819 972 l 819 906 l 1069 906 l 1069 850 l 819 850 l 819 639 l 833 639 q 1026 761 921 717 q 1268 806 1132 806 z "},"i":{"ha":1667,"x_min":28,"x_max":1639,"o":"m 1278 889 l 472 889 l 472 972 l 1278 972 l 1278 889 m 1639 389 l 1639 0 l 28 0 l 28 389 l 472 389 l 472 444 l 28 444 l 28 833 l 1278 833 l 1278 389 l 1639 389 z "},"ı":{"ha":1667,"x_min":28,"x_max":1639,"o":"m 1639 389 l 1639 0 l 28 0 l 28 389 l 472 389 l 472 444 l 28 444 l 28 833 l 1278 833 l 1278 389 l 1639 389 z "},"í":{"ha":1667,"x_min":28,"x_max":1639,"o":"m 1639 389 l 1639 0 l 28 0 l 28 389 l 472 389 l 472 444 l 28 444 l 28 833 l 1278 833 l 1278 389 l 1639 389 z "},"î":{"ha":1667,"x_min":28,"x_max":1639,"o":"m 1639 389 l 1639 0 l 28 0 l 28 389 l 472 389 l 472 444 l 28 444 l 28 833 l 1278 833 l 1278 389 l 1639 389 m 431 951 l 889 993 l 1347 951 l 1347 896 l 889 917 l 431 896 l 431 951 z "},"ï":{"ha":1667,"x_min":28,"x_max":1639,"o":"m 475 903 q 435 916 451 903 q 419 949 419 929 q 435 981 419 968 q 475 993 451 993 q 515 980 499 993 q 532 949 532 967 q 515 916 532 929 q 475 903 499 903 m 1301 903 q 1262 916 1278 903 q 1246 949 1246 929 q 1262 981 1246 968 q 1301 993 1278 993 q 1342 980 1325 993 q 1358 949 1358 967 q 1342 916 1358 929 q 1301 903 1325 903 m 1639 389 l 1639 0 l 28 0 l 28 389 l 472 389 l 472 444 l 28 444 l 28 833 l 1278 833 l 1278 389 l 1639 389 z "},"ì":{"ha":1667,"x_min":28,"x_max":1639,"o":"m 1350 896 l 426 910 l 426 993 l 1350 951 l 1350 896 m 1639 389 l 1639 0 l 28 0 l 28 389 l 472 389 l 472 444 l 28 444 l 28 833 l 1278 833 l 1278 389 l 1639 389 z "},"ī":{"ha":1667,"x_min":28,"x_max":1639,"o":"m 1639 389 l 1639 0 l 28 0 l 28 389 l 472 389 l 472 444 l 28 444 l 28 833 l 1278 833 l 1278 389 l 1639 389 m 428 972 l 1351 972 l 1351 896 l 428 896 l 428 972 z "},"į":{"ha":1667,"x_min":28,"x_max":1656,"o":"m 1306 889 l 472 889 l 472 972 l 1306 972 l 1306 889 m 1576 39 q 1656 44 1615 39 l 1647 -4 q 1554 -21 1606 -21 q 1429 5 1472 -21 q 1386 72 1386 31 q 1425 135 1386 114 l 28 135 l 28 456 l 472 456 l 472 511 l 28 511 l 28 833 l 1306 833 l 1306 456 l 1639 456 l 1639 135 q 1517 117 1553 129 q 1481 81 1481 106 q 1576 39 1481 39 z "},"j":{"ha":1667,"x_min":28,"x_max":1639,"o":"m 1639 972 l 1639 889 l 806 889 l 806 972 l 1639 972 m 1639 833 l 1639 518 q 1408 94 1639 208 q 844 -21 1176 -21 q 428 -9 647 -21 q 28 21 210 3 l 28 389 l 368 389 q 656 392 571 389 q 771 407 740 396 q 804 444 801 418 l 28 444 l 28 833 l 1639 833 z "},"k":{"ha":1667,"x_min":28,"x_max":1653,"o":"m 1531 401 l 1653 0 l 910 0 l 854 375 l 833 375 l 833 0 l 28 0 l 28 972 l 833 972 l 833 458 l 853 458 l 910 833 l 1653 833 l 1531 401 z "},"ķ":{"ha":1667,"x_min":28,"x_max":1653,"o":"m 1532 471 l 1653 139 l 910 139 l 856 444 l 833 444 l 833 139 l 28 139 l 28 972 l 833 972 l 833 528 l 853 528 l 910 833 l 1653 833 l 1532 471 m 624 35 q 758 37 724 35 q 801 48 793 39 q 810 83 810 57 l 914 83 q 901 8 914 26 q 835 -16 888 -11 q 624 -21 782 -21 l 624 35 z "},"l":{"ha":1667,"x_min":28,"x_max":1639,"o":"m 1639 389 l 1639 0 l 28 0 l 28 389 l 472 389 l 472 583 l 28 583 l 28 972 l 1306 972 l 1306 389 l 1639 389 z "},"ĺ":{"ha":1667,"x_min":28,"x_max":1639,"o":"m 1396 910 l 472 896 l 472 951 l 1396 993 l 1396 910 m 1639 389 l 1639 0 l 28 0 l 28 389 l 472 389 l 472 583 l 28 583 l 28 972 l 417 972 l 417 847 l 1278 847 l 1278 389 l 1639 389 z "},"ľ":{"ha":1667,"x_min":28,"x_max":1639,"o":"m 1639 389 l 1639 0 l 28 0 l 28 389 l 472 389 l 472 583 l 28 583 l 28 972 l 1306 972 l 1306 389 l 1639 389 m 1474 540 l 1460 756 l 1460 972 l 1543 972 l 1543 756 l 1529 540 l 1474 540 z "},"ļ":{"ha":1667,"x_min":28,"x_max":1639,"o":"m 1639 514 l 1639 139 l 28 139 l 28 514 l 472 514 l 472 597 l 28 597 l 28 972 l 1306 972 l 1306 514 l 1639 514 m 647 35 q 782 37 747 35 q 825 48 817 39 q 833 83 833 57 l 938 83 q 924 8 938 26 q 858 -16 911 -11 q 647 -21 806 -21 l 647 35 z "},"ŀ":{"ha":1667,"x_min":28,"x_max":1643,"o":"m 1306 389 l 1639 389 l 1639 0 l 28 0 l 28 389 l 472 389 l 472 583 l 28 583 l 28 972 l 1306 972 l 1306 389 m 1500 621 q 1397 666 1436 621 q 1357 778 1357 711 q 1397 890 1357 844 q 1500 935 1436 935 q 1603 890 1564 935 q 1643 778 1643 844 q 1603 666 1643 711 q 1500 621 1564 621 z "},"ł":{"ha":1667,"x_min":28,"x_max":1639,"o":"m 1639 389 l 1639 0 l 28 0 l 28 389 l 472 389 l 472 583 l 28 583 l 28 972 l 1306 972 l 1306 614 l 1621 696 l 1638 638 l 1306 556 l 1306 389 l 1639 389 z "},"m":{"ha":1667,"x_min":28,"x_max":1639,"o":"m 1421 861 q 1585 797 1531 861 q 1639 583 1639 733 l 1639 0 l 1139 0 l 1139 465 q 1115 504 1139 504 q 1083 496 1096 504 l 1083 0 l 583 0 l 583 465 q 560 504 583 504 q 528 496 540 504 l 528 0 l 28 0 l 28 833 l 514 833 l 528 639 l 542 639 q 683 807 611 753 q 847 861 756 861 q 1008 809 949 861 q 1081 639 1068 757 l 1097 639 q 1421 861 1233 861 z "},"n":{"ha":1667,"x_min":28,"x_max":1639,"o":"m 1268 861 q 1471 840 1392 861 q 1594 758 1550 818 q 1639 583 1639 697 l 1639 0 l 861 0 l 861 465 q 838 504 861 504 q 806 496 818 504 l 806 0 l 28 0 l 28 833 l 792 833 l 806 639 l 819 639 q 1268 861 976 861 z "},"ń":{"ha":1667,"x_min":28,"x_max":1639,"o":"m 1268 861 q 1471 840 1392 861 q 1594 758 1550 818 q 1639 583 1639 697 l 1639 0 l 861 0 l 861 465 q 838 504 861 504 q 806 496 818 504 l 806 0 l 28 0 l 28 833 l 792 833 l 806 639 l 819 639 q 1268 861 976 861 z "},"ň":{"ha":1667,"x_min":28,"x_max":1639,"o":"m 1268 861 q 1471 840 1392 861 q 1594 758 1550 818 q 1639 583 1639 697 l 1639 0 l 861 0 l 861 465 q 838 504 861 504 q 806 496 818 504 l 806 0 l 28 0 l 28 833 l 792 833 l 806 639 l 819 639 q 1268 861 976 861 m 375 938 l 375 993 l 833 972 l 1292 993 l 1292 938 l 833 896 l 375 938 z "},"ņ":{"ha":1667,"x_min":28,"x_max":1639,"o":"m 1268 861 q 1544 801 1450 861 q 1639 583 1639 740 l 1639 139 l 861 139 l 861 465 q 838 504 861 504 q 806 496 818 504 l 806 139 l 28 139 l 28 833 l 792 833 l 806 639 l 819 639 q 1268 861 976 861 m 592 35 q 726 37 692 35 q 769 48 761 39 q 778 83 778 57 l 882 83 q 869 8 882 26 q 803 -16 856 -11 q 592 -21 750 -21 l 592 35 z "},"ŋ":{"ha":1667,"x_min":28,"x_max":1639,"o":"m 1268 861 q 1471 840 1392 861 q 1594 758 1550 818 q 1639 583 1639 697 l 1639 181 q 1619 63 1639 104 q 1558 3 1600 21 q 1446 -14 1517 -14 l 861 -14 l 861 83 q 887 94 879 83 q 893 139 894 106 l 872 465 q 863 496 871 488 q 838 504 854 504 q 806 496 818 504 l 806 0 l 28 0 l 28 833 l 792 833 l 806 639 l 819 639 q 1268 861 976 861 z "},"ñ":{"ha":1667,"x_min":28,"x_max":1639,"o":"m 1268 861 q 1471 840 1392 861 q 1594 758 1550 818 q 1639 583 1639 697 l 1639 0 l 861 0 l 861 465 q 838 504 861 504 q 806 496 818 504 l 806 0 l 28 0 l 28 833 l 792 833 l 806 639 l 819 639 q 1268 861 976 861 m 399 953 q 664 993 538 993 q 821 982 724 993 q 997 969 915 969 q 1148 977 1081 969 q 1249 993 1215 985 l 1263 940 q 997 900 1124 900 q 898 904 944 900 q 813 913 851 908 q 664 924 721 924 q 517 916 583 924 q 413 900 450 908 l 399 953 z "},"o":{"ha":1667,"x_min":14,"x_max":1653,"o":"m 833 -21 q 358 28 539 -21 q 96 174 178 76 q 14 419 14 271 q 97 667 14 569 q 361 813 181 764 q 833 861 542 861 q 1307 813 1126 861 q 1570 667 1488 764 q 1653 419 1653 569 q 1571 174 1653 271 q 1308 28 1489 76 q 833 -21 1128 -21 m 835 314 q 860 337 850 314 q 869 428 869 360 q 860 519 869 496 q 835 542 850 542 q 809 519 818 542 q 800 428 800 497 q 809 336 800 358 q 835 314 818 314 z "},"ó":{"ha":1667,"x_min":14,"x_max":1653,"o":"m 833 -21 q 358 28 539 -21 q 96 174 178 76 q 14 419 14 271 q 97 667 14 569 q 361 813 181 764 q 833 861 542 861 q 1307 813 1126 861 q 1570 667 1488 764 q 1653 419 1653 569 q 1571 174 1653 271 q 1308 28 1489 76 q 833 -21 1128 -21 m 835 314 q 860 337 850 314 q 869 428 869 360 q 860 519 869 496 q 835 542 850 542 q 809 519 818 542 q 800 428 800 497 q 809 336 800 358 q 835 314 818 314 z "},"ô":{"ha":1667,"x_min":14,"x_max":1653,"o":"m 833 -21 q 358 28 539 -21 q 96 174 178 76 q 14 419 14 271 q 97 667 14 569 q 361 813 181 764 q 833 861 542 861 q 1307 813 1126 861 q 1570 667 1488 764 q 1653 419 1653 569 q 1571 174 1653 271 q 1308 28 1489 76 q 833 -21 1128 -21 m 835 314 q 860 337 850 314 q 869 428 869 360 q 860 519 869 496 q 835 542 850 542 q 809 519 818 542 q 800 428 800 497 q 809 336 800 358 q 835 314 818 314 m 375 951 l 833 993 l 1292 951 l 1292 896 l 833 917 l 375 896 l 375 951 z "},"ö":{"ha":1667,"x_min":14,"x_max":1653,"o":"m 419 903 q 380 916 396 903 q 364 949 364 929 q 380 981 364 968 q 419 993 396 993 q 460 980 443 993 q 476 949 476 967 q 460 916 476 929 q 419 903 443 903 m 1246 903 q 1206 916 1222 903 q 1190 949 1190 929 q 1206 981 1190 968 q 1246 993 1222 993 q 1286 980 1269 993 q 1303 949 1303 967 q 1286 916 1303 929 q 1246 903 1269 903 m 833 -21 q 358 28 539 -21 q 96 174 178 76 q 14 419 14 271 q 97 667 14 569 q 361 813 181 764 q 833 861 542 861 q 1307 813 1126 861 q 1570 667 1488 764 q 1653 419 1653 569 q 1571 174 1653 271 q 1308 28 1489 76 q 833 -21 1128 -21 m 835 314 q 860 337 850 314 q 869 428 869 360 q 860 519 869 496 q 835 542 850 542 q 809 519 818 542 q 800 428 800 497 q 809 336 800 358 q 835 314 818 314 z "},"ò":{"ha":1667,"x_min":14,"x_max":1653,"o":"m 371 910 l 371 993 l 1294 951 l 1294 896 l 371 910 m 833 -21 q 358 28 539 -21 q 96 174 178 76 q 14 419 14 271 q 97 667 14 569 q 361 813 181 764 q 833 861 542 861 q 1307 813 1126 861 q 1570 667 1488 764 q 1653 419 1653 569 q 1571 174 1653 271 q 1308 28 1489 76 q 833 -21 1128 -21 m 835 314 q 860 337 850 314 q 869 428 869 360 q 860 519 869 496 q 835 542 850 542 q 809 519 818 542 q 800 428 800 497 q 809 336 800 358 q 835 314 818 314 z "},"ő":{"ha":1667,"x_min":14,"x_max":1653,"o":"m 833 -21 q 358 28 539 -21 q 96 174 178 76 q 14 419 14 271 q 97 667 14 569 q 361 813 181 764 q 833 861 542 861 q 1307 813 1126 861 q 1570 667 1488 764 q 1653 419 1653 569 q 1571 174 1653 271 q 1308 28 1489 76 q 833 -21 1128 -21 m 835 314 q 860 337 850 314 q 869 428 869 360 q 860 519 869 496 q 835 542 850 542 q 809 519 818 542 q 800 428 800 497 q 809 336 800 358 q 835 314 818 314 m 246 951 l 806 993 l 806 910 l 246 896 l 246 951 m 861 951 l 1421 993 l 1421 910 l 861 896 l 861 951 z "},"ō":{"ha":1667,"x_min":14,"x_max":1653,"o":"m 833 -21 q 358 28 539 -21 q 96 174 178 76 q 14 419 14 271 q 97 667 14 569 q 361 813 181 764 q 833 861 542 861 q 1307 813 1126 861 q 1570 667 1488 764 q 1653 419 1653 569 q 1571 174 1653 271 q 1308 28 1489 76 q 833 -21 1128 -21 m 835 314 q 860 337 850 314 q 869 428 869 360 q 860 519 869 496 q 835 542 850 542 q 809 519 818 542 q 800 428 800 497 q 809 336 800 358 q 835 314 818 314 m 372 972 l 1296 972 l 1296 896 l 372 896 l 372 972 z "},"ø":{"ha":1667,"x_min":14,"x_max":1653,"o":"m 1415 831 q 1595 689 1538 778 q 1653 475 1653 600 q 1571 229 1653 326 q 1308 83 1489 132 q 833 35 1128 35 q 300 101 492 35 l 188 -21 l 132 35 l 235 128 q 67 267 121 181 q 14 475 14 354 q 97 722 14 625 q 361 868 181 819 q 833 917 542 917 q 1351 854 1161 917 l 1479 993 l 1535 938 l 1415 831 m 835 369 q 860 392 850 369 q 869 483 869 415 q 860 574 869 551 q 835 597 850 597 q 809 575 818 597 q 800 483 800 553 q 809 392 800 414 q 835 369 818 369 z "},"õ":{"ha":1667,"x_min":14,"x_max":1653,"o":"m 833 -21 q 358 28 539 -21 q 96 174 178 76 q 14 419 14 271 q 97 667 14 569 q 361 813 181 764 q 833 861 542 861 q 1307 813 1126 861 q 1570 667 1488 764 q 1653 419 1653 569 q 1571 174 1653 271 q 1308 28 1489 76 q 833 -21 1128 -21 m 835 314 q 860 337 850 314 q 869 428 869 360 q 860 519 869 496 q 835 542 850 542 q 809 519 818 542 q 800 428 800 497 q 809 336 800 358 q 835 314 818 314 m 399 953 q 664 993 538 993 q 821 982 724 993 q 997 969 915 969 q 1148 977 1081 969 q 1249 993 1215 985 l 1263 940 q 997 900 1124 900 q 898 904 944 900 q 813 913 851 908 q 664 924 721 924 q 517 916 583 924 q 413 900 450 908 l 399 953 z "},"œ":{"ha":1667,"x_min":14,"x_max":1653,"o":"m 1625 403 l 1050 403 q 1070 365 1056 376 q 1110 350 1085 353 q 1188 347 1135 347 l 1611 347 l 1611 28 q 1276 -6 1481 10 q 876 -21 1072 -21 q 379 22 567 -21 q 103 159 192 64 q 14 413 14 254 q 105 674 14 575 q 376 817 196 772 q 839 861 557 861 q 1317 815 1138 861 q 1574 684 1496 769 q 1653 472 1653 599 l 1625 403 m 1088 582 q 1055 554 1064 582 q 1044 485 1046 526 l 1125 485 q 1115 560 1122 538 q 1088 582 1107 582 m 576 314 q 603 336 593 314 q 614 424 614 358 q 575 542 614 542 q 539 424 539 542 q 549 335 539 357 q 576 314 558 314 z "},"p":{"ha":1667,"x_min":28,"x_max":1653,"o":"m 1653 518 q 1588 315 1653 388 q 1349 207 1522 242 q 843 172 1175 172 l 843 0 l 28 0 l 28 833 l 829 833 l 843 632 l 857 632 q 1051 801 936 742 q 1306 861 1167 861 q 1565 775 1476 861 q 1653 518 1653 689 m 856 269 q 907 383 907 269 q 900 470 907 443 q 869 497 893 497 q 843 489 856 497 l 843 269 l 856 269 z "},"þ":{"ha":1667,"x_min":28,"x_max":1653,"o":"m 1282 926 q 1653 489 1653 926 q 1555 151 1653 258 q 1282 44 1457 44 q 1046 103 1149 44 q 875 274 943 161 l 847 274 l 847 -1 l 28 -1 l 28 972 l 847 972 l 847 704 l 875 704 q 1282 926 1011 926 m 874 394 q 896 415 889 394 q 903 489 903 436 q 896 563 903 542 q 874 583 889 583 q 847 576 858 583 l 847 401 q 874 394 858 394 z "},"q":{"ha":1667,"x_min":14,"x_max":1639,"o":"m 1639 833 l 1639 0 l 824 0 l 824 407 l 810 407 q 617 237 731 296 q 365 178 504 178 q 104 264 194 178 q 14 521 14 350 q 79 715 14 650 q 315 807 144 781 q 824 833 485 833 l 1639 833 m 797 528 q 824 536 811 528 l 824 756 l 811 756 q 746 642 746 756 q 759 558 746 589 q 797 528 772 528 z "},"r":{"ha":1667,"x_min":28,"x_max":1639,"o":"m 1333 861 q 1521 844 1439 861 q 1639 806 1603 826 l 1639 371 q 1449 386 1565 379 q 1222 393 1332 393 q 999 384 1099 393 q 861 365 899 375 l 861 0 l 28 0 l 28 833 l 847 833 l 861 597 l 875 597 q 1007 756 942 699 q 1149 837 1072 813 q 1333 861 1226 861 z "},"ŕ":{"ha":1667,"x_min":28,"x_max":1639,"o":"m 1333 861 q 1521 844 1439 861 q 1639 806 1603 826 l 1639 371 q 1449 386 1565 379 q 1222 393 1332 393 q 999 384 1099 393 q 861 365 899 375 l 861 0 l 28 0 l 28 833 l 847 833 l 861 597 l 875 597 q 1007 756 942 699 q 1149 837 1072 813 q 1333 861 1226 861 z "},"ř":{"ha":1667,"x_min":28,"x_max":1639,"o":"m 1333 861 q 1521 844 1439 861 q 1639 806 1603 826 l 1639 371 q 1449 386 1565 379 q 1222 393 1332 393 q 999 384 1099 393 q 861 365 899 375 l 861 0 l 28 0 l 28 833 l 847 833 l 861 597 l 875 597 q 1007 756 942 699 q 1149 837 1072 813 q 1333 861 1226 861 m 375 938 l 375 993 l 833 972 l 1292 993 l 1292 938 l 833 896 l 375 938 z "},"ŗ":{"ha":1667,"x_min":28,"x_max":1639,"o":"m 1333 861 q 1521 844 1439 861 q 1639 806 1603 826 l 1639 371 q 1449 386 1565 379 q 1222 393 1332 393 q 999 384 1099 393 q 861 365 899 375 l 861 139 l 28 139 l 28 833 l 847 833 l 861 597 l 875 597 q 1007 756 942 699 q 1149 837 1072 813 q 1333 861 1226 861 m 207 35 q 342 37 307 35 q 385 48 376 39 q 393 83 393 57 l 497 83 q 484 8 497 26 q 418 -16 471 -11 q 207 -21 365 -21 l 207 35 z "},"s":{"ha":1667,"x_min":14,"x_max":1653,"o":"m 824 -21 q 426 -3 638 -21 q 28 42 215 14 l 28 400 q 256 333 107 360 q 551 306 404 306 q 735 319 639 306 q 892 351 832 332 l 883 388 q 718 363 811 372 q 551 354 625 354 q 153 415 292 354 q 14 601 14 476 q 98 757 14 701 q 375 837 182 813 q 913 861 568 861 q 1639 800 1261 861 l 1639 456 q 1410 515 1558 492 q 1115 538 1263 538 q 924 524 1024 538 q 761 490 824 511 l 769 454 q 941 479 843 469 q 1115 489 1039 489 q 1516 426 1379 489 q 1653 239 1653 363 q 1578 81 1653 136 q 1328 2 1504 25 q 824 -21 1151 -21 z "},"ś":{"ha":1667,"x_min":14,"x_max":1653,"o":"m 824 -21 q 426 -3 638 -21 q 28 42 215 14 l 28 400 q 256 333 107 360 q 551 306 404 306 q 735 319 639 306 q 892 351 832 332 l 883 388 q 718 363 811 372 q 551 354 625 354 q 153 415 292 354 q 14 601 14 476 q 98 757 14 701 q 375 837 182 813 q 913 861 568 861 q 1639 800 1261 861 l 1639 456 q 1410 515 1558 492 q 1115 538 1263 538 q 924 524 1024 538 q 761 490 824 511 l 769 454 q 941 479 843 469 q 1115 489 1039 489 q 1516 426 1379 489 q 1653 239 1653 363 q 1578 81 1653 136 q 1328 2 1504 25 q 824 -21 1151 -21 z "},"š":{"ha":1667,"x_min":14,"x_max":1653,"o":"m 824 -21 q 426 -3 638 -21 q 28 42 215 14 l 28 400 q 256 333 107 360 q 551 306 404 306 q 735 319 639 306 q 892 351 832 332 l 883 388 q 718 363 811 372 q 551 354 625 354 q 153 415 292 354 q 14 601 14 476 q 98 757 14 701 q 375 837 182 813 q 913 861 568 861 q 1639 800 1261 861 l 1639 456 q 1410 515 1558 492 q 1115 538 1263 538 q 924 524 1024 538 q 761 490 824 511 l 769 454 q 941 479 843 469 q 1115 489 1039 489 q 1516 426 1379 489 q 1653 239 1653 363 q 1578 81 1653 136 q 1328 2 1504 25 q 824 -21 1151 -21 m 375 938 l 375 993 l 833 972 l 1292 993 l 1292 938 l 833 896 l 375 938 z "},"ş":{"ha":1667,"x_min":14,"x_max":1653,"o":"m 1653 343 q 1576 210 1653 260 q 1326 136 1499 160 q 863 111 1154 113 l 875 21 l 875 -21 l 792 -21 l 792 21 l 804 111 q 390 142 604 114 q 28 208 175 171 l 28 463 q 256 394 121 418 q 556 369 392 369 q 728 379 649 369 q 892 414 808 389 l 883 450 q 717 426 810 435 q 536 417 624 417 q 147 476 281 417 q 14 635 14 535 q 190 805 14 749 q 765 861 367 861 q 1275 836 1015 861 q 1639 786 1535 811 l 1639 518 q 1415 576 1565 551 q 1126 600 1265 600 q 924 587 1025 600 q 761 553 824 574 l 769 517 q 954 542 846 532 q 1161 553 1063 553 q 1533 497 1413 553 q 1653 343 1653 442 z "},"ș":{"ha":1667,"x_min":14,"x_max":1653,"o":"m 769 517 q 954 542 846 532 q 1161 553 1063 553 q 1533 497 1413 553 q 1653 343 1653 442 q 1574 208 1653 258 q 1317 135 1494 158 q 836 111 1139 111 q 408 140 632 111 q 28 208 185 169 l 28 463 q 256 394 121 418 q 556 369 392 369 q 728 379 649 369 q 892 414 808 389 l 883 450 q 717 426 810 435 q 536 417 624 417 q 147 476 281 417 q 14 635 14 535 q 190 805 14 749 q 765 861 367 861 q 1275 836 1015 861 q 1639 786 1535 811 l 1639 518 q 1415 576 1565 551 q 1126 600 1265 600 q 924 587 1025 600 q 761 553 824 574 l 769 517 m 603 35 q 738 37 703 35 q 781 48 772 39 q 789 83 789 57 l 893 83 q 880 8 893 26 q 814 -16 867 -11 q 603 -21 761 -21 l 603 35 z "},"ß":{"ha":1667,"x_min":28,"x_max":1653,"o":"m 28 489 q 108 787 28 679 q 362 940 189 894 q 832 986 535 986 q 1277 965 1110 986 q 1528 888 1444 943 q 1611 733 1611 833 q 1540 573 1611 622 q 1349 512 1469 524 q 986 500 1228 500 l 986 444 q 1378 435 1250 444 q 1580 385 1507 425 q 1653 253 1653 344 q 1581 97 1653 151 q 1341 22 1508 43 q 863 0 1174 0 l 863 697 q 847 750 863 739 q 807 761 832 761 l 807 0 l 28 0 l 28 489 z "},"t":{"ha":1667,"x_min":14,"x_max":1639,"o":"m 1639 444 l 1146 444 q 1170 402 1149 415 q 1247 389 1192 389 l 1639 389 l 1639 28 q 1368 -6 1542 10 q 1006 -21 1194 -21 q 585 13 728 -21 q 378 145 443 47 q 311 444 314 243 l 14 444 l 14 833 l 311 833 q 714 972 674 833 l 1144 972 l 1144 833 l 1639 833 l 1639 444 z "},"ŧ":{"ha":1667,"x_min":14,"x_max":1639,"o":"m 1144 500 l 1144 444 l 1639 444 l 1639 389 l 1147 389 q 1177 347 1153 360 q 1257 333 1201 333 l 1639 333 l 1639 28 q 1368 -6 1542 10 q 1006 -21 1194 -21 q 576 5 713 -21 q 378 115 439 31 q 311 389 317 200 l 14 389 l 14 444 l 311 444 l 311 500 l 14 500 l 14 833 l 311 833 q 714 972 674 833 l 1144 972 l 1144 833 l 1639 833 l 1639 500 l 1144 500 z "},"ť":{"ha":1667,"x_min":14,"x_max":1639,"o":"m 1144 833 l 1639 833 l 1639 444 l 1146 444 q 1170 402 1149 415 q 1247 389 1192 389 l 1639 389 l 1639 28 q 1368 -6 1542 10 q 1006 -21 1194 -21 q 585 13 728 -21 q 378 145 443 47 q 311 444 314 243 l 14 444 l 14 833 l 311 833 q 714 972 674 833 l 1144 972 l 1144 833 m 1639 972 l 1639 889 l 1556 889 l 1200 903 l 1200 958 l 1556 972 l 1639 972 z "},"ţ":{"ha":1667,"x_min":14,"x_max":1639,"o":"m 1639 500 l 1147 500 q 1175 458 1151 471 q 1254 444 1199 444 l 1639 444 l 1639 158 q 1365 125 1542 140 q 992 110 1189 110 l 960 110 l 972 21 l 972 -21 l 889 -21 l 889 21 l 901 111 q 557 147 676 115 q 381 260 438 179 q 314 500 325 342 l 14 500 l 14 833 l 311 833 q 714 972 674 833 l 1144 972 l 1144 833 l 1639 833 l 1639 500 z "},"ț":{"ha":1667,"x_min":14,"x_max":1639,"o":"m 1639 500 l 1147 500 q 1178 458 1154 471 q 1258 444 1203 444 l 1639 444 l 1639 158 q 1365 125 1542 140 q 992 110 1189 110 q 590 138 726 110 q 389 249 453 167 q 314 500 325 331 l 14 500 l 14 833 l 311 833 q 714 972 674 833 l 1144 972 l 1144 833 l 1639 833 l 1639 500 m 686 35 q 821 37 786 35 q 864 48 856 39 q 872 83 872 57 l 976 83 q 963 8 976 26 q 897 -16 950 -11 q 686 -21 844 -21 l 686 35 z "},"u":{"ha":1667,"x_min":28,"x_max":1639,"o":"m 1639 833 l 1639 0 l 875 0 l 861 194 l 847 194 q 399 -21 694 -21 q 123 51 218 -21 q 28 299 28 122 l 28 833 l 806 833 l 806 368 q 829 329 806 329 q 861 338 849 329 l 861 833 l 1639 833 z "},"ú":{"ha":1667,"x_min":28,"x_max":1639,"o":"m 1639 833 l 1639 0 l 875 0 l 861 194 l 847 194 q 399 -21 694 -21 q 123 51 218 -21 q 28 299 28 122 l 28 833 l 806 833 l 806 368 q 829 329 806 329 q 861 338 849 329 l 861 833 l 1639 833 z "},"û":{"ha":1667,"x_min":28,"x_max":1639,"o":"m 1639 833 l 1639 0 l 875 0 l 861 194 l 847 194 q 399 -21 694 -21 q 123 51 218 -21 q 28 299 28 122 l 28 833 l 806 833 l 806 368 q 829 329 806 329 q 861 338 849 329 l 861 833 l 1639 833 m 375 951 l 833 993 l 1292 951 l 1292 896 l 833 917 l 375 896 l 375 951 z "},"ü":{"ha":1667,"x_min":28,"x_max":1639,"o":"m 419 903 q 380 916 396 903 q 364 949 364 929 q 380 981 364 968 q 419 993 396 993 q 460 980 443 993 q 476 949 476 967 q 460 916 476 929 q 419 903 443 903 m 1246 903 q 1206 916 1222 903 q 1190 949 1190 929 q 1206 981 1190 968 q 1246 993 1222 993 q 1286 980 1269 993 q 1303 949 1303 967 q 1286 916 1303 929 q 1246 903 1269 903 m 1639 833 l 1639 0 l 875 0 l 861 194 l 847 194 q 399 -21 694 -21 q 123 51 218 -21 q 28 299 28 122 l 28 833 l 806 833 l 806 368 q 829 329 806 329 q 861 338 849 329 l 861 833 l 1639 833 z "},"ù":{"ha":1667,"x_min":28,"x_max":1639,"o":"m 1294 896 l 371 910 l 371 993 l 1294 951 l 1294 896 m 1639 833 l 1639 0 l 875 0 l 861 194 l 847 194 q 399 -21 694 -21 q 123 51 218 -21 q 28 299 28 122 l 28 833 l 806 833 l 806 368 q 829 329 806 329 q 861 338 849 329 l 861 833 l 1639 833 z "},"ű":{"ha":1667,"x_min":28,"x_max":1639,"o":"m 1639 833 l 1639 0 l 875 0 l 861 194 l 847 194 q 399 -21 694 -21 q 123 51 218 -21 q 28 299 28 122 l 28 833 l 806 833 l 806 368 q 829 329 806 329 q 861 338 849 329 l 861 833 l 1639 833 m 246 951 l 806 993 l 806 910 l 246 896 l 246 951 m 861 951 l 1421 993 l 1421 910 l 861 896 l 861 951 z "},"ū":{"ha":1667,"x_min":28,"x_max":1639,"o":"m 1639 833 l 1639 0 l 875 0 l 861 194 l 847 194 q 399 -21 694 -21 q 123 51 218 -21 q 28 299 28 122 l 28 833 l 806 833 l 806 368 q 829 329 806 329 q 861 338 849 329 l 861 833 l 1639 833 m 372 972 l 1296 972 l 1296 896 l 372 896 l 372 972 z "},"ų":{"ha":1667,"x_min":28,"x_max":1656,"o":"m 1576 43 q 1656 49 1615 43 l 1647 0 q 1554 -17 1606 -17 q 1429 9 1472 -17 q 1386 76 1386 35 q 1428 140 1386 118 l 1422 153 q 1355 135 1379 153 q 1331 83 1331 118 l 875 83 l 861 194 l 847 194 q 399 -21 694 -21 q 196 1 275 -21 q 72 83 117 22 q 28 257 28 143 l 28 833 l 806 833 l 806 368 q 829 329 806 329 q 861 338 849 329 l 861 833 l 1639 833 l 1639 139 q 1517 122 1553 133 q 1481 85 1481 110 q 1576 43 1481 43 z "},"ů":{"ha":1667,"x_min":28,"x_max":1639,"o":"m 836 836 q 744 854 774 836 q 715 915 715 872 q 747 972 715 951 q 836 993 779 993 q 925 974 894 993 q 956 915 956 954 q 927 854 956 872 q 836 836 899 836 m 836 889 q 900 915 900 889 q 885 935 900 929 q 836 940 869 940 q 786 935 801 940 q 771 915 771 929 q 836 889 771 889 m 399 -21 q 196 1 275 -21 q 72 83 117 22 q 28 257 28 143 l 28 833 l 682 833 q 806 782 719 789 l 806 368 q 829 329 806 329 q 861 338 849 329 l 861 782 q 983 833 949 789 l 1639 833 l 1639 0 l 875 0 l 861 194 l 847 194 q 399 -21 694 -21 z "},"v":{"ha":1667,"x_min":14,"x_max":1653,"o":"m 1653 833 l 1486 0 l 181 0 l 14 833 l 792 833 l 826 333 l 840 333 l 875 833 l 1653 833 z "},"w":{"ha":1667,"x_min":14,"x_max":1653,"o":"m 1653 833 l 1556 0 l 876 0 l 839 603 l 826 603 l 775 0 l 111 0 l 14 833 l 719 833 l 750 365 l 754 369 l 768 369 l 801 792 l 864 792 l 889 369 l 903 369 l 907 367 l 946 833 l 1653 833 z "},"ẃ":{"ha":1667,"x_min":14,"x_max":1653,"o":"m 1653 833 l 1556 0 l 876 0 l 839 603 l 826 603 l 775 0 l 111 0 l 14 833 l 719 833 l 750 365 l 754 369 l 768 369 l 801 792 l 864 792 l 889 369 l 903 369 l 907 367 l 946 833 l 1653 833 z "},"ŵ":{"ha":1667,"x_min":14,"x_max":1653,"o":"m 1653 833 l 1556 0 l 876 0 l 839 603 l 826 603 l 775 0 l 111 0 l 14 833 l 719 833 l 750 365 l 754 369 l 768 369 l 801 792 l 864 792 l 889 369 l 903 369 l 907 367 l 946 833 l 1653 833 m 375 951 l 833 993 l 1292 951 l 1292 896 l 833 917 l 375 896 l 375 951 z "},"ẅ":{"ha":1667,"x_min":14,"x_max":1653,"o":"m 419 903 q 380 916 396 903 q 364 949 364 929 q 380 981 364 968 q 419 993 396 993 q 460 980 443 993 q 476 949 476 967 q 460 916 476 929 q 419 903 443 903 m 1246 903 q 1206 916 1222 903 q 1190 949 1190 929 q 1206 981 1190 968 q 1246 993 1222 993 q 1286 980 1269 993 q 1303 949 1303 967 q 1286 916 1303 929 q 1246 903 1269 903 m 1653 833 l 1556 0 l 876 0 l 839 603 l 826 603 l 775 0 l 111 0 l 14 833 l 719 833 l 750 365 l 754 369 l 768 369 l 801 792 l 864 792 l 889 369 l 903 369 l 907 367 l 946 833 l 1653 833 z "},"ẁ":{"ha":1667,"x_min":14,"x_max":1653,"o":"m 1294 896 l 371 910 l 371 993 l 1294 951 l 1294 896 m 1653 833 l 1556 0 l 876 0 l 839 603 l 826 603 l 775 0 l 111 0 l 14 833 l 719 833 l 750 365 l 754 369 l 768 369 l 801 792 l 864 792 l 889 369 l 903 369 l 907 367 l 946 833 l 1653 833 z "},"x":{"ha":1667,"x_min":14,"x_max":1653,"o":"m 1653 0 l 878 0 l 843 335 l 824 335 l 789 0 l 14 0 l 128 401 l 42 833 l 789 833 l 825 463 l 842 463 l 878 833 l 1625 833 l 1539 401 l 1653 0 z "},"y":{"ha":1667,"x_min":28,"x_max":1639,"o":"m 1639 833 l 1639 417 q 1551 156 1639 251 q 1276 20 1463 61 q 779 -21 1090 -21 q 381 -10 592 -21 q 28 14 169 0 l 28 333 l 426 333 q 676 343 585 333 q 815 380 768 353 q 861 458 861 407 l 847 458 q 692 403 794 418 q 454 389 590 389 q 140 449 251 389 q 28 674 28 510 l 28 833 l 806 833 l 806 618 q 829 579 806 579 q 861 588 849 579 l 861 833 l 1639 833 z "},"ý":{"ha":1667,"x_min":28,"x_max":1639,"o":"m 1639 833 l 1639 417 q 1551 156 1639 251 q 1276 20 1463 61 q 779 -21 1090 -21 q 381 -10 592 -21 q 28 14 169 0 l 28 333 l 426 333 q 676 343 585 333 q 815 380 768 353 q 861 458 861 407 l 847 458 q 692 403 794 418 q 454 389 590 389 q 140 449 251 389 q 28 674 28 510 l 28 833 l 806 833 l 806 618 q 829 579 806 579 q 861 588 849 579 l 861 833 l 1639 833 z "},"ŷ":{"ha":1667,"x_min":28,"x_max":1639,"o":"m 1639 833 l 1639 417 q 1551 156 1639 251 q 1276 20 1463 61 q 779 -21 1090 -21 q 381 -10 592 -21 q 28 14 169 0 l 28 333 l 426 333 q 676 343 585 333 q 815 380 768 353 q 861 458 861 407 l 847 458 q 692 403 794 418 q 454 389 590 389 q 140 449 251 389 q 28 674 28 510 l 28 833 l 806 833 l 806 618 q 829 579 806 579 q 861 588 849 579 l 861 833 l 1639 833 m 375 951 l 833 993 l 1292 951 l 1292 896 l 833 917 l 375 896 l 375 951 z "},"ÿ":{"ha":1667,"x_min":28,"x_max":1639,"o":"m 419 903 q 380 916 396 903 q 364 949 364 929 q 380 981 364 968 q 419 993 396 993 q 460 980 443 993 q 476 949 476 967 q 460 916 476 929 q 419 903 443 903 m 1246 903 q 1206 916 1222 903 q 1190 949 1190 929 q 1206 981 1190 968 q 1246 993 1222 993 q 1286 980 1269 993 q 1303 949 1303 967 q 1286 916 1303 929 q 1246 903 1269 903 m 1639 833 l 1639 417 q 1551 156 1639 251 q 1276 20 1463 61 q 779 -21 1090 -21 q 381 -10 592 -21 q 28 14 169 0 l 28 333 l 426 333 q 676 343 585 333 q 815 380 768 353 q 861 458 861 407 l 847 458 q 692 403 794 418 q 454 389 590 389 q 140 449 251 389 q 28 674 28 510 l 28 833 l 806 833 l 806 618 q 829 579 806 579 q 861 588 849 579 l 861 833 l 1639 833 z "},"ỳ":{"ha":1667,"x_min":28,"x_max":1639,"o":"m 1294 896 l 371 910 l 371 993 l 1294 951 l 1294 896 m 1639 833 l 1639 417 q 1551 156 1639 251 q 1276 20 1463 61 q 779 -21 1090 -21 q 381 -10 592 -21 q 28 14 169 0 l 28 333 l 426 333 q 676 343 585 333 q 815 380 768 353 q 861 458 861 407 l 847 458 q 692 403 794 418 q 454 389 590 389 q 140 449 251 389 q 28 674 28 510 l 28 833 l 806 833 l 806 618 q 829 579 806 579 q 861 588 849 579 l 861 833 l 1639 833 z "},"z":{"ha":1667,"x_min":28,"x_max":1639,"o":"m 28 361 l 996 499 l 996 513 l 28 431 l 28 833 l 1639 833 l 1639 471 l 674 319 l 674 306 l 1639 401 l 1639 -1 l 28 -1 l 28 361 z "},"ź":{"ha":1667,"x_min":28,"x_max":1639,"o":"m 28 361 l 996 499 l 996 513 l 28 431 l 28 833 l 1639 833 l 1639 471 l 674 319 l 674 306 l 1639 401 l 1639 -1 l 28 -1 l 28 361 z "},"ž":{"ha":1667,"x_min":28,"x_max":1639,"o":"m 28 361 l 996 499 l 996 513 l 28 431 l 28 833 l 1639 833 l 1639 471 l 674 319 l 674 306 l 1639 401 l 1639 -1 l 28 -1 l 28 361 m 375 938 l 375 993 l 833 972 l 1292 993 l 1292 938 l 833 896 l 375 938 z "},"ż":{"ha":1667,"x_min":28,"x_max":1639,"o":"m 28 361 l 996 499 l 996 513 l 28 431 l 28 833 l 1639 833 l 1639 471 l 674 319 l 674 306 l 1639 401 l 1639 -1 l 28 -1 l 28 361 m 832 903 q 759 914 779 903 q 739 949 739 925 q 759 983 739 972 q 832 993 779 993 q 906 983 885 993 q 926 949 926 972 q 906 914 926 925 q 832 903 885 903 z "},"А":{"ha":1667,"x_min":14,"x_max":1653,"o":"m 864 215 l 803 215 l 792 0 l 14 0 l 125 972 l 1542 972 l 1653 0 l 875 0 l 864 215 m 858 313 l 842 639 l 825 639 l 808 313 l 858 313 z "},"Б":{"ha":1667,"x_min":28,"x_max":1653,"o":"m 861 499 q 1332 486 1179 499 q 1569 422 1485 474 q 1653 254 1653 371 q 1576 95 1653 150 q 1342 20 1499 40 q 913 0 1186 0 l 861 0 l 28 0 l 28 972 l 1639 972 l 1639 571 l 861 571 l 861 499 m 881 210 q 922 228 911 210 q 932 296 932 246 q 915 392 932 365 q 861 421 897 418 l 861 210 l 881 210 z "},"В":{"ha":1667,"x_min":28,"x_max":1653,"o":"m 938 457 q 1358 443 1215 456 q 1576 385 1500 431 q 1653 240 1653 339 q 1574 90 1653 142 q 1326 19 1494 39 q 861 0 1158 0 l 28 0 l 28 972 l 1058 972 q 1380 957 1257 972 q 1578 890 1503 942 q 1653 733 1653 838 q 1576 587 1653 633 q 1358 528 1500 540 q 938 514 1215 515 l 938 457 m 861 761 l 861 550 q 915 579 897 553 q 932 675 932 606 q 922 743 932 725 q 881 761 911 761 l 861 761 m 881 210 q 922 228 911 210 q 932 296 932 246 q 915 392 932 365 q 861 421 897 418 l 861 210 l 881 210 z "},"Г":{"ha":1667,"x_min":28,"x_max":1639,"o":"m 1639 431 l 861 431 l 861 0 l 28 0 l 28 972 l 1639 972 l 1639 431 z "},"Ѓ":{"ha":1667,"x_min":28,"x_max":1639,"o":"z "},"Ґ":{"ha":1667,"x_min":28,"x_max":1639,"o":"m 1639 972 l 1639 319 l 861 319 l 861 0 l 28 0 l 28 861 l 903 861 l 903 972 l 1639 972 z "},"Д":{"ha":1667,"x_min":28,"x_max":1639,"o":"m 1639 417 l 1639 0 l 1250 0 l 1250 111 l 417 111 l 417 0 l 28 0 l 28 417 l 92 417 q 183 671 144 507 q 222 972 222 835 l 1528 972 l 1528 417 l 1639 417 m 751 697 q 728 551 746 646 q 700 417 711 457 l 793 417 l 793 697 l 751 697 z "},"Е":{"ha":1667,"x_min":28,"x_max":1640,"o":"m 861 585 l 861 533 l 1471 528 l 1471 444 l 861 439 l 861 388 l 1639 401 l 1639 0 l 28 0 l 28 972 l 1640 972 l 1640 571 l 861 585 z "},"Ѐ":{"ha":1667,"x_min":28,"x_max":1639,"o":"m 1294 896 l 371 910 l 371 993 l 1294 951 l 1294 896 m 856 513 l 856 460 l 1471 449 l 1471 379 l 856 368 l 856 315 l 1639 329 l 1639 0 l 28 0 l 28 833 l 1639 833 l 1639 499 l 856 513 z "},"Ё":{"ha":1667,"x_min":28,"x_max":1639,"o":"m 419 903 q 380 916 396 903 q 364 949 364 929 q 380 981 364 968 q 419 993 396 993 q 460 980 443 993 q 476 949 476 967 q 460 916 476 929 q 419 903 443 903 m 1246 903 q 1206 916 1222 903 q 1190 949 1190 929 q 1206 981 1190 968 q 1246 993 1222 993 q 1286 980 1269 993 q 1303 949 1303 967 q 1286 916 1303 929 q 1246 903 1269 903 m 856 513 l 856 460 l 1471 449 l 1471 379 l 856 368 l 856 315 l 1639 329 l 1639 0 l 28 0 l 28 833 l 1639 833 l 1639 499 l 856 513 z "},"Ж":{"ha":1667,"x_min":14,"x_max":1653,"o":"m 1551 486 l 1653 0 l 1167 0 l 1113 444 l 1097 444 l 1097 0 l 576 0 l 576 444 l 554 444 l 500 0 l 14 0 l 115 486 l 14 972 l 500 972 l 556 528 l 576 528 l 576 972 l 1097 972 l 1097 528 l 1111 528 l 1167 972 l 1653 972 l 1551 486 z "},"З":{"ha":1667,"x_min":21,"x_max":1653,"o":"m 864 -21 q 204 98 388 -21 q 21 407 21 217 l 771 407 l 771 363 q 778 310 771 328 q 807 292 786 292 q 833 308 825 292 q 840 367 840 325 q 820 435 840 413 q 738 458 800 458 l 578 458 l 578 514 l 735 514 q 819 537 799 514 q 840 606 840 560 q 833 664 840 647 q 807 681 825 681 q 778 663 786 681 q 771 610 771 644 l 771 565 l 21 565 q 204 874 21 756 q 864 993 388 993 q 1290 972 1121 993 q 1556 890 1458 950 q 1653 717 1653 829 q 1598 582 1653 625 q 1435 526 1543 539 q 1115 514 1326 514 l 925 514 l 925 458 l 1115 458 q 1442 449 1339 458 q 1599 396 1544 439 q 1653 256 1653 353 q 1556 83 1653 143 q 1290 1 1458 22 q 864 -21 1121 -21 z "},"И":{"ha":1667,"x_min":28,"x_max":1639,"o":"m 1639 972 l 1639 0 l 889 0 l 889 603 l 875 603 l 778 0 l 28 0 l 28 972 l 778 972 l 778 369 l 792 369 l 889 972 l 1639 972 z "},"Й":{"ha":1667,"x_min":28,"x_max":1639,"o":"m 833 903 q 533 910 625 903 q 406 935 440 917 q 356 993 372 953 l 536 993 q 564 974 544 981 q 645 963 583 967 q 833 958 707 958 q 1022 963 960 958 q 1103 974 1083 967 q 1131 993 1122 981 l 1311 993 q 1260 935 1294 953 q 1134 910 1226 917 q 833 903 1042 903 m 1639 833 l 1639 0 l 889 0 l 889 492 l 875 492 l 778 0 l 28 0 l 28 833 l 778 833 l 778 328 l 792 328 l 889 833 l 1639 833 z "},"Ѝ":{"ha":1667,"x_min":28,"x_max":1639,"o":"m 1294 896 l 371 910 l 371 993 l 1294 951 l 1294 896 m 1639 833 l 1639 0 l 885 0 l 885 499 l 871 499 l 782 0 l 28 0 l 28 833 l 782 833 l 782 335 l 796 335 l 885 833 l 1639 833 z "},"К":{"ha":1667,"x_min":28,"x_max":1653,"o":"m 1538 486 l 1653 0 l 903 0 l 847 438 l 833 438 l 833 0 l 28 0 l 28 972 l 833 972 l 833 535 l 847 535 l 903 972 l 1653 972 l 1538 486 z "},"Ќ":{"ha":1667,"x_min":28,"x_max":1653,"o":"m 1293 910 l 369 896 l 369 951 l 1293 993 l 1293 910 m 1538 401 l 1653 0 l 903 0 l 850 375 l 833 375 l 833 0 l 28 0 l 28 833 l 833 833 l 833 458 l 849 458 l 903 833 l 1653 833 l 1538 401 z "},"Л":{"ha":1667,"x_min":28,"x_max":1639,"o":"m 1639 0 l 897 0 l 897 529 l 856 529 l 847 361 q 733 67 838 156 q 410 -21 628 -21 q 28 21 225 -21 l 28 514 q 113 535 86 514 q 144 611 140 556 l 172 972 l 1639 972 l 1639 0 z "},"М":{"ha":1667,"x_min":14,"x_max":1653,"o":"m 946 0 l 906 603 l 897 603 l 864 0 l 801 0 l 768 603 l 760 603 l 719 0 l 14 0 l 69 972 l 785 972 l 826 258 l 840 258 l 881 972 l 1597 972 l 1653 0 l 946 0 z "},"Н":{"ha":1667,"x_min":28,"x_max":1639,"o":"m 1639 972 l 1639 0 l 861 0 l 861 438 l 806 438 l 806 0 l 28 0 l 28 972 l 806 972 l 806 535 l 861 535 l 861 972 l 1639 972 z "},"О":{"ha":1667,"x_min":14,"x_max":1653,"o":"m 835 -21 q 358 32 538 -21 q 96 196 178 85 q 14 488 14 307 q 97 781 14 671 q 360 942 181 892 q 833 993 539 993 q 1310 942 1131 993 q 1571 781 1489 890 q 1653 489 1653 671 q 1571 196 1653 307 q 1310 32 1489 85 q 835 -21 1132 -21 m 836 331 q 856 340 849 331 q 868 385 864 350 q 872 492 872 419 q 868 590 872 558 q 856 632 864 622 q 835 642 849 642 q 813 632 821 642 q 801 590 806 622 q 797 490 797 557 q 801 385 797 419 q 813 341 806 351 q 836 331 821 331 z "},"П":{"ha":1667,"x_min":28,"x_max":1639,"o":"m 1639 0 l 861 0 l 861 529 l 806 529 l 806 0 l 28 0 l 28 972 l 1639 972 l 1639 0 z "},"Р":{"ha":1667,"x_min":28,"x_max":1653,"o":"m 954 972 q 1369 942 1218 972 q 1586 845 1519 913 q 1653 660 1653 778 q 1576 458 1653 533 q 1337 348 1500 382 q 903 314 1174 314 l 847 314 l 847 0 l 28 0 l 28 972 l 954 972 m 851 411 q 897 442 878 411 q 917 536 917 474 q 903 613 917 588 q 865 639 889 639 l 847 639 l 847 411 l 851 411 z "},"С":{"ha":1667,"x_min":14,"x_max":1653,"o":"m 813 -21 q 369 29 544 -21 q 103 191 193 79 q 14 488 14 303 q 104 778 14 668 q 388 940 194 889 q 899 992 582 992 q 1639 943 1224 992 l 1653 499 l 903 499 q 894 577 903 554 q 865 600 886 600 q 831 567 839 600 q 822 475 822 535 q 831 379 822 414 q 865 344 839 344 q 894 367 885 344 q 903 443 903 390 l 1653 443 q 813 -21 1653 -21 z "},"Т":{"ha":1667,"x_min":28,"x_max":1639,"o":"m 1639 431 l 1250 431 l 1250 0 l 417 0 l 417 431 l 28 431 l 28 972 l 1639 972 l 1639 431 z "},"У":{"ha":1667,"x_min":28,"x_max":1639,"o":"m 1639 972 l 1639 417 q 1551 156 1639 251 q 1276 20 1463 61 q 779 -21 1090 -21 q 381 -10 592 -21 q 28 14 169 0 l 28 333 l 426 333 q 676 343 585 333 q 815 380 768 353 q 861 458 861 407 l 847 458 q 692 403 794 418 q 454 389 590 389 q 140 449 251 389 q 28 674 28 510 l 28 972 l 806 972 l 806 618 q 829 579 806 579 q 861 588 849 579 l 861 972 l 1639 972 z "},"Ў":{"ha":1667,"x_min":28,"x_max":1639,"o":"m 1639 833 l 1639 417 q 1551 156 1639 251 q 1276 20 1463 61 q 779 -21 1090 -21 q 381 -10 592 -21 q 28 14 169 0 l 28 333 l 426 333 q 676 343 585 333 q 815 380 768 353 q 861 458 861 407 l 847 458 q 692 403 794 418 q 454 389 590 389 q 140 449 251 389 q 28 674 28 510 l 28 833 l 806 833 l 806 618 q 829 579 806 579 q 861 588 849 579 l 861 833 l 1639 833 m 833 903 q 533 910 625 903 q 406 935 440 917 q 356 993 372 953 l 536 993 q 564 974 544 981 q 645 963 583 967 q 833 958 707 958 q 1022 963 960 958 q 1103 974 1083 967 q 1131 993 1122 981 l 1311 993 q 1260 935 1294 953 q 1134 910 1226 917 q 833 903 1042 903 z "},"Ф":{"ha":1667,"x_min":14,"x_max":1653,"o":"m 1653 489 q 1598 263 1653 351 q 1425 126 1543 175 q 1111 60 1307 76 l 1111 0 l 556 0 l 556 60 q 242 126 361 78 q 69 263 124 175 q 14 488 14 351 q 69 714 14 626 q 243 849 125 801 q 556 914 361 897 l 556 972 l 1111 972 l 1111 914 q 1424 849 1306 897 q 1598 713 1543 800 q 1653 489 1653 626 m 506 490 q 513 388 506 422 q 534 343 521 354 q 569 331 547 332 l 569 642 q 534 632 547 642 q 513 589 521 622 q 506 490 506 556 m 1100 331 q 1134 340 1121 331 q 1156 385 1147 350 q 1164 492 1164 421 q 1156 590 1164 557 q 1135 632 1149 622 q 1099 642 1121 642 l 1097 642 l 1097 331 l 1100 331 z "},"Х":{"ha":1667,"x_min":14,"x_max":1653,"o":"m 1539 471 l 1653 0 l 878 0 l 840 419 l 826 419 l 789 0 l 14 0 l 128 471 l 14 972 l 789 972 l 826 517 l 840 517 l 878 972 l 1653 972 l 1539 471 z "},"Ч":{"ha":1667,"x_min":28,"x_max":1639,"o":"m 1639 972 l 1639 0 l 861 0 l 861 444 l 847 444 q 399 229 694 229 q 197 256 276 229 q 72 356 117 283 q 28 563 28 429 l 28 972 l 806 972 l 806 618 q 829 579 806 579 q 861 588 849 579 l 861 972 l 1639 972 z "},"Ц":{"ha":1667,"x_min":28,"x_max":1639,"o":"m 1639 556 l 1639 0 l 1250 0 l 1250 111 l 28 111 l 28 972 l 736 972 l 736 556 l 792 556 l 792 972 l 1528 972 l 1528 556 l 1639 556 z "},"Ш":{"ha":1667,"x_min":28,"x_max":1639,"o":"m 1639 972 l 1639 0 l 28 0 l 28 972 l 528 972 l 528 389 l 583 389 l 583 972 l 1083 972 l 1083 389 l 1139 389 l 1139 972 l 1639 972 z "},"Щ":{"ha":1667,"x_min":28,"x_max":1639,"o":"m 1639 500 l 1639 0 l 1250 0 l 1250 111 l 28 111 l 28 972 l 492 972 l 492 500 l 547 500 l 547 972 l 1011 972 l 1011 500 l 1067 500 l 1067 972 l 1531 972 l 1531 500 l 1639 500 z "},"Џ":{"ha":1667,"x_min":28,"x_max":1639,"o":"m 1639 972 l 1639 111 l 1201 111 l 1201 0 l 465 0 l 465 111 l 28 111 l 28 972 l 792 972 l 792 500 l 847 500 l 847 972 l 1639 972 z "},"Ь":{"ha":1667,"x_min":28,"x_max":1653,"o":"m 928 658 q 1344 627 1186 658 q 1577 524 1501 596 q 1653 325 1653 451 q 1583 135 1653 206 q 1363 32 1514 64 q 954 0 1211 0 l 28 0 l 28 972 l 847 972 l 847 657 q 928 658 874 658 m 865 333 q 903 359 889 333 q 917 436 917 385 q 897 530 917 499 q 851 561 878 561 l 847 561 l 847 333 l 865 333 z "},"Ъ":{"ha":1667,"x_min":28,"x_max":1653,"o":"m 1017 658 q 1372 633 1236 658 q 1580 537 1507 607 q 1653 335 1653 467 q 1588 141 1653 214 q 1382 34 1522 68 q 1010 0 1242 0 l 139 0 l 139 583 l 28 583 l 28 972 l 903 972 l 903 657 q 1017 658 939 658 m 921 333 q 958 359 944 333 q 972 436 972 385 q 953 530 972 499 q 907 561 933 561 l 903 561 l 903 333 l 921 333 z "},"Ы":{"ha":1667,"x_min":28,"x_max":1639,"o":"m 600 658 q 956 586 828 658 q 1083 329 1083 514 q 954 75 1083 150 q 565 0 825 0 l 28 0 l 28 972 l 528 972 l 528 657 q 600 658 550 658 m 1639 972 l 1639 0 l 1139 0 l 1139 972 l 1639 972 m 546 333 q 583 359 569 333 q 597 436 597 385 q 578 530 597 499 q 532 561 558 561 l 528 561 l 528 333 l 546 333 z "},"Љ":{"ha":1667,"x_min":28,"x_max":1653,"o":"m 1165 658 q 1523 585 1393 658 q 1653 325 1653 511 q 1526 74 1653 147 q 1135 0 1399 0 l 597 0 l 597 529 l 565 529 l 553 292 q 531 140 549 204 q 453 28 514 76 q 268 -21 392 -21 q 139 -8 203 -21 q 28 21 75 4 l 28 514 q 113 535 86 514 q 144 611 140 556 l 172 972 l 1097 972 l 1097 657 q 1165 658 1118 658 m 1115 333 q 1153 359 1139 333 q 1167 436 1167 385 q 1147 530 1167 499 q 1101 561 1128 561 l 1097 561 l 1097 333 l 1115 333 z "},"Њ":{"ha":1667,"x_min":28,"x_max":1653,"o":"m 1153 576 q 1522 516 1392 576 q 1653 299 1653 456 q 1525 69 1653 139 q 1135 0 1397 0 l 590 0 l 590 479 l 535 479 l 535 0 l 28 0 l 28 972 l 535 972 l 535 576 l 590 576 l 590 972 l 1097 972 l 1097 576 l 1153 576 m 1115 250 q 1153 276 1139 250 q 1167 353 1167 301 q 1147 447 1167 415 q 1101 478 1128 478 l 1097 478 l 1097 250 l 1115 250 z "},"Ѕ":{"ha":1667,"x_min":14,"x_max":1653,"o":"m 824 -21 q 378 10 613 -21 q 42 74 143 40 l 42 494 q 550 378 232 378 q 892 418 751 378 l 883 454 q 539 429 690 429 q 258 459 376 429 q 77 545 140 489 q 14 679 14 601 q 228 917 14 840 q 835 993 443 993 q 1177 976 1008 993 q 1468 937 1346 960 q 1625 899 1590 914 l 1625 481 q 1403 568 1528 539 q 1117 597 1279 597 q 761 557 921 597 l 769 521 q 1128 546 958 546 q 1519 478 1385 546 q 1653 281 1653 411 q 1447 51 1653 122 q 824 -21 1242 -21 z "},"Є":{"ha":1667,"x_min":21,"x_max":1653,"o":"m 810 -21 q 353 32 526 -21 q 101 196 181 85 q 21 486 21 307 q 114 788 21 676 q 380 946 207 899 q 810 993 553 993 q 1469 874 1286 993 q 1653 565 1653 756 l 903 565 l 903 610 q 896 663 903 644 q 868 681 889 681 q 841 664 849 681 q 833 606 833 647 l 833 514 l 1096 514 l 1096 458 l 833 458 l 833 367 q 841 308 833 325 q 867 292 849 292 q 895 310 888 292 q 903 363 903 328 l 903 407 l 1653 407 q 1469 98 1653 217 q 810 -21 1286 -21 z "},"Э":{"ha":1667,"x_min":21,"x_max":1653,"o":"m 864 -21 q 204 98 388 -21 q 21 407 21 217 l 771 407 l 771 363 q 778 310 771 328 q 807 292 786 292 q 833 308 825 292 q 840 367 840 325 l 840 458 l 578 458 l 578 514 l 840 514 l 840 606 q 833 664 840 647 q 807 681 825 681 q 778 663 786 681 q 771 610 771 644 l 771 565 l 21 565 q 204 874 21 756 q 864 993 388 993 q 1294 946 1121 993 q 1560 788 1467 899 q 1653 486 1653 676 q 1573 196 1653 307 q 1320 32 1493 85 q 864 -21 1147 -21 z "},"І":{"ha":1667,"x_min":28,"x_max":1639,"o":"m 1250 583 l 1250 389 l 1639 389 l 1639 0 l 28 0 l 28 389 l 417 389 l 417 583 l 28 583 l 28 972 l 1639 972 l 1639 583 l 1250 583 z "},"Ї":{"ha":1667,"x_min":28,"x_max":1639,"o":"m 419 903 q 380 916 396 903 q 364 949 364 929 q 380 981 364 968 q 419 993 396 993 q 460 980 443 993 q 476 949 476 967 q 460 916 476 929 q 419 903 443 903 m 1246 903 q 1206 916 1222 903 q 1190 949 1190 929 q 1206 981 1190 968 q 1246 993 1222 993 q 1286 980 1269 993 q 1303 949 1303 967 q 1286 916 1303 929 q 1246 903 1269 903 m 1250 444 l 1250 389 l 1639 389 l 1639 0 l 28 0 l 28 389 l 417 389 l 417 444 l 28 444 l 28 833 l 1639 833 l 1639 444 l 1250 444 z "},"Ј":{"ha":1667,"x_min":28,"x_max":1639,"o":"m 1639 532 q 1517 183 1639 306 q 1212 20 1396 61 q 790 -21 1028 -21 q 430 -9 638 -21 q 28 21 222 3 l 28 389 q 325 386 178 386 q 649 397 551 386 q 776 435 746 407 q 806 529 806 464 l 806 583 l 28 583 l 28 972 l 1639 972 l 1639 532 z "},"Ћ":{"ha":1667,"x_min":28,"x_max":1639,"o":"m 1310 576 q 1552 506 1465 576 q 1639 243 1639 435 l 1639 0 l 944 0 l 944 188 q 921 226 944 226 q 889 218 901 226 l 889 0 l 194 0 l 194 563 l 28 563 l 28 972 l 1056 972 l 1056 563 l 889 563 l 889 361 l 903 361 q 1085 522 979 468 q 1310 576 1192 576 z "},"Ю":{"ha":1667,"x_min":28,"x_max":1653,"o":"m 1097 993 q 1504 869 1356 993 q 1653 489 1653 746 q 1505 105 1653 231 q 1099 -21 1357 -21 q 707 92 853 -21 q 546 438 561 206 l 517 438 l 517 0 l 28 0 l 28 972 l 517 972 l 517 535 l 546 535 q 707 882 560 771 q 1097 993 854 993 m 1103 331 q 1123 340 1115 331 q 1135 385 1131 350 q 1139 492 1139 419 q 1135 590 1139 558 q 1123 632 1131 622 q 1101 642 1115 642 q 1080 632 1088 642 q 1068 590 1072 622 q 1064 490 1064 557 q 1068 385 1064 419 q 1080 341 1072 351 q 1103 331 1088 331 z "},"Я":{"ha":1667,"x_min":14,"x_max":1639,"o":"m 1639 0 l 819 0 l 819 347 l 776 347 l 736 0 l 29 0 l 140 431 q 44 522 75 467 q 14 660 14 578 q 81 845 14 778 q 298 942 147 913 q 713 972 449 972 l 1639 972 l 1639 0 m 819 411 l 819 639 l 801 639 q 764 613 778 639 q 750 536 750 588 q 769 442 750 474 q 815 411 789 411 l 819 411 z "},"Ђ":{"ha":1667,"x_min":28,"x_max":1653,"o":"m 1324 576 q 1563 511 1472 576 q 1653 299 1653 446 q 1592 129 1653 193 q 1376 33 1531 65 q 944 0 1222 0 l 944 167 q 1000 197 1000 167 q 942 226 1000 226 q 889 217 911 226 l 889 0 l 194 0 l 194 563 l 28 563 l 28 972 l 1056 972 l 1056 563 l 889 563 l 889 361 l 903 361 q 1088 523 979 469 q 1324 576 1196 576 z "},"Ғ":{"ha":1667,"x_min":28,"x_max":1639,"o":"m 917 431 l 917 375 l 1168 375 l 1168 319 l 917 319 l 917 0 l 83 0 l 83 319 l 28 319 l 28 375 l 83 375 l 83 972 l 1639 972 l 1639 431 l 917 431 z "},"Җ":{"ha":1667,"x_min":14,"x_max":1653,"o":"m 1588 389 l 1653 389 l 1653 0 l 1264 0 l 1264 111 l 1167 111 l 1113 500 l 1097 500 l 1097 111 l 576 111 l 576 500 l 554 500 l 500 111 l 14 111 l 115 542 l 14 972 l 500 972 l 556 583 l 576 583 l 576 972 l 1097 972 l 1097 583 l 1111 583 l 1167 972 l 1653 972 l 1551 542 l 1588 389 z "},"Ҙ":{"ha":1667,"x_min":21,"x_max":1653,"o":"m 1115 524 q 1442 515 1339 524 q 1599 472 1544 507 q 1653 356 1653 436 q 1556 204 1653 258 q 1288 131 1458 150 q 864 111 1117 111 l 863 111 l 875 21 l 875 -21 l 792 -21 l 792 21 l 804 111 q 331 173 506 117 q 88 308 156 229 q 21 472 21 388 l 769 472 l 769 428 q 777 375 769 393 q 807 357 785 357 q 833 374 825 357 q 840 432 840 390 q 820 501 840 478 q 738 524 800 524 l 578 524 l 578 579 l 735 579 q 819 602 799 579 q 840 671 840 625 q 833 729 840 713 q 807 746 825 746 q 777 728 785 746 q 769 675 769 710 l 769 631 l 21 631 q 93 799 21 717 q 353 937 165 881 q 864 993 542 993 q 1288 974 1117 993 q 1556 900 1458 954 q 1653 747 1653 846 q 1598 637 1653 672 q 1433 590 1543 601 q 1115 579 1324 579 l 925 579 l 925 524 l 1115 524 z "},"Қ":{"ha":1667,"x_min":28,"x_max":1653,"o":"m 1576 389 l 1653 389 l 1653 0 l 1264 0 l 1264 111 l 903 111 l 850 500 l 833 500 l 833 111 l 28 111 l 28 972 l 833 972 l 833 583 l 847 583 l 903 972 l 1653 972 l 1538 526 l 1576 389 z "},"Ҝ":{"ha":1667,"x_min":28,"x_max":1653,"o":"m 1538 486 l 1653 0 l 958 0 l 931 444 l 889 444 l 889 111 l 833 111 l 833 444 l 778 444 l 778 0 l 28 0 l 28 972 l 778 972 l 778 528 l 833 528 l 833 861 l 889 861 l 889 528 l 931 528 l 958 972 l 1653 972 l 1538 486 z "},"Ҡ":{"ha":1667,"x_min":28,"x_max":1653,"o":"m 1538 486 l 1653 0 l 944 0 l 889 444 l 875 444 l 875 0 l 139 0 l 139 583 l 28 583 l 28 972 l 875 972 l 875 528 l 889 528 l 944 972 l 1653 972 l 1538 486 z "},"Ң":{"ha":1667,"x_min":28,"x_max":1653,"o":"m 1653 389 l 1653 0 l 1264 0 l 1264 111 l 833 111 l 833 493 l 778 493 l 778 111 l 28 111 l 28 972 l 778 972 l 778 590 l 833 590 l 833 972 l 1583 972 l 1583 389 l 1653 389 z "},"Ҫ":{"ha":1667,"x_min":14,"x_max":1653,"o":"m 864 451 q 894 467 885 451 q 903 522 903 482 l 1653 522 q 1466 224 1653 332 q 861 111 1279 117 l 875 18 l 875 -24 l 792 -24 l 792 18 l 806 111 q 366 158 540 113 q 103 301 192 203 q 14 560 14 400 q 106 815 14 721 q 381 951 197 910 q 857 993 565 993 q 1265 978 1047 993 q 1639 943 1483 963 l 1653 578 l 903 578 q 894 654 903 629 q 864 679 885 679 q 830 646 838 679 q 822 553 822 613 q 831 474 822 496 q 864 451 839 451 z "},"Ү":{"ha":1667,"x_min":14,"x_max":1653,"o":"m 1251 192 l 1251 0 l 418 0 l 418 189 l 14 972 l 789 972 l 825 556 l 844 556 l 878 972 l 1653 972 l 1251 192 z "},"Ұ":{"ha":1667,"x_min":14,"x_max":1653,"o":"m 1267 221 l 1511 221 l 1511 165 l 1251 165 l 1251 0 l 418 0 l 418 165 l 156 165 l 156 221 l 401 221 l 14 972 l 789 972 l 825 556 l 844 556 l 878 972 l 1653 972 l 1267 221 z "},"Ҳ":{"ha":1667,"x_min":14,"x_max":1653,"o":"m 1579 389 l 1653 389 l 1653 0 l 1264 0 l 1264 111 l 878 111 l 840 460 l 826 460 l 789 111 l 14 111 l 128 540 l 14 972 l 789 972 l 826 588 l 840 588 l 878 972 l 1653 972 l 1539 540 l 1579 389 z "},"Ҷ":{"ha":1667,"x_min":28,"x_max":1653,"o":"m 1653 389 l 1653 0 l 1264 0 l 1264 111 l 833 111 l 833 444 l 819 444 q 385 229 667 229 q 192 256 269 229 q 72 356 115 283 q 28 563 28 429 l 28 972 l 778 972 l 778 618 q 801 579 778 579 q 833 588 821 579 l 833 972 l 1542 972 l 1542 389 l 1653 389 z "},"Ҹ":{"ha":1667,"x_min":28,"x_max":1639,"o":"m 1639 972 l 1639 0 l 861 0 l 861 444 l 806 444 l 806 250 l 750 250 l 750 444 l 736 444 q 557 283 661 338 q 343 229 453 229 q 179 253 247 229 q 69 347 111 276 q 28 549 28 418 l 28 972 l 694 972 l 694 674 q 704 604 694 624 q 750 581 714 585 l 750 833 l 806 833 l 806 579 q 861 589 846 582 l 861 972 l 1639 972 z "},"Һ":{"ha":1667,"x_min":28,"x_max":1639,"o":"m 1268 743 q 1470 716 1390 743 q 1594 616 1550 689 q 1639 410 1639 543 l 1639 0 l 861 0 l 861 354 q 838 393 861 393 q 806 385 818 393 l 806 0 l 28 0 l 28 972 l 806 972 l 806 528 l 819 528 q 1268 743 972 743 z "},"Ӏ":{"ha":1667,"x_min":28,"x_max":1639,"o":"m 1250 583 l 1250 389 l 1639 389 l 1639 0 l 28 0 l 28 389 l 417 389 l 417 583 l 28 583 l 28 972 l 1639 972 l 1639 583 l 1250 583 z "},"Ӂ":{"ha":1667,"x_min":14,"x_max":1653,"o":"m 1551 417 l 1653 0 l 1167 0 l 1113 375 l 1097 375 l 1097 0 l 576 0 l 576 375 l 554 375 l 500 0 l 14 0 l 115 417 l 14 833 l 500 833 l 556 458 l 576 458 l 576 833 l 1097 833 l 1097 458 l 1111 458 l 1167 833 l 1653 833 l 1551 417 m 833 903 q 533 910 625 903 q 406 935 440 917 q 356 993 372 953 l 536 993 q 564 974 544 981 q 645 963 583 967 q 833 958 707 958 q 1022 963 960 958 q 1103 974 1083 967 q 1131 993 1122 981 l 1311 993 q 1260 935 1294 953 q 1134 910 1226 917 q 833 903 1042 903 z "},"Ӑ":{"ha":1667,"x_min":14,"x_max":1653,"o":"m 833 903 q 533 910 625 903 q 406 935 440 917 q 356 993 372 953 l 536 993 q 564 974 544 981 q 645 963 583 967 q 833 958 707 958 q 1022 963 960 958 q 1103 974 1083 967 q 1131 993 1122 981 l 1311 993 q 1260 935 1294 953 q 1134 910 1226 917 q 833 903 1042 903 m 863 188 l 804 188 l 792 0 l 14 0 l 139 833 l 1528 833 l 1653 0 l 875 0 l 863 188 m 856 286 l 842 500 l 825 500 l 811 286 l 856 286 z "},"Ӗ":{"ha":1667,"x_min":28,"x_max":1639,"o":"m 833 903 q 533 910 625 903 q 406 935 440 917 q 356 993 372 953 l 536 993 q 564 974 544 981 q 645 963 583 967 q 833 958 707 958 q 1022 963 960 958 q 1103 974 1083 967 q 1131 993 1122 981 l 1311 993 q 1260 935 1294 953 q 1134 910 1226 917 q 833 903 1042 903 m 856 513 l 856 460 l 1471 449 l 1471 379 l 856 368 l 856 315 l 1639 329 l 1639 0 l 28 0 l 28 833 l 1639 833 l 1639 499 l 856 513 z "},"Ә":{"ha":1667,"x_min":14,"x_max":1653,"o":"m 793 993 q 1283 943 1094 993 q 1562 784 1471 893 q 1653 497 1653 675 q 1563 188 1653 301 q 1294 27 1472 75 q 832 -21 1115 -21 q 365 28 546 -21 q 99 178 185 78 q 14 438 14 279 l 42 507 l 838 507 q 798 552 829 542 q 688 563 767 563 l 56 563 l 56 944 q 392 978 192 964 q 793 993 593 993 m 801 328 q 834 356 825 328 q 844 425 843 383 l 764 425 q 774 350 767 372 q 801 328 782 328 z "},"Ӣ":{"ha":1667,"x_min":28,"x_max":1639,"o":"z "},"Ӧ":{"ha":1667,"x_min":14,"x_max":1653,"o":"m 419 903 q 380 916 396 903 q 364 949 364 929 q 380 981 364 968 q 419 993 396 993 q 460 980 443 993 q 476 949 476 967 q 460 916 476 929 q 419 903 443 903 m 1246 903 q 1206 916 1222 903 q 1190 949 1190 929 q 1206 981 1190 968 q 1246 993 1222 993 q 1286 980 1269 993 q 1303 949 1303 967 q 1286 916 1303 929 q 1246 903 1269 903 m 833 -21 q 358 28 539 -21 q 96 174 178 76 q 14 419 14 271 q 97 667 14 569 q 361 813 181 764 q 833 861 542 861 q 1307 813 1126 861 q 1570 667 1488 764 q 1653 419 1653 569 q 1571 174 1653 271 q 1308 28 1489 76 q 833 -21 1128 -21 m 835 314 q 860 337 850 314 q 869 428 869 360 q 860 519 869 496 q 835 542 850 542 q 809 519 818 542 q 800 428 800 497 q 809 336 800 358 q 835 314 818 314 z "},"Ө":{"ha":1667,"x_min":14,"x_max":1653,"o":"m 833 993 q 1310 942 1131 993 q 1571 781 1489 890 q 1653 489 1653 671 q 1571 196 1653 307 q 1310 32 1489 85 q 835 -21 1132 -21 q 358 32 538 -21 q 96 196 178 85 q 14 488 14 307 q 97 781 14 671 q 360 942 181 892 q 833 993 539 993 m 835 697 q 814 688 821 697 q 803 643 807 678 q 797 535 799 608 l 872 535 q 867 643 871 608 q 856 688 863 678 q 835 697 849 697 m 836 275 q 854 285 847 275 q 866 330 861 294 q 872 438 871 365 l 797 438 q 803 331 799 365 q 815 285 807 296 q 836 275 822 275 z "},"Ӯ":{"ha":1667,"x_min":28,"x_max":1639,"o":"m 372 972 l 1296 972 l 1296 896 l 372 896 l 372 972 m 1639 833 l 1639 417 q 1551 156 1639 251 q 1276 20 1463 61 q 779 -21 1090 -21 q 381 -10 592 -21 q 28 14 169 0 l 28 333 l 426 333 q 676 343 585 333 q 815 380 768 353 q 861 458 861 407 l 847 458 q 692 403 794 418 q 454 389 590 389 q 140 449 251 389 q 28 674 28 510 l 28 833 l 806 833 l 806 618 q 829 579 806 579 q 861 588 849 579 l 861 833 l 1639 833 z "},"Ӳ":{"ha":1667,"x_min":28,"x_max":1639,"o":"m 246 951 l 806 993 l 806 910 l 246 896 l 246 951 m 861 951 l 1421 993 l 1421 910 l 861 896 l 861 951 m 1639 833 l 1639 417 q 1551 156 1639 251 q 1276 20 1463 61 q 779 -21 1090 -21 q 381 -10 592 -21 q 28 14 169 0 l 28 333 l 426 333 q 676 343 585 333 q 815 380 768 353 q 861 458 861 407 l 847 458 q 692 403 794 418 q 454 389 590 389 q 140 449 251 389 q 28 674 28 510 l 28 833 l 806 833 l 806 618 q 829 579 806 579 q 861 588 849 579 l 861 833 l 1639 833 z "},"а":{"ha":1667,"x_min":14,"x_max":1639,"o":"m 964 861 q 1353 825 1211 861 q 1567 685 1494 789 q 1639 378 1639 581 l 1639 0 l 819 0 l 806 83 l 792 83 q 613 5 707 31 q 378 -21 518 -21 q 96 30 178 -21 q 14 174 14 81 q 112 338 14 285 q 370 405 210 390 q 804 419 531 419 q 780 465 801 453 q 692 478 758 478 l 56 478 l 56 813 q 518 847 267 832 q 964 861 769 861 m 783 176 q 806 183 796 176 l 806 322 q 786 324 799 324 q 757 306 764 324 q 750 250 750 289 q 756 194 750 211 q 783 176 763 176 z "},"б":{"ha":1667,"x_min":14,"x_max":1653,"o":"m 426 447 q 703 599 535 558 q 1076 640 872 640 q 1422 608 1296 640 q 1601 513 1549 575 q 1653 354 1653 451 q 1585 157 1653 239 q 1340 27 1518 75 q 844 -21 1161 -21 q 219 81 425 -21 q 14 413 14 182 q 272 818 14 690 q 976 946 529 946 q 1030 957 1017 946 q 1043 992 1043 968 l 1639 992 q 1503 762 1639 832 q 1076 692 1367 692 q 399 471 560 692 l 426 447 m 836 199 q 861 226 853 199 q 869 319 869 254 q 863 392 869 368 q 839 415 857 415 q 807 394 819 415 q 809 271 807 310 q 817 215 811 232 q 836 199 822 199 z "},"в":{"ha":1667,"x_min":28,"x_max":1653,"o":"m 938 389 q 1356 377 1213 388 q 1576 328 1500 367 q 1653 207 1653 289 q 1573 81 1653 125 q 1324 18 1493 36 q 861 0 1156 0 l 28 0 l 28 835 l 1058 835 q 1378 822 1254 835 q 1578 764 1503 808 q 1653 631 1653 719 q 1576 508 1653 547 q 1357 458 1500 469 q 938 446 1214 447 l 938 389 m 861 482 q 915 506 897 485 q 932 572 932 526 q 922 640 932 622 q 881 658 911 658 l 861 658 l 861 482 m 881 176 q 922 194 911 176 q 932 263 932 213 q 915 329 932 308 q 861 353 897 350 l 861 176 l 881 176 z "},"г":{"ha":1667,"x_min":28,"x_max":1639,"o":"m 1639 389 l 861 389 l 861 0 l 28 0 l 28 833 l 1639 833 l 1639 389 z "},"ѓ":{"ha":1667,"x_min":28,"x_max":1639,"o":"m 1639 389 l 861 389 l 861 0 l 28 0 l 28 833 l 1639 833 l 1639 389 z "},"ґ":{"ha":1667,"x_min":28,"x_max":1639,"o":"m 1639 972 l 1639 389 l 861 389 l 861 0 l 28 0 l 28 833 l 903 833 l 903 972 l 1639 972 z "},"д":{"ha":1667,"x_min":28,"x_max":1639,"o":"m 1639 333 l 1639 0 l 1250 0 l 1250 111 l 417 111 l 417 0 l 28 0 l 28 333 l 92 333 q 183 569 144 422 q 222 833 222 717 l 1528 833 l 1528 333 l 1639 333 m 751 614 q 728 468 746 563 q 700 333 711 374 l 793 333 l 793 614 l 751 614 z "},"е":{"ha":1667,"x_min":14,"x_max":1653,"o":"m 1625 403 l 829 403 q 869 358 838 368 q 979 347 900 347 l 1611 347 l 1611 28 q 1274 -6 1475 8 q 874 -21 1074 -21 q 383 21 569 -21 q 105 158 196 63 q 14 413 14 253 q 105 674 14 575 q 376 817 196 772 q 835 861 556 861 q 1461 762 1269 861 q 1653 472 1653 663 l 1625 403 m 865 582 q 833 554 842 582 q 822 485 824 526 l 903 485 q 892 560 900 538 q 865 582 885 582 z "},"ѐ":{"ha":1667,"x_min":14,"x_max":1653,"o":"m 1294 896 l 371 910 l 371 993 l 1294 951 l 1294 896 m 1625 403 l 829 403 q 869 358 838 368 q 979 347 900 347 l 1611 347 l 1611 28 q 1274 -6 1475 8 q 874 -21 1074 -21 q 383 21 569 -21 q 105 158 196 63 q 14 413 14 253 q 105 674 14 575 q 376 817 196 772 q 835 861 556 861 q 1461 762 1269 861 q 1653 472 1653 663 l 1625 403 m 865 582 q 833 554 842 582 q 822 485 824 526 l 903 485 q 892 560 900 538 q 865 582 885 582 z "},"ё":{"ha":1667,"x_min":14,"x_max":1653,"o":"m 419 903 q 380 916 396 903 q 364 949 364 929 q 380 981 364 968 q 419 993 396 993 q 460 980 443 993 q 476 949 476 967 q 460 916 476 929 q 419 903 443 903 m 1246 903 q 1206 916 1222 903 q 1190 949 1190 929 q 1206 981 1190 968 q 1246 993 1222 993 q 1286 980 1269 993 q 1303 949 1303 967 q 1286 916 1303 929 q 1246 903 1269 903 m 1625 403 l 829 403 q 869 358 838 368 q 979 347 900 347 l 1611 347 l 1611 28 q 1274 -6 1475 8 q 874 -21 1074 -21 q 383 21 569 -21 q 105 158 196 63 q 14 413 14 253 q 105 674 14 575 q 376 817 196 772 q 835 861 556 861 q 1461 762 1269 861 q 1653 472 1653 663 l 1625 403 m 865 582 q 833 554 842 582 q 822 485 824 526 l 903 485 q 892 560 900 538 q 865 582 885 582 z "},"ж":{"ha":1667,"x_min":14,"x_max":1653,"o":"m 1551 417 l 1653 0 l 1167 0 l 1113 375 l 1097 375 l 1097 0 l 576 0 l 576 375 l 554 375 l 500 0 l 14 0 l 115 417 l 14 833 l 500 833 l 556 458 l 576 458 l 576 833 l 1097 833 l 1097 458 l 1111 458 l 1167 833 l 1653 833 l 1551 417 z "},"з":{"ha":1667,"x_min":21,"x_max":1653,"o":"m 864 -21 q 353 35 542 -21 q 93 172 165 90 q 21 340 21 253 l 769 340 l 769 296 q 777 243 769 261 q 807 225 785 225 q 833 242 825 225 q 840 300 840 258 q 820 369 840 346 q 738 392 800 392 l 578 392 l 578 447 l 735 447 q 819 470 799 447 q 840 539 840 493 q 833 597 840 581 q 807 614 825 614 q 777 596 785 614 q 769 543 769 578 l 769 499 l 21 499 q 93 667 21 585 q 353 805 165 749 q 864 861 542 861 q 1288 842 1117 861 q 1556 768 1458 822 q 1653 615 1653 714 q 1598 505 1653 540 q 1433 458 1543 469 q 1115 447 1324 447 l 925 447 l 925 392 l 1115 392 q 1442 383 1339 392 q 1599 340 1544 375 q 1653 224 1653 304 q 1556 72 1653 126 q 1288 -1 1458 18 q 864 -21 1117 -21 z "},"и":{"ha":1667,"x_min":28,"x_max":1639,"o":"m 1639 833 l 1639 0 l 885 0 l 885 499 l 871 499 l 782 0 l 28 0 l 28 833 l 782 833 l 782 335 l 796 335 l 885 833 l 1639 833 z "},"й":{"ha":1667,"x_min":28,"x_max":1639,"o":"m 833 903 q 533 910 625 903 q 406 935 440 917 q 356 993 372 953 l 536 993 q 564 974 544 981 q 645 963 583 967 q 833 958 707 958 q 1022 963 960 958 q 1103 974 1083 967 q 1131 993 1122 981 l 1311 993 q 1260 935 1294 953 q 1134 910 1226 917 q 833 903 1042 903 m 1639 833 l 1639 0 l 889 0 l 889 492 l 875 492 l 778 0 l 28 0 l 28 833 l 778 833 l 778 328 l 792 328 l 889 833 l 1639 833 z "},"ѝ":{"ha":1667,"x_min":28,"x_max":1639,"o":"m 1294 896 l 371 910 l 371 993 l 1294 951 l 1294 896 m 1639 833 l 1639 0 l 885 0 l 885 499 l 871 499 l 782 0 l 28 0 l 28 833 l 782 833 l 782 335 l 796 335 l 885 833 l 1639 833 z "},"к":{"ha":1667,"x_min":28,"x_max":1653,"o":"m 1538 401 l 1653 0 l 903 0 l 850 375 l 833 375 l 833 0 l 28 0 l 28 833 l 833 833 l 833 458 l 849 458 l 903 833 l 1653 833 l 1538 401 z "},"ќ":{"ha":1667,"x_min":28,"x_max":1653,"o":"m 1293 910 l 369 896 l 369 951 l 1293 993 l 1293 910 m 1538 401 l 1653 0 l 903 0 l 850 375 l 833 375 l 833 0 l 28 0 l 28 833 l 833 833 l 833 458 l 849 458 l 903 833 l 1653 833 l 1538 401 z "},"л":{"ha":1667,"x_min":28,"x_max":1639,"o":"m 1639 0 l 897 0 l 897 444 l 854 444 l 847 333 q 790 119 839 196 q 650 10 742 42 q 410 -21 558 -21 q 28 21 225 -21 l 28 458 q 112 478 85 458 q 144 556 139 499 l 172 833 l 1639 833 l 1639 0 z "},"м":{"ha":1667,"x_min":14,"x_max":1653,"o":"m 946 0 l 907 492 l 897 492 l 864 0 l 801 0 l 768 492 l 758 492 l 719 0 l 14 0 l 69 833 l 785 833 l 826 217 l 840 217 l 881 833 l 1597 833 l 1653 0 l 946 0 z "},"н":{"ha":1667,"x_min":28,"x_max":1639,"o":"m 1639 833 l 1639 0 l 861 0 l 861 368 l 806 368 l 806 0 l 28 0 l 28 833 l 806 833 l 806 465 l 861 465 l 861 833 l 1639 833 z "},"о":{"ha":1667,"x_min":14,"x_max":1653,"o":"m 833 -21 q 358 28 539 -21 q 96 174 178 76 q 14 419 14 271 q 97 667 14 569 q 361 813 181 764 q 833 861 542 861 q 1307 813 1126 861 q 1570 667 1488 764 q 1653 419 1653 569 q 1571 174 1653 271 q 1308 28 1489 76 q 833 -21 1128 -21 m 835 314 q 860 337 850 314 q 869 428 869 360 q 860 519 869 496 q 835 542 850 542 q 809 519 818 542 q 800 428 800 497 q 809 336 800 358 q 835 314 818 314 z "},"п":{"ha":1667,"x_min":28,"x_max":1639,"o":"m 1639 0 l 861 0 l 861 444 l 806 444 l 806 0 l 28 0 l 28 833 l 1639 833 l 1639 0 z "},"р":{"ha":1667,"x_min":28,"x_max":1653,"o":"m 1653 518 q 1588 315 1653 388 q 1349 207 1522 242 q 843 172 1175 172 l 843 0 l 28 0 l 28 833 l 829 833 l 843 632 l 857 632 q 1051 801 936 742 q 1306 861 1167 861 q 1565 775 1476 861 q 1653 518 1653 689 m 856 269 q 907 383 907 269 q 900 470 907 443 q 869 497 893 497 q 843 489 856 497 l 843 269 l 856 269 z "},"с":{"ha":1667,"x_min":14,"x_max":1639,"o":"m 865 -21 q 381 22 567 -21 q 104 160 194 64 q 14 418 14 257 q 106 679 14 582 q 383 819 199 776 q 856 861 567 861 q 1260 845 1051 861 q 1639 806 1469 829 l 1639 447 l 951 447 q 863 442 890 447 q 836 419 836 438 q 863 397 836 401 q 951 392 890 392 l 1639 392 l 1611 28 q 1252 -7 1451 7 q 865 -21 1053 -21 z "},"т":{"ha":1667,"x_min":28,"x_max":1639,"o":"m 1639 444 l 1250 444 l 1250 0 l 417 0 l 417 444 l 28 444 l 28 833 l 1639 833 l 1639 444 z "},"у":{"ha":1667,"x_min":28,"x_max":1639,"o":"m 1639 833 l 1639 417 q 1551 156 1639 251 q 1276 20 1463 61 q 779 -21 1090 -21 q 381 -10 592 -21 q 28 14 169 0 l 28 333 l 426 333 q 676 343 585 333 q 815 380 768 353 q 861 458 861 407 l 847 458 q 692 403 794 418 q 454 389 590 389 q 140 449 251 389 q 28 674 28 510 l 28 833 l 806 833 l 806 618 q 829 579 806 579 q 861 588 849 579 l 861 833 l 1639 833 z "},"ў":{"ha":1667,"x_min":28,"x_max":1639,"o":"m 1639 833 l 1639 417 q 1551 156 1639 251 q 1276 20 1463 61 q 779 -21 1090 -21 q 381 -10 592 -21 q 28 14 169 0 l 28 333 l 426 333 q 676 343 585 333 q 815 380 768 353 q 861 458 861 407 l 847 458 q 692 403 794 418 q 454 389 590 389 q 140 449 251 389 q 28 674 28 510 l 28 833 l 806 833 l 806 618 q 829 579 806 579 q 861 588 849 579 l 861 833 l 1639 833 m 833 903 q 533 910 625 903 q 406 935 440 917 q 356 993 372 953 l 536 993 q 564 974 544 981 q 645 963 583 967 q 833 958 707 958 q 1022 963 960 958 q 1103 974 1083 967 q 1131 993 1122 981 l 1311 993 q 1260 935 1294 953 q 1134 910 1226 917 q 833 903 1042 903 z "},"ф":{"ha":1667,"x_min":14,"x_max":1653,"o":"m 1653 489 q 1598 263 1653 351 q 1425 126 1543 175 q 1111 60 1307 76 l 1111 0 l 556 0 l 556 60 q 242 126 361 78 q 69 263 124 175 q 14 488 14 351 q 69 714 14 626 q 243 849 125 801 q 556 914 361 897 l 556 972 l 1111 972 l 1111 914 q 1424 849 1306 897 q 1598 713 1543 800 q 1653 489 1653 626 m 506 490 q 513 388 506 422 q 534 343 521 354 q 569 331 547 332 l 569 642 q 534 632 547 642 q 513 589 521 622 q 506 490 506 556 m 1100 331 q 1134 340 1121 331 q 1156 385 1147 350 q 1164 492 1164 421 q 1156 590 1164 557 q 1135 632 1149 622 q 1099 642 1121 642 l 1097 642 l 1097 331 l 1100 331 z "},"х":{"ha":1667,"x_min":14,"x_max":1653,"o":"m 1653 0 l 878 0 l 843 335 l 824 335 l 789 0 l 14 0 l 128 401 l 42 833 l 789 833 l 825 463 l 842 463 l 878 833 l 1625 833 l 1539 401 l 1653 0 z "},"ч":{"ha":1667,"x_min":28,"x_max":1639,"o":"m 1639 833 l 1639 0 l 861 0 l 861 375 l 847 375 q 399 160 694 160 q 197 187 276 160 q 72 287 117 214 q 28 493 28 360 l 28 833 l 806 833 l 806 549 q 829 510 806 510 q 861 518 849 510 l 861 833 l 1639 833 z "},"ц":{"ha":1667,"x_min":28,"x_max":1639,"o":"m 1639 444 l 1639 0 l 1250 0 l 1250 111 l 28 111 l 28 833 l 736 833 l 736 444 l 792 444 l 792 833 l 1528 833 l 1528 444 l 1639 444 z "},"ш":{"ha":1667,"x_min":28,"x_max":1639,"o":"m 1639 833 l 1639 0 l 28 0 l 28 833 l 528 833 l 528 389 l 583 389 l 583 833 l 1083 833 l 1083 389 l 1139 389 l 1139 833 l 1639 833 z "},"щ":{"ha":1667,"x_min":28,"x_max":1639,"o":"m 1639 444 l 1639 0 l 1250 0 l 1250 111 l 28 111 l 28 833 l 492 833 l 492 444 l 547 444 l 547 833 l 1011 833 l 1011 444 l 1067 444 l 1067 833 l 1531 833 l 1531 444 l 1639 444 z "},"џ":{"ha":1667,"x_min":28,"x_max":1639,"o":"m 1639 833 l 1639 111 l 1201 111 l 1201 0 l 465 0 l 465 111 l 28 111 l 28 833 l 792 833 l 792 500 l 847 500 l 847 833 l 1639 833 z "},"ь":{"ha":1667,"x_min":28,"x_max":1653,"o":"m 903 632 q 1349 610 1193 632 q 1578 523 1504 588 q 1653 326 1653 458 q 1583 132 1653 203 q 1363 31 1514 61 q 954 0 1213 0 l 28 0 l 28 833 l 847 833 l 847 632 l 903 632 m 865 306 q 903 331 889 306 q 917 408 917 357 q 897 502 917 471 q 851 533 878 533 l 847 533 l 847 306 l 865 306 z "},"ъ":{"ha":1667,"x_min":28,"x_max":1653,"o":"m 958 632 q 1365 610 1219 632 q 1581 522 1510 588 q 1653 326 1653 457 q 1589 132 1653 203 q 1386 31 1525 61 q 1010 0 1247 0 l 139 0 l 139 444 l 28 444 l 28 833 l 903 833 l 903 632 l 958 632 m 921 306 q 958 331 944 306 q 972 408 972 357 q 953 502 972 471 q 907 533 933 533 l 903 533 l 903 306 l 921 306 z "},"ы":{"ha":1667,"x_min":28,"x_max":1639,"o":"m 583 632 q 861 610 751 632 q 1034 525 971 589 q 1097 340 1097 461 q 1039 138 1097 213 q 865 32 981 64 q 565 0 749 0 l 28 0 l 28 833 l 528 833 l 528 631 q 583 632 546 632 m 1639 833 l 1639 0 l 1139 0 l 1139 833 l 1639 833 m 546 306 q 583 331 569 306 q 597 408 597 357 q 578 502 597 471 q 532 533 558 533 l 528 533 l 528 306 l 546 306 z "},"љ":{"ha":1667,"x_min":28,"x_max":1653,"o":"m 1153 604 q 1424 585 1319 604 q 1590 506 1528 567 q 1653 326 1653 446 q 1526 74 1653 149 q 1135 0 1399 0 l 597 0 l 597 444 l 563 444 l 553 292 q 481 54 542 129 q 285 -21 421 -21 q 145 -10 204 -21 q 28 21 86 1 l 28 458 q 112 478 85 458 q 144 556 139 499 l 172 833 l 1097 833 l 1097 604 l 1153 604 m 1115 278 q 1153 303 1139 278 q 1167 381 1167 329 q 1147 474 1167 443 q 1101 506 1128 506 l 1097 506 l 1097 278 l 1115 278 z "},"њ":{"ha":1667,"x_min":28,"x_max":1653,"o":"m 1153 604 q 1421 583 1314 604 q 1590 497 1528 561 q 1653 313 1653 433 q 1526 72 1653 143 q 1135 0 1399 0 l 590 0 l 590 507 l 535 507 l 535 0 l 28 0 l 28 833 l 535 833 l 535 604 l 590 604 l 590 833 l 1097 833 l 1097 604 l 1153 604 m 1115 278 q 1153 303 1139 278 q 1167 381 1167 329 q 1147 474 1167 443 q 1101 506 1128 506 l 1097 506 l 1097 278 l 1115 278 z "},"ѕ":{"ha":1667,"x_min":14,"x_max":1653,"o":"m 824 -21 q 426 -3 638 -21 q 28 42 215 14 l 28 400 q 256 333 107 360 q 551 306 404 306 q 735 319 639 306 q 892 351 832 332 l 883 388 q 718 363 811 372 q 551 354 625 354 q 153 415 292 354 q 14 601 14 476 q 98 757 14 701 q 375 837 182 813 q 913 861 568 861 q 1639 800 1261 861 l 1639 456 q 1410 515 1558 492 q 1115 538 1263 538 q 924 524 1024 538 q 761 490 824 511 l 769 454 q 941 479 843 469 q 1115 489 1039 489 q 1516 426 1379 489 q 1653 239 1653 363 q 1578 81 1653 136 q 1328 2 1504 25 q 824 -21 1151 -21 z "},"є":{"ha":1667,"x_min":21,"x_max":1653,"o":"m 810 -21 q 354 26 528 -21 q 101 170 181 74 q 21 419 21 267 q 107 674 21 576 q 367 816 193 771 q 810 861 540 861 q 1320 805 1132 861 q 1581 667 1508 749 q 1653 499 1653 585 l 903 499 l 903 543 q 895 596 903 578 q 867 614 888 614 q 842 597 849 614 q 835 539 835 581 l 835 447 l 1096 447 l 1096 392 l 835 392 l 835 300 q 842 242 835 258 q 867 225 849 225 q 895 243 888 225 q 903 296 903 261 l 903 340 l 1653 340 q 1581 172 1653 253 q 1320 35 1508 90 q 810 -21 1132 -21 z "},"э":{"ha":1667,"x_min":21,"x_max":1653,"o":"m 864 -21 q 353 35 542 -21 q 93 172 165 90 q 21 340 21 253 l 771 340 l 771 296 q 778 243 771 261 q 807 225 786 225 q 832 242 825 225 q 839 300 839 258 l 839 392 l 578 392 l 578 447 l 839 447 l 839 539 q 832 597 839 581 q 807 614 825 614 q 778 596 786 614 q 771 543 771 578 l 771 499 l 21 499 q 93 667 21 585 q 353 805 165 749 q 864 861 542 861 q 1307 816 1133 861 q 1567 674 1481 771 q 1653 419 1653 576 q 1573 170 1653 267 q 1319 26 1493 74 q 864 -21 1146 -21 z "},"і":{"ha":1667,"x_min":28,"x_max":1639,"o":"m 1278 889 l 472 889 l 472 972 l 1278 972 l 1278 889 m 1639 389 l 1639 0 l 28 0 l 28 389 l 472 389 l 472 444 l 28 444 l 28 833 l 1278 833 l 1278 389 l 1639 389 z "},"ї":{"ha":1667,"x_min":28,"x_max":1639,"o":"m 475 903 q 435 916 451 903 q 419 949 419 929 q 435 981 419 968 q 475 993 451 993 q 515 980 499 993 q 532 949 532 967 q 515 916 532 929 q 475 903 499 903 m 1301 903 q 1262 916 1278 903 q 1246 949 1246 929 q 1262 981 1246 968 q 1301 993 1278 993 q 1342 980 1325 993 q 1358 949 1358 967 q 1342 916 1358 929 q 1301 903 1325 903 m 1639 389 l 1639 0 l 28 0 l 28 389 l 472 389 l 472 444 l 28 444 l 28 833 l 1278 833 l 1278 389 l 1639 389 z "},"ј":{"ha":1667,"x_min":28,"x_max":1639,"o":"m 1639 972 l 1639 889 l 806 889 l 806 972 l 1639 972 m 1639 833 l 1639 518 q 1408 94 1639 208 q 844 -21 1176 -21 q 428 -9 647 -21 q 28 21 210 3 l 28 389 l 368 389 q 656 392 571 389 q 771 407 740 396 q 804 444 801 418 l 28 444 l 28 833 l 1639 833 z "},"ћ":{"ha":1667,"x_min":0,"x_max":1639,"o":"m 1268 806 q 1471 784 1392 806 q 1594 702 1550 763 q 1639 528 1639 642 l 1639 0 l 875 0 l 875 465 q 851 504 875 504 q 819 496 832 504 l 819 0 l 69 0 l 69 850 l 0 850 l 0 906 l 69 906 l 69 972 l 819 972 l 819 906 l 1069 906 l 1069 850 l 819 850 l 819 639 l 833 639 q 1026 761 921 717 q 1268 806 1132 806 z "},"ю":{"ha":1667,"x_min":28,"x_max":1653,"o":"m 1097 861 q 1513 758 1374 861 q 1653 426 1653 656 q 1513 85 1653 190 q 1099 -21 1374 -21 q 699 73 838 -21 q 546 375 561 167 l 517 375 l 517 0 l 28 0 l 28 833 l 517 833 l 517 472 l 546 472 q 699 770 560 679 q 1097 861 839 861 m 1103 268 q 1123 278 1115 268 q 1135 322 1131 288 q 1139 429 1139 357 q 1135 528 1139 496 q 1123 569 1131 560 q 1101 579 1115 579 q 1080 569 1088 579 q 1068 527 1072 560 q 1064 428 1064 494 q 1068 323 1064 357 q 1080 278 1072 289 q 1103 268 1088 268 z "},"я":{"ha":1667,"x_min":14,"x_max":1639,"o":"m 1639 833 l 1639 0 l 819 0 l 819 278 l 779 278 l 736 0 l 29 0 l 135 357 q 42 440 71 390 q 14 563 14 489 q 85 733 14 676 q 325 812 157 790 q 819 833 493 833 l 1639 833 m 819 314 l 819 542 l 801 542 q 763 516 776 542 q 750 428 750 490 q 770 345 750 376 q 815 314 790 314 l 819 314 z "},"ђ":{"ha":1667,"x_min":0,"x_max":1639,"o":"m 1282 806 q 1547 744 1454 806 q 1639 528 1639 683 l 1639 264 q 1613 92 1639 151 q 1528 10 1588 33 q 1363 -14 1469 -14 l 861 -14 l 861 153 q 897 160 885 153 q 908 190 908 168 q 907 208 908 201 l 872 465 q 861 496 869 488 q 838 504 853 504 q 819 501 831 504 l 819 0 l 69 0 l 69 850 l 0 850 l 0 906 l 69 906 l 69 972 l 819 972 l 819 906 l 1069 906 l 1069 850 l 819 850 l 819 639 l 833 639 q 1032 760 919 714 q 1282 806 1144 806 z "},"ғ":{"ha":1667,"x_min":28,"x_max":1639,"o":"m 861 389 l 861 333 l 1168 333 l 1168 278 l 861 278 l 861 0 l 83 0 l 83 278 l 28 278 l 28 333 l 83 333 l 83 833 l 1639 833 l 1639 389 l 861 389 z "},"җ":{"ha":1667,"x_min":14,"x_max":1653,"o":"m 1588 389 l 1653 389 l 1653 0 l 1264 0 l 1264 111 l 1167 111 l 1113 500 l 1097 500 l 1097 111 l 576 111 l 576 500 l 554 500 l 500 111 l 14 111 l 115 542 l 14 972 l 500 972 l 556 583 l 576 583 l 576 972 l 1097 972 l 1097 583 l 1111 583 l 1167 972 l 1653 972 l 1551 542 l 1588 389 z "},"ҙ":{"ha":1667,"x_min":21,"x_max":1653,"o":"m 1115 392 q 1442 383 1339 392 q 1599 340 1544 375 q 1653 224 1653 304 q 1557 73 1653 126 q 1292 -1 1461 19 q 875 -21 1124 -21 l 792 -21 l 792 -19 q 326 44 497 -12 q 88 178 154 100 q 21 340 21 257 l 769 340 l 769 296 q 777 243 769 261 q 807 225 785 225 q 833 242 825 225 q 840 300 840 258 q 820 369 840 346 q 738 392 800 392 l 578 392 l 578 447 l 735 447 q 819 470 799 447 q 840 539 840 493 q 833 597 840 581 q 807 614 825 614 q 777 596 785 614 q 769 543 769 578 l 769 499 l 21 499 q 93 667 21 585 q 353 805 165 749 q 864 861 542 861 q 1288 842 1117 861 q 1556 768 1458 822 q 1653 615 1653 714 q 1598 505 1653 540 q 1433 458 1543 469 q 1115 447 1324 447 l 925 447 l 925 392 l 1115 392 z "},"қ":{"ha":1667,"x_min":28,"x_max":1653,"o":"m 1576 389 l 1653 389 l 1653 0 l 1264 0 l 1264 111 l 903 111 l 850 500 l 833 500 l 833 111 l 28 111 l 28 972 l 833 972 l 833 583 l 847 583 l 903 972 l 1653 972 l 1538 526 l 1576 389 z "},"ҝ":{"ha":1667,"x_min":28,"x_max":1653,"o":"m 1538 415 l 1653 0 l 986 0 l 933 375 l 889 375 l 889 111 l 833 111 l 833 375 l 778 375 l 778 0 l 28 0 l 28 833 l 778 833 l 778 458 l 833 458 l 833 722 l 889 722 l 889 458 l 932 458 l 986 833 l 1653 833 l 1538 415 z "},"ҡ":{"ha":1667,"x_min":28,"x_max":1653,"o":"m 1538 415 l 1653 0 l 931 0 l 878 375 l 861 375 l 861 0 l 139 0 l 139 444 l 28 444 l 28 833 l 861 833 l 861 458 l 876 458 l 931 833 l 1653 833 l 1538 415 z "},"ң":{"ha":1667,"x_min":28,"x_max":1653,"o":"m 1653 389 l 1653 0 l 1264 0 l 1264 111 l 833 111 l 833 493 l 778 493 l 778 111 l 28 111 l 28 972 l 778 972 l 778 590 l 833 590 l 833 972 l 1583 972 l 1583 389 l 1653 389 z "},"ҫ":{"ha":1667,"x_min":14,"x_max":1639,"o":"m 946 514 q 858 508 879 514 q 836 486 836 503 q 858 464 836 469 q 946 458 879 458 l 1639 458 l 1611 164 q 1264 126 1458 142 q 890 110 1069 111 l 903 21 l 903 -21 l 819 -21 l 819 21 l 832 110 q 217 206 419 113 q 14 488 14 299 q 220 770 14 678 q 850 863 426 863 q 1242 847 1032 863 q 1639 806 1451 832 l 1639 514 l 946 514 z "},"ү":{"ha":1667,"x_min":14,"x_max":1653,"o":"m 1250 156 l 1250 0 l 419 0 l 419 153 l 14 833 l 789 833 l 825 490 l 842 490 l 878 833 l 1653 833 l 1250 156 z "},"ұ":{"ha":1667,"x_min":14,"x_max":1653,"o":"m 1289 221 l 1511 221 l 1511 165 l 1256 165 l 1250 156 l 1250 0 l 419 0 l 419 153 l 413 165 l 156 165 l 156 221 l 379 221 l 14 833 l 789 833 l 825 490 l 842 490 l 878 833 l 1653 833 l 1289 221 z "},"ҳ":{"ha":1667,"x_min":14,"x_max":1653,"o":"m 1653 389 l 1653 0 l 1264 0 l 1264 111 l 878 111 l 843 460 l 824 460 l 789 111 l 14 111 l 128 526 l 42 972 l 789 972 l 825 588 l 842 588 l 878 972 l 1625 972 l 1539 526 l 1576 389 l 1653 389 z "},"ҷ":{"ha":1667,"x_min":28,"x_max":1653,"o":"m 1653 389 l 1653 0 l 1264 0 l 1264 111 l 833 111 l 833 444 l 819 444 q 385 229 667 229 q 192 256 269 229 q 72 356 115 283 q 28 563 28 429 l 28 972 l 778 972 l 778 618 q 801 579 778 579 q 833 588 821 579 l 833 972 l 1542 972 l 1542 389 l 1653 389 z "},"ҹ":{"ha":1667,"x_min":28,"x_max":1639,"o":"m 1639 833 l 1639 0 l 861 0 l 861 375 l 806 375 l 806 194 l 750 194 l 750 375 l 736 375 q 557 214 661 268 q 343 160 453 160 q 179 183 247 160 q 69 278 111 207 q 28 479 28 349 l 28 833 l 694 833 l 694 604 q 704 535 694 554 q 750 511 714 515 l 750 694 l 806 694 l 806 510 q 861 519 846 513 l 861 833 l 1639 833 z "},"һ":{"ha":1667,"x_min":28,"x_max":1639,"o":"m 1268 861 q 1471 840 1392 861 q 1594 758 1550 818 q 1639 583 1639 697 l 1639 0 l 861 0 l 861 465 q 838 504 861 504 q 806 496 818 504 l 806 0 l 28 0 l 28 972 l 806 972 l 806 639 l 819 639 q 1268 861 976 861 z "},"ӏ":{"ha":1667,"x_min":28,"x_max":1639,"o":"m 1639 389 l 1639 0 l 28 0 l 28 389 l 472 389 l 472 583 l 28 583 l 28 972 l 1306 972 l 1306 389 l 1639 389 z "},"ӂ":{"ha":1667,"x_min":14,"x_max":1653,"o":"m 1551 417 l 1653 0 l 1167 0 l 1113 375 l 1097 375 l 1097 0 l 576 0 l 576 375 l 554 375 l 500 0 l 14 0 l 115 417 l 14 833 l 500 833 l 556 458 l 576 458 l 576 833 l 1097 833 l 1097 458 l 1111 458 l 1167 833 l 1653 833 l 1551 417 m 833 903 q 533 910 625 903 q 406 935 440 917 q 356 993 372 953 l 536 993 q 564 974 544 981 q 645 963 583 967 q 833 958 707 958 q 1022 963 960 958 q 1103 974 1083 967 q 1131 993 1122 981 l 1311 993 q 1260 935 1294 953 q 1134 910 1226 917 q 833 903 1042 903 z "},"ӑ":{"ha":1667,"x_min":14,"x_max":1639,"o":"m 964 861 q 1353 825 1211 861 q 1567 685 1494 789 q 1639 378 1639 581 l 1639 0 l 819 0 l 806 83 l 792 83 q 613 5 707 31 q 378 -21 518 -21 q 96 30 178 -21 q 14 174 14 81 q 112 338 14 285 q 370 405 210 390 q 804 419 531 419 q 780 465 801 453 q 692 478 758 478 l 56 478 l 56 813 q 518 847 267 832 q 964 861 769 861 m 783 176 q 806 183 796 176 l 806 322 q 786 324 799 324 q 757 306 764 324 q 750 250 750 289 q 756 194 750 211 q 783 176 763 176 m 833 903 q 533 910 625 903 q 406 935 440 917 q 356 993 372 953 l 536 993 q 564 974 544 981 q 645 963 583 967 q 833 958 707 958 q 1022 963 960 958 q 1103 974 1083 967 q 1131 993 1122 981 l 1311 993 q 1260 935 1294 953 q 1134 910 1226 917 q 833 903 1042 903 z "},"ӗ":{"ha":1667,"x_min":14,"x_max":1653,"o":"m 1625 403 l 829 403 q 869 358 838 368 q 979 347 900 347 l 1611 347 l 1611 28 q 1274 -6 1475 8 q 874 -21 1074 -21 q 383 21 569 -21 q 105 158 196 63 q 14 413 14 253 q 105 674 14 575 q 376 817 196 772 q 835 861 556 861 q 1461 762 1269 861 q 1653 472 1653 663 l 1625 403 m 865 582 q 833 554 842 582 q 822 485 824 526 l 903 485 q 892 560 900 538 q 865 582 885 582 m 833 903 q 533 910 625 903 q 406 935 440 917 q 356 993 372 953 l 536 993 q 564 974 544 981 q 645 963 583 967 q 833 958 707 958 q 1022 963 960 958 q 1103 974 1083 967 q 1131 993 1122 981 l 1311 993 q 1260 935 1294 953 q 1134 910 1226 917 q 833 903 1042 903 z "},"ә":{"ha":1667,"x_min":14,"x_max":1653,"o":"m 793 854 q 1284 813 1097 854 q 1562 676 1471 771 q 1653 421 1653 581 q 1562 160 1653 258 q 1291 17 1471 61 q 832 -28 1111 -28 q 206 72 397 -28 q 14 361 14 171 l 42 431 l 838 431 q 798 476 829 465 q 688 486 767 486 l 56 486 l 56 806 q 392 840 192 825 q 793 854 593 854 m 801 251 q 834 279 825 251 q 844 349 843 307 l 764 349 q 774 274 767 296 q 801 251 782 251 z "},"ӣ":{"ha":1667,"x_min":28,"x_max":1639,"o":"m 1639 833 l 1639 0 l 885 0 l 885 499 l 871 499 l 782 0 l 28 0 l 28 833 l 782 833 l 782 335 l 796 335 l 885 833 l 1639 833 m 372 972 l 1296 972 l 1296 896 l 372 896 l 372 972 z "},"ӧ":{"ha":1667,"x_min":14,"x_max":1653,"o":"m 419 903 q 380 916 396 903 q 364 949 364 929 q 380 981 364 968 q 419 993 396 993 q 460 980 443 993 q 476 949 476 967 q 460 916 476 929 q 419 903 443 903 m 1246 903 q 1206 916 1222 903 q 1190 949 1190 929 q 1206 981 1190 968 q 1246 993 1222 993 q 1286 980 1269 993 q 1303 949 1303 967 q 1286 916 1303 929 q 1246 903 1269 903 m 833 -21 q 358 28 539 -21 q 96 174 178 76 q 14 419 14 271 q 97 667 14 569 q 361 813 181 764 q 833 861 542 861 q 1307 813 1126 861 q 1570 667 1488 764 q 1653 419 1653 569 q 1571 174 1653 271 q 1308 28 1489 76 q 833 -21 1128 -21 m 835 314 q 860 337 850 314 q 869 428 869 360 q 860 519 869 496 q 835 542 850 542 q 809 519 818 542 q 800 428 800 497 q 809 336 800 358 q 835 314 818 314 z "},"ө":{"ha":1667,"x_min":14,"x_max":1653,"o":"m 833 861 q 1307 813 1126 861 q 1570 667 1488 764 q 1653 419 1653 569 q 1571 174 1653 271 q 1308 28 1489 76 q 833 -21 1128 -21 q 358 28 539 -21 q 96 174 178 76 q 14 419 14 271 q 97 667 14 569 q 361 813 181 764 q 833 861 542 861 m 835 636 q 814 626 821 636 q 802 580 807 615 q 797 468 797 544 l 872 468 q 867 580 872 544 q 856 626 863 615 q 835 636 849 636 m 836 214 q 854 223 847 214 q 866 266 861 232 q 872 371 871 300 l 797 371 q 803 267 799 301 q 815 224 808 233 q 836 214 822 214 z "},"ӯ":{"ha":1667,"x_min":28,"x_max":1639,"o":"m 1639 833 l 1639 417 q 1551 156 1639 251 q 1276 20 1463 61 q 779 -21 1090 -21 q 381 -10 592 -21 q 28 14 169 0 l 28 333 l 426 333 q 676 343 585 333 q 815 380 768 353 q 861 458 861 407 l 847 458 q 692 403 794 418 q 454 389 590 389 q 140 449 251 389 q 28 674 28 510 l 28 833 l 806 833 l 806 618 q 829 579 806 579 q 861 588 849 579 l 861 833 l 1639 833 m 372 972 l 1296 972 l 1296 896 l 372 896 l 372 972 z "},"ӳ":{"ha":1667,"x_min":28,"x_max":1639,"o":"m 1639 833 l 1639 417 q 1551 156 1639 251 q 1276 20 1463 61 q 779 -21 1090 -21 q 381 -10 592 -21 q 28 14 169 0 l 28 333 l 426 333 q 676 343 585 333 q 815 380 768 353 q 861 458 861 407 l 847 458 q 692 403 794 418 q 454 389 590 389 q 140 449 251 389 q 28 674 28 510 l 28 833 l 806 833 l 806 618 q 829 579 806 579 q 861 588 849 579 l 861 833 l 1639 833 m 246 951 l 806 993 l 806 910 l 246 896 l 246 951 m 861 951 l 1421 993 l 1421 910 l 861 896 l 861 951 z "},"Δ":{"ha":1667,"x_min":100,"x_max":1567,"o":"m 833 993 l 1567 0 l 100 0 l 833 993 m 944 306 l 833 457 l 722 306 l 944 306 z "},"Ω":{"ha":1667,"x_min":14,"x_max":1653,"o":"m 1063 286 q 1404 331 1246 286 q 1646 429 1563 375 l 1646 0 l 861 0 l 863 65 q 872 486 872 415 q 862 588 872 563 q 835 614 851 614 q 808 589 818 614 q 797 486 797 564 q 806 0 797 308 l 21 0 l 21 429 q 265 331 106 375 q 608 286 425 286 l 608 338 q 265 388 396 353 q 74 485 135 424 q 14 638 14 546 q 97 840 14 761 q 359 956 179 918 q 835 993 539 993 q 1309 956 1129 993 q 1571 840 1489 918 q 1653 638 1653 761 q 1592 485 1653 546 q 1403 389 1532 425 q 1063 338 1274 353 l 1063 286 z "},"μ":{"ha":1667,"x_min":28,"x_max":1639,"o":"m 1639 833 l 1639 56 l 875 56 l 861 264 l 847 264 q 806 213 825 232 l 806 -21 l 28 -21 l 28 833 l 806 833 l 806 438 q 829 399 806 399 q 861 407 849 399 l 861 833 l 1639 833 z "},"π":{"ha":1667,"x_min":28,"x_max":1639,"o":"m 1639 444 l 1528 444 l 1528 0 l 861 0 l 861 444 l 806 444 l 806 0 l 139 0 l 139 444 l 28 444 l 28 833 l 1639 833 l 1639 444 z "},"¹":{"ha":1667,"x_min":28,"x_max":1639,"o":"m 1639 685 l 1639 575 l 28 575 l 28 685 l 514 685 l 514 740 l 28 740 l 28 846 q 310 855 210 846 q 463 891 411 864 q 514 972 514 918 l 1347 972 l 1347 685 l 1639 685 z "},"²":{"ha":1667,"x_min":14,"x_max":1639,"o":"m 28 588 q 97 706 28 669 q 290 752 167 743 q 663 761 413 761 q 827 765 783 761 q 885 783 871 768 q 900 835 900 797 q 892 877 900 863 q 861 892 883 892 q 827 875 836 892 q 818 840 818 858 l 819 804 l 14 804 q 93 919 14 879 q 353 976 172 960 q 863 993 535 993 q 1339 985 1179 993 q 1569 953 1499 976 q 1639 879 1639 929 q 1568 797 1639 832 q 1377 741 1497 761 q 1114 721 1257 721 q 783 732 965 721 l 775 701 q 1117 688 924 688 q 1443 717 1310 688 q 1621 782 1576 746 l 1621 576 l 28 576 l 28 588 z "},"³":{"ha":1667,"x_min":18,"x_max":1649,"o":"m 864 576 q 203 614 388 576 q 18 713 18 651 l 806 713 l 806 703 q 816 668 806 683 q 849 653 826 653 q 879 665 871 653 q 888 700 888 678 q 877 733 888 722 q 838 750 867 744 q 749 757 808 756 l 453 763 l 453 807 l 749 813 q 839 821 808 814 q 878 840 869 828 q 888 869 888 851 q 879 904 888 892 q 849 917 871 917 q 815 903 824 917 q 806 874 806 889 l 806 857 l 18 857 q 85 942 18 914 q 329 982 153 971 q 864 993 506 993 q 1299 987 1139 993 q 1553 958 1458 981 q 1649 890 1649 936 q 1595 831 1649 850 q 1433 807 1542 813 q 1115 801 1325 801 l 967 801 l 967 768 l 1115 768 q 1435 763 1328 768 q 1595 738 1542 757 q 1649 679 1649 719 q 1554 609 1649 631 q 1306 582 1460 588 q 864 576 1151 576 z "},"⁄":{"ha":1667,"x_min":21,"x_max":1646,"o":"m 21 517 l 1646 517 l 1646 454 l 21 454 l 21 517 z "},"⅟":{"ha":1667,"x_min":21,"x_max":1646,"o":"m 1643 685 l 1643 575 l 32 575 l 32 685 l 518 685 l 518 740 l 32 740 l 32 846 q 315 855 214 846 q 467 891 415 864 q 518 972 518 918 l 1351 972 l 1351 685 l 1643 685 m 21 517 l 1646 517 l 1646 454 l 21 454 l 21 517 z "},"½":{"ha":1667,"x_min":15,"x_max":1647,"o":"m 1643 685 l 1643 575 l 32 575 l 32 685 l 518 685 l 518 740 l 32 740 l 32 846 q 315 855 214 846 q 467 891 415 864 q 518 972 518 918 l 1351 972 l 1351 685 l 1643 685 m 22 517 l 1647 517 l 1647 454 l 22 454 l 22 517 m 29 11 q 99 130 29 93 q 291 176 168 167 q 664 185 414 185 q 828 188 785 185 q 887 206 872 192 q 901 258 901 221 q 893 301 901 286 q 863 315 885 315 q 828 299 838 315 q 819 264 819 282 l 821 228 l 15 228 q 94 343 15 303 q 355 400 174 383 q 864 417 536 417 q 1340 408 1181 417 q 1570 376 1500 400 q 1640 303 1640 353 q 1569 220 1640 256 q 1378 165 1499 185 q 1115 144 1258 144 q 785 156 967 144 l 776 125 q 1118 111 925 111 q 1444 140 1311 111 q 1622 206 1578 169 l 1622 0 l 29 0 l 29 11 z "},"↉":{"ha":1667,"x_min":13,"x_max":1651,"o":"m 832 576 q 354 594 528 576 q 97 657 181 611 q 13 792 13 703 q 96 922 13 879 q 349 979 179 965 q 832 993 518 993 q 1315 979 1146 993 q 1567 922 1483 965 q 1651 792 1651 879 q 1567 657 1651 703 q 1309 594 1482 611 q 832 576 1136 576 m 832 750 q 969 759 938 750 q 1001 785 1001 768 q 969 810 1001 801 q 832 819 938 819 q 694 810 726 819 q 663 785 663 801 q 694 759 663 768 q 832 750 726 750 m 19 517 l 1644 517 l 1644 454 l 19 454 l 19 517 m 863 -21 q 201 17 386 -21 q 17 115 17 54 l 804 115 l 804 106 q 815 71 804 86 q 847 56 825 56 q 878 68 869 56 q 886 103 886 81 q 876 136 886 125 q 836 153 865 147 q 747 160 807 158 l 451 165 l 451 210 l 747 215 q 838 224 807 217 q 877 242 868 231 q 886 272 886 254 q 878 307 886 294 q 847 319 869 319 q 813 306 822 319 q 804 276 804 292 l 804 260 l 17 260 q 84 345 17 317 q 328 385 151 374 q 863 396 504 396 q 1297 390 1138 396 q 1552 361 1457 383 q 1647 293 1647 339 q 1594 234 1647 253 q 1432 210 1540 215 q 1114 204 1324 204 l 965 204 l 965 171 l 1114 171 q 1433 165 1326 171 q 1594 141 1540 160 q 1647 82 1647 122 q 1553 12 1647 33 q 1304 -15 1458 -10 q 863 -21 1150 -21 z "},"⅓":{"ha":1667,"x_min":18,"x_max":1649,"o":"m 1643 685 l 1643 575 l 32 575 l 32 685 l 518 685 l 518 740 l 32 740 l 32 846 q 315 855 214 846 q 467 891 415 864 q 518 972 518 918 l 1351 972 l 1351 685 l 1643 685 m 21 517 l 1646 517 l 1646 454 l 21 454 l 21 517 m 864 -21 q 203 17 388 -21 q 18 115 18 54 l 806 115 l 806 106 q 816 71 806 86 q 849 56 826 56 q 879 68 871 56 q 888 103 888 81 q 877 136 888 125 q 838 153 867 147 q 749 160 808 158 l 453 165 l 453 210 l 749 215 q 839 224 808 217 q 878 242 869 231 q 888 272 888 254 q 879 307 888 294 q 849 319 871 319 q 815 306 824 319 q 806 276 806 292 l 806 260 l 18 260 q 85 345 18 317 q 329 385 153 374 q 864 396 506 396 q 1299 390 1139 396 q 1553 361 1458 383 q 1649 293 1649 339 q 1595 234 1649 253 q 1433 210 1542 215 q 1115 204 1325 204 l 967 204 l 967 171 l 1115 171 q 1435 165 1328 171 q 1595 141 1542 160 q 1649 82 1649 122 q 1554 12 1649 33 q 1306 -15 1460 -10 q 864 -21 1151 -21 z "},"⅔":{"ha":1667,"x_min":15,"x_max":1650,"o":"m 29 588 q 99 706 29 669 q 291 752 168 743 q 664 761 414 761 q 828 765 785 761 q 887 783 872 768 q 901 835 901 797 q 893 877 901 863 q 863 892 885 892 q 828 875 838 892 q 819 840 819 858 l 821 804 l 15 804 q 94 919 15 879 q 355 976 174 960 q 864 993 536 993 q 1340 985 1181 993 q 1570 953 1500 976 q 1640 879 1640 929 q 1569 797 1640 832 q 1378 741 1499 761 q 1115 721 1258 721 q 785 732 967 721 l 776 701 q 1118 688 925 688 q 1444 717 1311 688 q 1622 782 1578 746 l 1622 576 l 29 576 l 29 588 m 22 517 l 1647 517 l 1647 454 l 22 454 l 22 517 m 865 -21 q 204 17 389 -21 q 19 115 19 54 l 807 115 l 807 106 q 817 71 807 86 q 850 56 828 56 q 881 68 872 56 q 889 103 889 81 q 878 136 889 125 q 839 153 868 147 q 750 160 810 158 l 454 165 l 454 210 l 750 215 q 840 224 810 217 q 880 242 871 231 q 889 272 889 254 q 881 307 889 294 q 850 319 872 319 q 816 306 825 319 q 807 276 807 292 l 807 260 l 19 260 q 87 345 19 317 q 331 385 154 374 q 865 396 507 396 q 1300 390 1140 396 q 1555 361 1460 383 q 1650 293 1650 339 q 1597 234 1650 253 q 1435 210 1543 215 q 1117 204 1326 204 l 968 204 l 968 171 l 1117 171 q 1436 165 1329 171 q 1597 141 1543 160 q 1650 82 1650 122 q 1556 12 1650 33 q 1307 -15 1461 -10 q 865 -21 1153 -21 z "},"¼":{"ha":1667,"x_min":21,"x_max":1646,"o":"m 1643 685 l 1643 575 l 32 575 l 32 685 l 518 685 l 518 740 l 32 740 l 32 846 q 315 855 214 846 q 467 891 415 864 q 518 972 518 918 l 1351 972 l 1351 685 l 1643 685 m 21 517 l 1646 517 l 1646 454 l 21 454 l 21 517 m 853 56 l 21 56 l 63 396 l 858 396 l 808 161 l 857 161 l 893 340 l 1646 340 l 1646 0 l 843 0 l 853 56 z "},"¾":{"ha":1667,"x_min":18,"x_max":1649,"o":"m 864 576 q 203 614 388 576 q 18 713 18 651 l 806 713 l 806 703 q 816 668 806 683 q 849 653 826 653 q 879 665 871 653 q 888 700 888 678 q 877 733 888 722 q 838 750 867 744 q 749 757 808 756 l 453 763 l 453 807 l 749 813 q 839 821 808 814 q 878 840 869 828 q 888 869 888 851 q 879 904 888 892 q 849 917 871 917 q 815 903 824 917 q 806 874 806 889 l 806 857 l 18 857 q 85 942 18 914 q 329 982 153 971 q 864 993 506 993 q 1299 987 1139 993 q 1553 958 1458 981 q 1649 890 1649 936 q 1595 831 1649 850 q 1433 807 1542 813 q 1115 801 1325 801 l 967 801 l 967 768 l 1115 768 q 1435 763 1328 768 q 1595 738 1542 757 q 1649 679 1649 719 q 1554 609 1649 631 q 1306 582 1460 588 q 864 576 1151 576 m 21 517 l 1646 517 l 1646 454 l 21 454 l 21 517 m 853 56 l 21 56 l 63 396 l 858 396 l 808 161 l 857 161 l 893 340 l 1646 340 l 1646 0 l 843 0 l 853 56 z "},"⅕":{"ha":1667,"x_min":28,"x_max":1653,"o":"m 1650 685 l 1650 575 l 39 575 l 39 685 l 525 685 l 525 740 l 39 740 l 39 846 q 322 855 221 846 q 474 891 422 864 q 525 972 525 918 l 1358 972 l 1358 685 l 1650 685 m 28 517 l 1653 517 l 1653 454 l 28 454 l 28 517 m 829 -21 q 328 -3 501 -21 q 92 51 156 15 q 28 150 28 88 l 799 150 l 799 128 q 842 78 799 78 q 872 91 864 78 q 881 132 881 104 q 872 177 881 163 q 828 192 863 192 l 35 192 l 35 396 l 1653 396 l 1653 279 l 797 279 l 797 240 l 1039 240 q 1398 234 1278 240 q 1585 203 1518 228 q 1653 124 1653 178 q 1580 24 1653 54 q 1349 -13 1507 -6 q 829 -21 1192 -21 z "},"⅖":{"ha":1667,"x_min":14,"x_max":1646,"o":"m 28 588 q 97 706 28 669 q 290 752 167 743 q 663 761 413 761 q 827 765 783 761 q 885 783 871 768 q 900 835 900 797 q 892 877 900 863 q 861 892 883 892 q 827 875 836 892 q 818 840 818 858 l 819 804 l 14 804 q 93 919 14 879 q 353 976 172 960 q 863 993 535 993 q 1339 985 1179 993 q 1569 953 1499 976 q 1639 879 1639 929 q 1568 797 1639 832 q 1377 741 1497 761 q 1114 721 1257 721 q 783 732 965 721 l 775 701 q 1117 688 924 688 q 1443 717 1310 688 q 1621 782 1576 746 l 1621 576 l 28 576 l 28 588 m 21 517 l 1646 517 l 1646 454 l 21 454 l 21 517 m 822 -21 q 322 -3 494 -21 q 85 51 149 15 q 21 150 21 88 l 792 150 l 792 128 q 835 78 792 78 q 865 91 857 78 q 874 132 874 104 q 865 177 874 163 q 821 192 856 192 l 28 192 l 28 396 l 1646 396 l 1646 279 l 790 279 l 790 240 l 1032 240 q 1391 234 1271 240 q 1578 203 1511 228 q 1646 124 1646 178 q 1573 24 1646 54 q 1342 -13 1500 -6 q 822 -21 1185 -21 z "},"⅗":{"ha":1667,"x_min":18,"x_max":1649,"o":"m 864 576 q 203 614 388 576 q 18 713 18 651 l 806 713 l 806 703 q 816 668 806 683 q 849 653 826 653 q 879 665 871 653 q 888 700 888 678 q 877 733 888 722 q 838 750 867 744 q 749 757 808 756 l 453 763 l 453 807 l 749 813 q 839 821 808 814 q 878 840 869 828 q 888 869 888 851 q 879 904 888 892 q 849 917 871 917 q 815 903 824 917 q 806 874 806 889 l 806 857 l 18 857 q 85 942 18 914 q 329 982 153 971 q 864 993 506 993 q 1299 987 1139 993 q 1553 958 1458 981 q 1649 890 1649 936 q 1595 831 1649 850 q 1433 807 1542 813 q 1115 801 1325 801 l 967 801 l 967 768 l 1115 768 q 1435 763 1328 768 q 1595 738 1542 757 q 1649 679 1649 719 q 1554 609 1649 631 q 1306 582 1460 588 q 864 576 1151 576 m 21 517 l 1646 517 l 1646 454 l 21 454 l 21 517 m 822 -21 q 322 -3 494 -21 q 85 51 149 15 q 21 150 21 88 l 792 150 l 792 128 q 835 78 792 78 q 865 91 857 78 q 874 132 874 104 q 865 177 874 163 q 821 192 856 192 l 28 192 l 28 396 l 1646 396 l 1646 279 l 790 279 l 790 240 l 1032 240 q 1391 234 1271 240 q 1578 203 1511 228 q 1646 124 1646 178 q 1573 24 1646 54 q 1342 -13 1500 -6 q 822 -21 1185 -21 z "},"⅘":{"ha":1667,"x_min":21,"x_max":1646,"o":"m 853 632 l 21 632 l 63 972 l 858 972 l 808 738 l 857 738 l 893 917 l 1646 917 l 1646 576 l 843 576 l 853 632 m 21 517 l 1646 517 l 1646 454 l 21 454 l 21 517 m 822 -21 q 322 -3 494 -21 q 85 51 149 15 q 21 150 21 88 l 792 150 l 792 128 q 835 78 792 78 q 865 91 857 78 q 874 132 874 104 q 865 177 874 163 q 821 192 856 192 l 28 192 l 28 396 l 1646 396 l 1646 279 l 790 279 l 790 240 l 1032 240 q 1391 234 1271 240 q 1578 203 1511 228 q 1646 124 1646 178 q 1573 24 1646 54 q 1342 -13 1500 -6 q 822 -21 1185 -21 z "},"⅙":{"ha":1667,"x_min":18,"x_max":1650,"o":"m 1643 685 l 1643 575 l 32 575 l 32 685 l 518 685 l 518 740 l 32 740 l 32 846 q 315 855 214 846 q 467 891 415 864 q 518 972 518 918 l 1351 972 l 1351 685 l 1643 685 m 21 517 l 1646 517 l 1646 454 l 21 454 l 21 517 m 867 -21 q 378 -1 561 -21 q 106 65 194 18 q 18 194 18 111 q 106 325 18 282 q 368 382 194 368 q 858 396 542 396 q 1262 388 1047 396 q 1618 368 1476 379 l 1632 256 l 901 256 q 863 311 901 311 q 828 290 836 311 q 821 222 821 268 q 1332 217 1172 222 q 1571 188 1492 211 q 1650 114 1650 165 q 1572 26 1650 54 q 1332 -12 1493 -3 q 867 -21 1171 -21 m 858 53 q 890 69 882 53 q 897 113 897 86 q 878 163 897 144 q 821 181 858 181 l 821 113 q 828 69 821 85 q 858 53 835 53 z "},"⅚":{"ha":1667,"x_min":17,"x_max":1649,"o":"m 821 556 q 320 574 493 556 q 83 628 147 592 q 19 726 19 664 l 790 726 l 790 704 q 833 654 790 654 q 864 667 856 654 q 872 708 872 681 q 863 753 872 739 q 819 768 854 768 l 26 768 l 26 972 l 1644 972 l 1644 856 l 789 856 l 789 817 l 1031 817 q 1390 810 1269 817 q 1577 779 1510 804 q 1644 700 1644 754 q 1572 601 1644 631 q 1341 563 1499 571 q 821 556 1183 556 m 19 517 l 1644 517 l 1644 454 l 19 454 l 19 517 m 865 -21 q 376 -1 560 -21 q 105 65 193 18 q 17 194 17 111 q 105 325 17 282 q 367 382 193 368 q 857 396 540 396 q 1260 388 1046 396 q 1617 368 1475 379 l 1631 256 l 900 256 q 861 311 900 311 q 827 290 835 311 q 819 222 819 268 q 1331 217 1171 222 q 1569 188 1490 211 q 1649 114 1649 165 q 1570 26 1649 54 q 1331 -12 1492 -3 q 865 -21 1169 -21 m 857 53 q 888 69 881 53 q 896 113 896 86 q 876 163 896 144 q 819 181 857 181 l 819 113 q 826 69 819 85 q 857 53 833 53 z "},"⅐":{"ha":1667,"x_min":14,"x_max":1653,"o":"m 1642 685 l 1642 575 l 31 575 l 31 685 l 517 685 l 517 740 l 31 740 l 31 846 q 313 855 213 846 q 465 891 414 864 q 517 972 517 918 l 1350 972 l 1350 685 l 1642 685 m 21 517 l 1646 517 l 1646 454 l 21 454 l 21 517 m 1653 240 q 1452 159 1557 222 q 1292 0 1347 96 l 278 0 q 383 150 315 82 l 14 146 l 14 396 l 1653 396 l 1653 240 z "},"⅛":{"ha":1667,"x_min":14,"x_max":1653,"o":"m 1642 685 l 1642 575 l 31 575 l 31 685 l 517 685 l 517 740 l 31 740 l 31 846 q 313 855 213 846 q 465 891 414 864 q 517 972 517 918 l 1350 972 l 1350 685 l 1642 685 m 21 517 l 1646 517 l 1646 454 l 21 454 l 21 517 m 833 -21 q 328 -13 499 -21 q 85 15 157 -6 q 14 76 14 36 q 67 127 14 108 q 250 155 119 146 q 617 164 381 164 l 617 197 q 279 206 397 197 q 115 234 161 215 q 69 285 69 253 q 157 353 69 329 q 408 387 244 378 q 833 396 572 396 q 1258 387 1094 396 q 1510 353 1422 378 q 1597 285 1597 329 q 1551 236 1597 254 q 1389 208 1506 218 q 1063 199 1272 199 l 1063 164 q 1422 153 1292 164 q 1602 121 1551 142 q 1653 68 1653 100 q 1583 9 1653 28 q 1348 -15 1513 -10 q 833 -21 1183 -21 m 838 236 q 941 244 917 236 q 965 269 965 253 q 940 294 965 285 q 838 304 915 304 q 735 294 760 304 q 710 269 710 285 q 734 244 710 253 q 838 236 758 236 m 838 71 q 952 80 925 71 q 979 106 979 89 q 952 130 979 121 q 838 139 925 139 q 723 130 750 139 q 696 106 696 121 q 723 80 696 89 q 838 71 750 71 z "},"⅜":{"ha":1667,"x_min":14,"x_max":1653,"o":"m 864 576 q 203 614 388 576 q 18 713 18 651 l 806 713 l 806 703 q 816 668 806 683 q 849 653 826 653 q 879 665 871 653 q 888 700 888 678 q 877 733 888 722 q 838 750 867 744 q 749 757 808 756 l 453 763 l 453 807 l 749 813 q 839 821 808 814 q 878 840 869 828 q 888 869 888 851 q 879 904 888 892 q 849 917 871 917 q 815 903 824 917 q 806 874 806 889 l 806 857 l 18 857 q 85 942 18 914 q 329 982 153 971 q 864 993 506 993 q 1299 987 1139 993 q 1553 958 1458 981 q 1649 890 1649 936 q 1595 831 1649 850 q 1433 807 1542 813 q 1115 801 1325 801 l 967 801 l 967 768 l 1115 768 q 1435 763 1328 768 q 1595 738 1542 757 q 1649 679 1649 719 q 1554 609 1649 631 q 1306 582 1460 588 q 864 576 1151 576 m 21 517 l 1646 517 l 1646 454 l 21 454 l 21 517 m 833 -21 q 328 -13 499 -21 q 85 15 157 -6 q 14 76 14 36 q 67 127 14 108 q 250 155 119 146 q 617 164 381 164 l 617 197 q 279 206 397 197 q 115 234 161 215 q 69 285 69 253 q 157 353 69 329 q 408 387 244 378 q 833 396 572 396 q 1258 387 1094 396 q 1510 353 1422 378 q 1597 285 1597 329 q 1551 236 1597 254 q 1389 208 1506 218 q 1063 199 1272 199 l 1063 164 q 1422 153 1292 164 q 1602 121 1551 142 q 1653 68 1653 100 q 1583 9 1653 28 q 1348 -15 1513 -10 q 833 -21 1183 -21 m 838 236 q 941 244 917 236 q 965 269 965 253 q 940 294 965 285 q 838 304 915 304 q 735 294 760 304 q 710 269 710 285 q 734 244 710 253 q 838 236 758 236 m 838 71 q 952 80 925 71 q 979 106 979 89 q 952 130 979 121 q 838 139 925 139 q 723 130 750 139 q 696 106 696 121 q 723 80 696 89 q 838 71 750 71 z "},"⅝":{"ha":1667,"x_min":14,"x_max":1653,"o":"m 822 556 q 322 574 494 556 q 85 628 149 592 q 21 726 21 664 l 792 726 l 792 704 q 835 654 792 654 q 865 667 857 654 q 874 708 874 681 q 865 753 874 739 q 821 768 856 768 l 28 768 l 28 972 l 1646 972 l 1646 856 l 790 856 l 790 817 l 1032 817 q 1391 810 1271 817 q 1578 779 1511 804 q 1646 700 1646 754 q 1573 601 1646 631 q 1342 563 1500 571 q 822 556 1185 556 m 21 517 l 1646 517 l 1646 454 l 21 454 l 21 517 m 833 -21 q 328 -13 499 -21 q 85 15 157 -6 q 14 76 14 36 q 67 127 14 108 q 250 155 119 146 q 617 164 381 164 l 617 197 q 279 206 397 197 q 115 234 161 215 q 69 285 69 253 q 157 353 69 329 q 408 387 244 378 q 833 396 572 396 q 1258 387 1094 396 q 1510 353 1422 378 q 1597 285 1597 329 q 1551 236 1597 254 q 1389 208 1506 218 q 1063 199 1272 199 l 1063 164 q 1422 153 1292 164 q 1602 121 1551 142 q 1653 68 1653 100 q 1583 9 1653 28 q 1348 -15 1513 -10 q 833 -21 1183 -21 m 838 236 q 941 244 917 236 q 965 269 965 253 q 940 294 965 285 q 838 304 915 304 q 735 294 760 304 q 710 269 710 285 q 734 244 710 253 q 838 236 758 236 m 838 71 q 952 80 925 71 q 979 106 979 89 q 952 130 979 121 q 838 139 925 139 q 723 130 750 139 q 696 106 696 121 q 723 80 696 89 q 838 71 750 71 z "},"⅞":{"ha":1667,"x_min":14,"x_max":1653,"o":"m 1653 817 q 1452 735 1557 799 q 1292 576 1347 672 l 278 576 q 383 726 315 658 l 14 722 l 14 972 l 1653 972 l 1653 817 m 21 517 l 1646 517 l 1646 454 l 21 454 l 21 517 m 833 -21 q 328 -13 499 -21 q 85 15 157 -6 q 14 76 14 36 q 67 127 14 108 q 250 155 119 146 q 617 164 381 164 l 617 197 q 279 206 397 197 q 115 234 161 215 q 69 285 69 253 q 157 353 69 329 q 408 387 244 378 q 833 396 572 396 q 1258 387 1094 396 q 1510 353 1422 378 q 1597 285 1597 329 q 1551 236 1597 254 q 1389 208 1506 218 q 1063 199 1272 199 l 1063 164 q 1422 153 1292 164 q 1602 121 1551 142 q 1653 68 1653 100 q 1583 9 1653 28 q 1348 -15 1513 -10 q 833 -21 1183 -21 m 838 236 q 941 244 917 236 q 965 269 965 253 q 940 294 965 285 q 838 304 915 304 q 735 294 760 304 q 710 269 710 285 q 734 244 710 253 q 838 236 758 236 m 838 71 q 952 80 925 71 q 979 106 979 89 q 952 130 979 121 q 838 139 925 139 q 723 130 750 139 q 696 106 696 121 q 723 80 696 89 q 838 71 750 71 z "},"⅑":{"ha":1667,"x_min":17,"x_max":1649,"o":"m 1642 685 l 1642 575 l 31 575 l 31 685 l 517 685 l 517 740 l 31 740 l 31 846 q 313 855 213 846 q 465 891 414 864 q 517 972 517 918 l 1350 972 l 1350 685 l 1642 685 m 19 517 l 1644 517 l 1644 454 l 19 454 l 19 517 m 808 -21 q 347 -6 515 -21 q 107 39 179 8 q 35 119 35 69 l 765 119 q 804 64 765 64 q 838 85 831 64 q 846 153 846 107 q 335 158 494 153 q 96 187 175 164 q 17 261 17 210 q 95 349 17 321 q 335 387 174 378 q 800 396 496 396 q 1292 376 1110 396 q 1562 310 1475 357 q 1649 181 1649 264 q 1564 50 1649 93 q 1306 -7 1479 7 q 808 -21 1133 -21 m 846 263 q 839 306 846 290 q 808 322 832 322 q 777 306 785 322 q 769 263 769 289 q 789 213 769 231 q 846 194 808 194 l 846 263 z "},"⅒":{"ha":1667,"x_min":21,"x_max":1657,"o":"m 32 685 l 518 685 l 518 740 l 32 740 l 32 846 q 315 855 214 846 q 467 891 415 864 q 518 972 518 918 l 1351 972 l 1351 685 l 1643 685 l 1643 575 l 32 575 l 32 685 m 1646 454 l 21 454 l 21 517 l 1646 517 l 1646 454 m 643 110 l 700 110 l 700 0 l 25 0 l 25 110 l 229 110 l 229 171 l 25 171 l 25 271 q 181 302 135 271 q 228 397 228 333 l 643 397 l 643 110 m 1194 396 q 1452 382 1356 396 q 1603 324 1549 368 q 1657 194 1657 281 q 1603 61 1657 108 q 1449 -3 1549 14 q 1194 -21 1350 -21 q 938 -3 1036 -21 q 786 60 839 14 q 733 194 733 107 q 785 324 733 281 q 934 382 838 368 q 1194 396 1031 396 m 1194 150 q 1281 188 1281 150 q 1194 225 1281 225 q 1108 188 1108 225 q 1194 150 1108 150 z "},".":{"ha":1667,"x_min":660,"x_max":1007,"o":"m 660 347 l 1007 347 l 1007 0 l 660 0 l 660 347 z "},",":{"ha":1667,"x_min":660,"x_max":1007,"o":"m 1007 503 l 1007 200 q 930 29 1007 79 q 692 -21 853 -21 l 660 -21 l 660 138 l 692 138 q 768 142 743 138 q 804 159 793 146 q 815 200 815 172 l 660 200 l 660 503 l 1007 503 z "},":":{"ha":1667,"x_min":660,"x_max":1007,"o":"m 660 481 l 1007 481 l 1007 133 l 660 133 l 660 481 m 660 883 l 1007 883 l 1007 536 l 660 536 l 660 883 z "},";":{"ha":1667,"x_min":701,"x_max":1049,"o":"m 701 906 l 1049 906 l 1049 558 l 701 558 l 701 906 m 1049 503 l 1049 200 q 972 29 1049 79 q 733 -21 894 -21 l 701 -21 l 701 138 l 733 138 q 810 142 785 138 q 846 159 835 146 q 857 200 857 172 l 701 200 l 701 503 l 1049 503 z "},"…":{"ha":1667,"x_min":35,"x_max":1632,"o":"m 35 306 l 528 306 l 528 0 l 35 0 l 35 306 m 583 306 l 1082 306 l 1082 0 l 583 0 l 583 306 m 1138 306 l 1632 306 l 1632 0 l 1138 0 l 1138 306 z "},"!":{"ha":1667,"x_min":417,"x_max":1250,"o":"m 417 972 l 1250 972 l 1250 361 l 417 361 l 417 972 m 417 306 l 1250 306 l 1250 0 l 417 0 l 417 306 z "},"¡":{"ha":1667,"x_min":417,"x_max":1250,"o":"m 1250 972 l 1250 667 l 417 667 l 417 972 l 1250 972 m 1250 611 l 1250 0 l 417 0 l 417 611 l 1250 611 z "},"?":{"ha":1667,"x_min":68,"x_max":1599,"o":"m 861 993 q 1404 920 1210 993 q 1599 658 1599 847 q 1446 401 1599 483 q 1057 319 1293 319 l 389 319 l 389 418 l 703 418 q 794 424 765 418 q 833 449 822 431 q 843 508 843 467 q 835 563 843 546 q 804 579 826 579 q 761 514 761 579 l 761 474 l 68 474 q 235 845 68 697 q 861 993 403 993 m 389 264 l 1125 264 l 1125 0 l 389 0 l 389 264 z "},"¿":{"ha":1667,"x_min":68,"x_max":1599,"o":"m 1278 708 l 542 708 l 542 972 l 1278 972 l 1278 708 m 1599 499 q 1431 127 1599 275 q 806 -21 1264 -21 q 263 52 457 -21 q 68 314 68 125 q 221 571 68 489 q 610 653 374 653 l 1278 653 l 1278 554 l 964 554 q 873 548 901 554 q 834 524 844 542 q 824 464 824 506 q 832 410 824 426 q 863 393 840 393 q 906 458 906 393 l 906 499 l 1599 499 z "},"·":{"ha":1667,"x_min":660,"x_max":1007,"o":"m 660 681 l 1007 681 l 1007 333 l 660 333 l 660 681 z "},"•":{"ha":1667,"x_min":492,"x_max":1175,"o":"m 833 139 q 653 184 731 139 q 534 308 576 229 q 492 481 492 386 q 534 653 492 575 q 653 777 576 732 q 833 822 731 822 q 1013 777 936 822 q 1133 653 1090 732 q 1175 481 1175 575 q 1133 308 1175 386 q 1013 184 1090 229 q 833 139 936 139 z "},"*":{"ha":1667,"x_min":393,"x_max":1274,"o":"m 471 296 l 651 496 l 393 553 l 475 822 l 718 708 l 690 972 l 974 972 l 943 710 l 1188 822 l 1274 550 l 1013 496 l 1194 303 l 967 136 l 835 365 l 700 132 l 471 296 z "},"#":{"ha":1667,"x_min":17,"x_max":1650,"o":"m 67 0 l 104 175 l 17 175 l 72 453 l 161 453 l 175 519 l 21 519 l 76 797 l 232 797 l 272 988 l 915 974 l 871 797 l 943 797 l 985 988 l 1600 974 l 1563 797 l 1650 797 l 1594 519 l 1506 519 l 1492 453 l 1646 453 l 1590 175 l 1435 175 l 1394 -14 l 751 0 l 796 175 l 724 175 l 682 -14 l 67 0 m 906 453 l 921 519 l 761 519 l 746 453 l 906 453 z "},"/":{"ha":1667,"x_min":35,"x_max":1632,"o":"m 35 357 l 1489 938 l 1632 615 l 164 35 l 35 357 z "},"\\":{"ha":1667,"x_min":35,"x_max":1632,"o":"m 35 615 l 178 938 l 1632 357 l 1503 35 l 35 615 z "},"(":{"ha":1667,"x_min":525,"x_max":1142,"o":"m 1128 -8 q 816 48 953 -8 q 602 216 679 104 q 525 486 525 328 q 602 760 525 649 q 815 926 679 871 q 1128 981 950 981 l 1142 728 q 979 677 1039 707 q 892 601 919 647 q 865 486 865 556 q 893 370 865 415 q 981 295 921 325 q 1142 244 1040 265 l 1128 -8 z "},")":{"ha":1667,"x_min":525,"x_max":1142,"o":"m 525 244 q 686 295 626 265 q 774 370 746 325 q 801 486 801 415 q 774 601 801 556 q 688 677 747 647 q 525 728 628 707 l 539 981 q 852 926 717 981 q 1065 760 988 871 q 1142 486 1142 649 q 1065 216 1142 328 q 851 48 988 104 q 539 -8 714 -8 l 525 244 z "},"{":{"ha":1667,"x_min":513,"x_max":1154,"o":"m 1154 708 q 1016 706 1056 708 q 960 692 976 703 q 944 654 944 681 q 956 608 944 642 q 967 557 967 575 q 918 507 967 524 q 764 483 869 490 q 967 413 967 467 q 956 363 967 396 q 944 318 944 329 q 961 285 944 297 q 1022 269 978 274 q 1154 264 1067 264 l 1154 -14 q 788 5 914 -14 q 618 59 663 24 q 574 156 574 94 q 586 213 574 186 q 624 278 599 240 q 652 325 643 307 q 661 361 661 343 q 626 412 661 401 q 513 422 592 422 l 513 547 q 626 558 592 547 q 661 608 661 568 q 653 644 661 626 q 624 693 644 661 q 586 758 599 731 q 574 817 574 785 q 618 913 574 878 q 788 967 663 949 q 1154 986 914 986 l 1154 708 z "},"}":{"ha":1667,"x_min":513,"x_max":1154,"o":"m 1006 608 q 1040 558 1006 568 q 1154 547 1075 547 l 1154 422 q 1040 412 1075 422 q 1006 361 1006 401 q 1015 325 1006 343 q 1043 278 1024 307 q 1081 213 1068 240 q 1093 156 1093 186 q 1049 59 1093 94 q 878 5 1004 24 q 513 -14 753 -14 l 513 264 q 644 269 600 264 q 706 285 689 274 q 722 318 722 297 q 711 363 722 329 q 700 413 700 396 q 903 483 700 467 q 749 507 797 490 q 700 557 700 524 q 711 608 700 575 q 722 654 722 642 q 706 692 722 681 q 651 706 690 703 q 513 708 611 708 l 513 986 q 878 967 753 986 q 1049 913 1004 949 q 1093 817 1093 878 q 1081 758 1093 785 q 1043 693 1068 731 q 1014 644 1022 661 q 1006 608 1006 626 z "},"[":{"ha":1667,"x_min":525,"x_max":1142,"o":"m 831 694 l 831 278 l 1142 278 l 1142 0 l 525 0 l 525 972 l 1142 972 l 1142 694 l 831 694 z "},"]":{"ha":1667,"x_min":525,"x_max":1142,"o":"m 1142 0 l 525 0 l 525 278 l 836 278 l 836 694 l 525 694 l 525 972 l 1142 972 l 1142 0 z "},"-":{"ha":1667,"x_min":411,"x_max":1328,"o":"m 411 636 l 1328 636 l 1328 331 l 411 331 l 411 636 z "},"­":{"ha":1667,"x_min":411,"x_max":1328,"o":"m 411 636 l 1328 636 l 1328 331 l 411 331 l 411 636 z "},"–":{"ha":1667,"x_min":418,"x_max":1251,"o":"m 418 636 l 1251 636 l 1251 331 l 418 331 l 418 636 z "},"—":{"ha":1667,"x_min":28,"x_max":1639,"o":"m 28 635 l 1639 635 l 1639 329 l 28 329 l 28 635 z "},"_":{"ha":1667,"x_min":28,"x_max":1639,"o":"m 28 306 l 1639 306 l 1639 0 l 28 0 l 28 306 z "},"‚":{"ha":1667,"x_min":660,"x_max":1007,"o":"m 1007 503 l 1007 200 q 930 29 1007 79 q 692 -21 853 -21 l 660 -21 l 660 138 l 692 138 q 768 142 743 138 q 804 159 793 146 q 815 200 815 172 l 660 200 l 660 503 l 1007 503 z "},"„":{"ha":1667,"x_min":458,"x_max":1208,"o":"m 1208 503 l 1208 200 q 1131 29 1208 79 q 893 -21 1054 -21 l 861 -21 l 861 138 l 893 138 q 969 142 944 138 q 1006 159 994 146 q 1017 200 1017 172 l 861 200 l 861 503 l 1208 503 m 806 503 l 806 200 q 728 29 806 79 q 490 -21 651 -21 l 458 -21 l 458 138 l 490 138 q 567 142 542 138 q 603 159 592 146 q 614 200 614 172 l 458 200 l 458 503 l 806 503 z "},"“":{"ha":1667,"x_min":458,"x_max":1208,"o":"m 458 786 q 535 957 458 907 q 774 1007 613 1007 l 806 1007 l 806 849 l 774 849 q 697 844 722 849 q 661 827 672 840 q 650 786 650 814 l 806 786 l 806 483 l 458 483 l 458 786 m 1176 849 q 1100 844 1125 849 q 1064 827 1075 840 q 1053 786 1053 814 l 1208 786 l 1208 483 l 861 483 l 861 786 q 938 957 861 907 q 1176 1007 1015 1007 l 1208 1007 l 1208 849 l 1176 849 z "},"”":{"ha":1667,"x_min":458,"x_max":1208,"o":"m 1208 972 l 1208 669 q 1131 499 1208 549 q 893 449 1054 449 l 861 449 l 861 607 l 893 607 q 969 611 944 607 q 1006 628 994 615 q 1017 669 1017 642 l 861 669 l 861 972 l 1208 972 m 806 972 l 806 669 q 728 499 806 549 q 490 449 651 449 l 458 449 l 458 607 l 490 607 q 567 611 542 607 q 603 628 592 615 q 614 669 614 642 l 458 669 l 458 972 l 806 972 z "},"‘":{"ha":1667,"x_min":618,"x_max":965,"o":"m 933 835 q 857 831 882 835 q 821 813 832 826 q 810 772 810 800 l 965 772 l 965 469 l 618 469 l 618 772 q 695 943 618 893 q 933 993 772 993 l 965 993 l 965 835 l 933 835 z "},"’":{"ha":1667,"x_min":660,"x_max":1007,"o":"m 1007 972 l 1007 669 q 930 499 1007 549 q 692 449 853 449 l 660 449 l 660 607 l 692 607 q 768 611 743 607 q 804 628 793 615 q 815 669 815 642 l 660 669 l 660 972 l 1007 972 z "},"«":{"ha":1667,"x_min":244,"x_max":1389,"o":"m 692 486 l 858 319 l 635 96 l 244 486 l 635 876 l 858 653 l 692 486 m 1222 486 l 1389 319 l 1165 96 l 775 486 l 1165 876 l 1389 653 l 1222 486 z "},"»":{"ha":1667,"x_min":278,"x_max":1422,"o":"m 501 96 l 278 319 l 444 486 l 278 653 l 501 876 l 892 486 l 501 96 m 1032 96 l 808 319 l 975 486 l 808 653 l 1032 876 l 1422 486 l 1032 96 z "},"‹":{"ha":1667,"x_min":519,"x_max":1133,"o":"m 967 486 l 1133 319 l 910 96 l 519 486 l 910 876 l 1133 653 l 967 486 z "},"›":{"ha":1667,"x_min":533,"x_max":1147,"o":"m 757 96 l 533 319 l 700 486 l 533 653 l 757 876 l 1147 486 l 757 96 z "},"\"":{"ha":1667,"x_min":454,"x_max":1213,"o":"m 454 674 l 454 972 l 801 972 l 801 674 l 676 451 l 579 451 l 454 674 m 865 674 l 865 972 l 1213 972 l 1213 674 l 1088 451 l 990 451 l 865 674 z "},"'":{"ha":1667,"x_min":660,"x_max":1007,"o":"m 660 674 l 660 972 l 1007 972 l 1007 674 l 882 451 l 785 451 l 660 674 z "},"₿":{"ha":1667,"x_min":28,"x_max":1653,"o":"m 938 457 q 1357 444 1214 456 q 1576 393 1500 433 q 1653 268 1653 353 q 1584 147 1653 189 q 1372 89 1515 106 q 972 69 1228 72 l 972 -21 l 917 -21 l 917 69 l 861 69 l 861 -21 l 806 -21 l 806 69 l 28 69 l 28 903 l 806 903 l 806 993 l 861 993 l 861 903 l 917 903 l 917 993 l 972 993 l 972 903 l 1058 903 q 1385 892 1267 903 q 1578 840 1504 882 q 1653 706 1653 797 q 1576 578 1653 619 q 1357 526 1500 538 q 938 514 1214 515 l 938 457 m 932 647 q 922 715 932 697 q 881 733 911 733 l 861 733 l 861 550 q 915 575 897 553 q 932 647 932 597 m 881 238 q 922 256 911 238 q 932 324 932 274 q 915 396 932 374 q 861 421 897 418 l 861 238 l 881 238 z "},"¢":{"ha":1667,"x_min":14,"x_max":1639,"o":"m 951 517 q 863 512 890 517 q 836 489 836 507 q 863 466 836 471 q 951 461 890 461 l 1639 461 l 1611 97 q 1272 64 1461 78 q 903 49 1083 50 l 903 -21 l 847 -21 l 847 49 q 374 93 556 50 q 103 232 192 136 q 14 488 14 328 q 106 748 14 651 q 379 887 197 844 q 847 931 561 929 l 847 993 l 903 993 l 903 931 q 1285 913 1089 929 q 1639 875 1482 897 l 1639 517 l 951 517 z "},"¤":{"ha":1667,"x_min":243,"x_max":1425,"o":"m 1411 488 q 1292 182 1411 300 l 1425 49 l 1386 8 l 1249 146 q 833 35 1097 35 q 419 144 572 35 l 283 8 l 243 47 l 376 182 q 257 488 257 300 q 287 655 257 578 q 376 792 317 732 l 243 925 l 282 964 l 418 828 q 833 939 569 939 q 1249 826 1101 939 l 1386 964 l 1425 925 l 1292 792 q 1381 655 1351 732 q 1411 488 1411 578 m 833 447 q 954 457 921 447 q 988 488 988 467 q 954 517 988 507 q 833 526 921 526 q 714 517 747 526 q 681 488 681 507 q 714 457 681 467 q 833 447 747 447 z "},"$":{"ha":1667,"x_min":14,"x_max":1653,"o":"m 1653 308 q 1582 152 1653 207 q 1342 74 1511 97 q 861 49 1172 50 l 861 -21 l 806 -21 l 806 49 q 418 67 624 50 q 28 111 213 83 l 28 469 q 256 402 107 429 q 551 375 404 375 q 735 388 639 375 q 892 421 832 401 l 883 457 q 718 433 811 442 q 551 424 625 424 q 153 485 292 424 q 14 671 14 546 q 88 820 14 765 q 334 901 163 875 q 806 931 506 926 l 806 993 l 861 993 l 861 931 l 913 931 q 1639 869 1261 931 l 1639 525 q 1410 584 1558 561 q 1115 607 1263 607 q 924 594 1024 607 q 761 560 824 581 l 769 524 q 941 549 843 539 q 1115 558 1039 558 q 1516 495 1379 558 q 1653 308 1653 432 z "},"€":{"ha":1667,"x_min":14,"x_max":1639,"o":"m 815 458 q 849 415 821 426 q 947 403 878 403 l 1638 403 l 1625 89 q 1366 13 1550 47 q 933 -21 1182 -21 q 501 17 672 -21 q 234 149 329 56 q 124 403 139 242 l 14 403 l 14 458 l 121 458 l 121 467 q 122 514 121 499 l 14 514 l 14 569 l 129 569 q 365 892 165 792 q 933 993 564 993 q 1319 976 1128 993 q 1625 936 1511 958 l 1639 569 l 947 569 q 854 557 883 569 q 818 514 825 544 l 1314 514 l 1314 458 l 815 458 z "},"ƒ":{"ha":1667,"x_min":28,"x_max":1639,"o":"m 1093 993 q 1413 968 1264 993 q 1639 913 1561 943 l 1639 554 q 1444 576 1554 567 q 1250 586 1333 586 q 1104 570 1153 586 q 1035 514 1056 554 l 1249 514 l 1249 458 l 1019 458 q 1014 360 1014 421 q 908 69 1014 158 q 574 -21 801 -21 q 248 4 396 -21 q 28 60 100 29 l 28 418 q 431 388 275 388 q 576 403 528 388 q 644 458 624 418 l 431 458 l 431 514 l 661 514 q 667 613 667 551 q 776 898 667 803 q 1093 993 886 993 z "},"₴":{"ha":1667,"x_min":14,"x_max":1653,"o":"m 1653 726 q 1609 631 1653 671 q 1492 569 1565 590 l 1639 569 l 1639 514 l 28 514 l 28 569 l 904 569 q 844 608 894 596 q 714 622 794 619 q 481 625 633 625 l 42 625 l 42 954 q 394 979 163 965 q 865 993 626 993 q 1653 726 1653 993 m 28 458 l 1639 458 l 1639 403 l 763 403 q 822 365 772 376 q 953 350 872 353 q 1186 347 1033 347 l 1625 347 l 1625 18 q 1272 -7 1504 7 q 801 -21 1040 -21 q 14 246 14 -21 q 58 342 14 301 q 175 403 101 382 l 28 403 l 28 458 z "},"₭":{"ha":1667,"x_min":28,"x_max":1639,"o":"m 1639 458 l 1517 458 l 1625 0 l 903 0 l 847 438 l 833 438 l 833 0 l 56 0 l 56 458 l 28 458 l 28 514 l 56 514 l 56 972 l 833 972 l 833 535 l 847 535 l 903 972 l 1625 972 l 1517 514 l 1639 514 l 1639 458 z "},"₱":{"ha":1667,"x_min":28,"x_max":1639,"o":"m 1576 564 q 1561 508 1572 539 l 1639 508 l 1639 453 l 1533 453 q 1322 317 1472 363 q 903 272 1171 272 l 847 272 l 847 0 l 56 0 l 56 453 l 28 453 l 28 508 l 56 508 l 56 564 l 28 564 l 28 619 l 56 619 l 56 972 l 954 972 q 1349 942 1215 972 q 1533 844 1483 913 q 1583 646 1583 775 l 1583 619 l 1639 619 l 1639 564 l 1576 564 m 847 619 l 914 619 q 897 689 908 669 q 865 708 885 708 l 847 708 l 847 619 m 917 564 l 847 564 l 847 508 l 917 508 l 917 536 l 917 564 m 851 369 q 887 389 871 369 q 911 453 903 408 l 847 453 l 847 369 l 851 369 z "},"₽":{"ha":1667,"x_min":14,"x_max":1653,"o":"m 861 314 l 861 258 l 1286 258 l 1286 203 l 861 203 l 861 0 l 56 0 l 56 203 l 14 203 l 14 258 l 56 258 l 56 972 l 954 972 q 1369 942 1218 972 q 1586 845 1519 913 q 1653 660 1653 778 q 1580 457 1653 532 q 1347 348 1507 382 q 917 314 1188 314 l 861 314 m 861 639 l 861 411 l 865 411 q 911 442 892 411 q 931 536 931 474 q 917 613 931 588 q 879 639 903 639 l 861 639 z "},"₹":{"ha":1667,"x_min":28,"x_max":1639,"o":"m 1538 564 q 1524 508 1535 544 l 1639 508 l 1639 453 l 1500 453 q 1374 338 1460 383 l 1568 0 l 931 0 l 778 258 l 778 397 l 810 397 q 904 453 883 397 l 28 453 l 28 508 l 915 508 q 917 536 917 517 l 917 564 l 28 564 l 28 619 l 908 619 q 876 663 899 650 q 810 675 853 675 l 56 675 l 56 972 l 954 972 q 1309 941 1183 972 q 1488 837 1435 910 q 1542 632 1542 764 l 1542 619 l 1639 619 l 1639 564 l 1538 564 z "},"₪":{"ha":1667,"x_min":28,"x_max":1639,"o":"m 28 972 l 1083 972 l 1083 417 l 861 417 l 861 611 l 528 611 l 528 0 l 28 0 l 28 972 m 583 556 l 806 556 l 806 361 l 1139 361 l 1139 972 l 1639 972 l 1639 0 l 583 0 l 583 556 z "},"£":{"ha":1667,"x_min":28,"x_max":1636,"o":"m 1636 401 l 1636 0 l 28 0 q 49 213 28 126 q 99 351 71 300 q 185 492 126 403 l 28 492 l 28 547 l 219 547 q 293 726 267 628 q 319 972 319 824 l 1153 972 q 1126 726 1153 824 q 1049 547 1099 628 l 1263 547 l 1263 492 l 1013 492 q 943 389 965 425 l 1636 401 z "},"₸":{"ha":1667,"x_min":28,"x_max":1639,"o":"m 1639 972 l 1639 917 l 28 917 l 28 972 l 1639 972 m 1639 319 l 1250 319 l 1250 0 l 417 0 l 417 319 l 28 319 l 28 861 l 1639 861 l 1639 319 z "},"₮":{"ha":1667,"x_min":28,"x_max":1639,"o":"m 1250 431 l 1250 375 l 1639 375 l 1639 319 l 1250 319 l 1250 264 l 1639 264 l 1639 208 l 1250 208 l 1250 0 l 417 0 l 417 208 l 28 208 l 28 264 l 417 264 l 417 319 l 28 319 l 28 375 l 417 375 l 417 431 l 28 431 l 28 972 l 1639 972 l 1639 431 l 1250 431 z "},"₩":{"ha":1667,"x_min":14,"x_max":1653,"o":"m 1592 264 l 1653 264 l 1653 208 l 1588 208 l 1582 153 l 1653 153 l 1653 97 l 1578 97 l 1569 0 l 876 0 l 839 638 l 826 638 l 775 0 l 97 0 l 89 97 l 14 97 l 14 153 l 85 153 l 79 208 l 14 208 l 14 264 l 75 264 l 14 972 l 719 972 l 754 369 l 768 369 l 801 819 l 864 819 l 889 369 l 903 369 l 946 972 l 1653 972 l 1592 264 z "},"¥":{"ha":1667,"x_min":14,"x_max":1653,"o":"m 1324 332 l 1511 332 l 1511 276 l 1296 276 l 1267 221 l 1511 221 l 1511 165 l 1251 165 l 1251 0 l 418 0 l 418 165 l 156 165 l 156 221 l 401 221 l 372 276 l 156 276 l 156 332 l 344 332 l 14 972 l 789 972 l 825 556 l 844 556 l 878 972 l 1653 972 l 1324 332 z "},"+":{"ha":1667,"x_min":375,"x_max":1292,"o":"m 1292 278 l 986 278 l 986 0 l 681 0 l 681 278 l 375 278 l 375 583 l 681 583 l 681 861 l 986 861 l 986 583 l 1292 583 l 1292 278 z "},"−":{"ha":1667,"x_min":375,"x_max":1292,"o":"m 375 583 l 1292 583 l 1292 278 l 375 278 l 375 583 z "},"×":{"ha":1667,"x_min":438,"x_max":1229,"o":"m 1047 431 l 1229 249 l 1015 35 l 833 217 l 651 35 l 438 249 l 619 431 l 438 613 l 651 826 l 833 644 l 1015 826 l 1229 613 l 1047 431 z "},"÷":{"ha":1667,"x_min":375,"x_max":1292,"o":"m 681 861 l 986 861 l 986 639 l 681 639 l 681 861 m 375 583 l 1292 583 l 1292 278 l 375 278 l 375 583 m 681 222 l 986 222 l 986 0 l 681 0 l 681 222 z "},"=":{"ha":1667,"x_min":375,"x_max":1292,"o":"m 375 750 l 1292 750 l 1292 444 l 375 444 l 375 750 m 375 389 l 1292 389 l 1292 83 l 375 83 l 375 389 z "},"≠":{"ha":1667,"x_min":375,"x_max":1292,"o":"m 886 444 l 854 389 l 1292 389 l 1292 83 l 676 83 l 617 -21 l 568 7 l 613 83 l 375 83 l 375 389 l 789 389 l 821 444 l 375 444 l 375 750 l 997 750 l 1061 860 l 1110 832 l 1063 750 l 1292 750 l 1292 444 l 886 444 z "},">":{"ha":1667,"x_min":458,"x_max":1186,"o":"m 1186 456 l 678 15 l 458 267 l 692 456 l 458 643 l 678 894 l 1186 456 z "},"<":{"ha":1667,"x_min":481,"x_max":1208,"o":"m 975 456 l 1208 267 l 989 15 l 481 456 l 989 894 l 1208 643 l 975 456 z "},"≥":{"ha":1667,"x_min":375,"x_max":1292,"o":"m 1292 267 l 1292 0 l 375 0 l 375 267 l 511 267 l 744 456 l 511 643 l 731 894 l 1239 456 l 1021 267 l 1292 267 z "},"≤":{"ha":1667,"x_min":375,"x_max":1292,"o":"m 1292 267 l 1292 0 l 375 0 l 375 267 l 646 267 l 428 456 l 936 894 l 1156 643 l 922 456 l 1156 267 l 1292 267 z "},"±":{"ha":1667,"x_min":375,"x_max":1292,"o":"m 986 322 l 986 267 l 1292 267 l 1292 0 l 375 0 l 375 267 l 681 267 l 681 322 l 375 322 l 375 589 l 681 589 l 681 861 l 986 861 l 986 589 l 1292 589 l 1292 322 l 986 322 z "},"≈":{"ha":1667,"x_min":375,"x_max":1292,"o":"m 1063 421 q 949 427 1000 421 q 835 444 899 433 q 714 463 761 457 q 604 468 667 468 q 375 444 506 468 l 375 750 q 604 774 506 774 q 717 767 667 774 q 832 750 768 761 q 953 732 906 738 q 1063 726 1000 726 q 1292 750 1163 726 l 1292 444 q 1063 421 1163 421 m 1063 60 q 949 66 1000 60 q 835 83 899 72 q 714 101 761 96 q 604 107 667 107 q 375 83 506 107 l 375 389 q 604 413 506 413 q 717 406 667 413 q 832 389 768 400 q 953 371 906 376 q 1063 365 1000 365 q 1292 389 1163 365 l 1292 83 q 1063 60 1163 60 z "},"¬":{"ha":1667,"x_min":292,"x_max":1347,"o":"m 1347 139 l 1042 139 l 1042 444 l 292 444 l 292 750 l 1347 750 l 1347 139 z "},"~":{"ha":1667,"x_min":399,"x_max":1263,"o":"m 399 953 q 664 993 538 993 q 821 982 724 993 q 997 969 915 969 q 1148 977 1081 969 q 1249 993 1215 985 l 1263 940 q 997 900 1124 900 q 898 904 944 900 q 813 913 851 908 q 664 924 721 924 q 517 916 583 924 q 413 900 450 908 l 399 953 z "},"^":{"ha":1667,"x_min":375,"x_max":1292,"o":"m 375 951 l 833 993 l 1292 951 l 1292 896 l 833 917 l 375 896 l 375 951 z "},"∅":{"ha":1667,"x_min":257,"x_max":1411,"o":"m 1231 840 q 1366 688 1321 779 q 1411 488 1411 597 q 1349 255 1411 357 q 1158 94 1288 153 q 833 35 1029 35 q 489 103 628 35 l 379 -6 l 338 31 l 439 132 q 302 284 347 192 q 257 488 257 376 q 318 719 257 617 q 508 880 379 821 q 833 939 638 939 q 1182 868 1040 939 l 1293 979 l 1332 940 l 1231 840 m 653 488 q 674 458 653 468 q 756 444 696 449 l 842 531 l 833 531 q 690 521 726 531 q 653 488 653 511 m 833 443 q 978 453 942 443 q 1015 488 1015 464 q 994 515 1015 506 q 917 528 974 525 l 831 443 l 833 443 z "},"∞":{"ha":1667,"x_min":43,"x_max":1624,"o":"m 1240 806 q 1453 753 1367 806 q 1581 614 1539 701 q 1624 422 1624 526 q 1526 142 1624 246 q 1240 39 1428 39 q 1008 99 1111 39 q 833 253 904 158 q 663 99 764 158 q 440 39 563 39 q 219 91 308 39 q 86 230 129 143 q 43 422 43 317 q 143 702 43 599 q 440 806 243 806 q 665 746 565 806 q 835 592 765 686 q 1008 746 906 686 q 1240 806 1111 806 m 363 422 q 397 393 363 400 q 482 386 432 386 q 706 422 610 386 q 482 458 597 458 q 394 452 426 458 q 363 422 363 446 m 1185 386 q 1272 392 1240 386 q 1304 422 1304 399 q 1269 451 1304 444 q 1185 458 1235 458 q 961 422 1057 458 q 1185 386 1067 386 z "},"∫":{"ha":1667,"x_min":28,"x_max":1639,"o":"m 574 -21 q 248 4 396 -21 q 28 60 100 29 l 28 418 q 361 388 249 388 q 496 406 453 388 q 554 471 539 425 q 569 613 569 517 q 642 822 569 736 q 833 951 714 908 q 1093 993 951 993 q 1413 968 1264 993 q 1639 913 1561 943 l 1639 554 q 1474 576 1565 567 q 1319 586 1382 586 q 1185 567 1228 586 q 1126 502 1142 549 q 1111 360 1111 456 q 963 72 1111 165 q 574 -21 815 -21 z "},"∏":{"ha":1667,"x_min":28,"x_max":1639,"o":"m 1639 583 l 1528 583 l 1528 0 l 861 0 l 861 583 l 806 583 l 806 0 l 139 0 l 139 583 l 28 583 l 28 972 l 1639 972 l 1639 583 z "},"∑":{"ha":1667,"x_min":28,"x_max":1639,"o":"m 1639 613 l 861 613 l 1097 486 l 861 361 l 1639 361 l 1639 0 l 28 0 l 431 486 l 28 972 l 1639 972 l 1639 613 z "},"√":{"ha":1667,"x_min":14,"x_max":1639,"o":"m 1639 585 l 1421 585 l 1333 0 l 181 0 l 14 972 l 750 972 l 785 306 l 799 306 l 831 972 l 1639 972 l 1639 585 z "},"∂":{"ha":1667,"x_min":14,"x_max":1653,"o":"m 797 -21 q 345 10 515 -21 q 94 112 175 42 q 14 301 14 182 q 92 453 14 407 q 329 510 171 499 q 843 521 488 521 q 822 564 843 551 q 731 576 800 576 l 69 581 l 69 951 q 451 981 239 969 q 819 993 663 993 q 1298 944 1115 993 q 1567 789 1481 894 q 1653 513 1653 683 q 1563 191 1653 307 q 1288 27 1472 75 q 797 -21 1103 -21 m 806 229 q 837 256 831 229 q 843 358 843 282 l 843 468 q 785 443 804 468 q 767 358 767 418 q 774 257 767 285 q 806 229 781 229 z "},"%":{"ha":1667,"x_min":28,"x_max":1639,"o":"m 417 539 q 120 591 213 539 q 28 763 28 643 q 120 940 28 888 q 417 993 213 993 q 715 940 622 993 q 807 763 807 888 q 714 591 807 643 q 417 539 621 539 m 132 24 l 1503 993 l 1535 949 l 164 -21 l 132 24 m 417 733 q 485 736 464 733 q 513 744 507 739 q 519 763 519 750 q 514 781 519 775 q 486 790 508 788 q 417 793 464 793 q 347 790 369 793 q 319 781 325 788 q 313 763 313 775 q 319 745 313 751 q 347 736 325 739 q 417 733 369 733 m 1249 -21 q 952 31 1044 -21 q 860 203 860 83 q 952 381 860 328 q 1249 433 1044 433 q 1547 381 1454 433 q 1639 203 1639 328 q 1546 31 1639 83 q 1249 -21 1453 -21 m 1250 174 q 1319 176 1297 174 q 1347 185 1340 179 q 1353 203 1353 190 q 1347 222 1353 215 q 1319 231 1342 228 q 1250 233 1297 233 q 1181 231 1203 233 q 1152 222 1158 228 q 1146 203 1146 215 q 1152 185 1146 192 q 1181 176 1158 179 q 1250 174 1203 174 z "},"‰":{"ha":1667,"x_min":28,"x_max":1639,"o":"m 807 763 q 714 591 807 643 q 417 539 621 539 q 120 591 213 539 q 28 763 28 643 q 120 940 28 888 q 417 993 213 993 q 715 940 622 993 q 807 763 807 888 m 1535 949 l 164 -21 l 132 24 l 1503 993 l 1535 949 m 313 763 q 319 745 313 751 q 347 736 325 739 q 417 733 369 733 q 485 736 464 733 q 513 744 507 739 q 519 763 519 750 q 514 781 519 775 q 486 790 508 788 q 417 793 464 793 q 347 790 369 793 q 319 781 325 788 q 313 763 313 775 m 1396 433 q 1569 377 1499 433 q 1639 203 1639 321 q 1569 35 1639 90 q 1396 -21 1499 -21 q 1246 28 1290 -21 q 1096 -21 1201 -21 q 928 35 997 -21 q 860 203 860 90 q 928 376 860 319 q 1096 433 997 433 q 1246 383 1201 433 q 1396 433 1290 433 m 1153 174 q 1190 180 1181 174 q 1200 203 1200 186 q 1190 226 1200 219 q 1153 233 1181 233 q 1115 226 1125 233 q 1104 203 1104 219 q 1115 181 1104 188 q 1153 174 1125 174 m 1339 174 q 1377 181 1367 174 q 1388 203 1388 188 q 1377 226 1388 219 q 1339 233 1367 233 q 1301 226 1311 233 q 1292 203 1292 219 q 1301 180 1292 186 q 1339 174 1311 174 z "},"↑":{"ha":1667,"x_min":307,"x_max":1279,"o":"m 1279 514 l 946 514 l 946 0 l 640 0 l 640 514 l 307 514 l 307 569 l 793 993 l 1279 569 l 1279 514 z "},"↗":{"ha":1667,"x_min":285,"x_max":1299,"o":"m 1260 267 l 1024 503 l 500 -21 l 285 194 l 808 718 l 572 954 l 611 993 l 1254 949 l 1299 306 l 1260 267 z "},"→":{"ha":1667,"x_min":28,"x_max":1653,"o":"m 1653 486 l 1229 0 l 1174 0 l 1174 333 l 28 333 l 28 639 l 1174 639 l 1174 972 l 1229 972 l 1653 486 z "},"↘":{"ha":1667,"x_min":299,"x_max":1313,"o":"m 1313 667 l 1268 24 l 625 -21 l 586 18 l 822 254 l 299 778 l 514 993 l 1038 469 l 1274 706 l 1313 667 z "},"↓":{"ha":1667,"x_min":307,"x_max":1279,"o":"m 1279 458 l 1279 403 l 793 -21 l 307 403 l 307 458 l 640 458 l 640 972 l 946 972 l 946 458 l 1279 458 z "},"↙":{"ha":1667,"x_min":354,"x_max":1368,"o":"m 844 254 l 1081 18 l 1042 -21 l 399 24 l 354 667 l 393 706 l 629 469 l 1153 993 l 1368 778 l 844 254 z "},"←":{"ha":1667,"x_min":28,"x_max":1653,"o":"m 1653 333 l 507 333 l 507 0 l 451 0 l 28 486 l 451 972 l 507 972 l 507 639 l 1653 639 l 1653 333 z "},"↖":{"ha":1667,"x_min":354,"x_max":1368,"o":"m 1153 -21 l 629 503 l 393 267 l 354 306 l 399 949 l 1042 993 l 1081 954 l 844 718 l 1368 194 l 1153 -21 z "},"↔":{"ha":1667,"x_min":14,"x_max":1653,"o":"m 1653 486 l 1229 0 l 1174 0 l 1174 333 l 493 333 l 493 0 l 438 0 l 14 486 l 438 972 l 493 972 l 493 639 l 1174 639 l 1174 972 l 1229 972 l 1653 486 z "},"↕":{"ha":1667,"x_min":307,"x_max":1279,"o":"m 946 514 l 946 458 l 1279 458 l 1279 403 l 793 -21 l 307 403 l 307 458 l 640 458 l 640 514 l 307 514 l 307 569 l 793 993 l 1279 569 l 1279 514 l 946 514 z "},"●":{"ha":1667,"x_min":333,"x_max":1333,"o":"m 833 13 q 561 75 674 13 q 391 244 449 138 q 333 485 333 351 q 391 725 333 618 q 561 894 449 832 q 833 957 674 957 q 1106 894 993 957 q 1276 725 1219 832 q 1333 485 1333 618 q 1276 244 1333 351 q 1106 75 1219 138 q 833 13 993 13 z "},"○":{"ha":1667,"x_min":333,"x_max":1333,"o":"m 833 13 q 561 75 674 13 q 391 244 449 138 q 333 485 333 351 q 391 725 333 618 q 561 894 449 832 q 833 957 674 957 q 1106 894 993 957 q 1276 725 1219 832 q 1333 485 1333 618 q 1276 244 1333 351 q 1106 75 1219 138 q 833 13 993 13 m 833 64 q 1069 115 969 64 q 1224 260 1169 165 q 1278 485 1278 356 q 1224 709 1278 614 q 1069 855 1169 804 q 833 906 969 906 q 597 854 697 906 q 443 708 497 803 q 389 485 389 613 q 443 262 389 357 q 597 115 497 167 q 833 64 697 64 z "},"◊":{"ha":1667,"x_min":79,"x_max":1588,"o":"m 79 486 l 833 993 l 1588 486 l 833 -21 l 79 486 m 1488 486 l 833 926 l 179 486 l 833 46 l 1488 486 z "},"▲":{"ha":1667,"x_min":285,"x_max":1382,"o":"m 1382 0 l 285 0 l 833 972 l 1382 0 z "},"▶":{"ha":1667,"x_min":431,"x_max":1403,"o":"m 431 0 l 431 972 l 1403 488 l 431 0 z "},"▼":{"ha":1667,"x_min":285,"x_max":1382,"o":"m 285 972 l 1382 972 l 833 0 l 285 972 z "},"◀":{"ha":1667,"x_min":264,"x_max":1236,"o":"m 264 488 l 1236 972 l 1236 0 l 264 488 z "},"△":{"ha":1667,"x_min":285,"x_max":1382,"o":"m 1382 0 l 285 0 l 833 972 l 1382 0 m 378 53 l 1290 53 l 833 860 l 378 53 z "},"▷":{"ha":1667,"x_min":431,"x_max":1403,"o":"m 1403 488 l 431 0 l 431 972 l 1403 488 m 486 882 l 486 88 l 1278 488 l 486 882 z "},"▽":{"ha":1667,"x_min":285,"x_max":1382,"o":"m 1382 972 l 833 0 l 285 972 l 1382 972 m 378 919 l 833 113 l 1290 919 l 378 919 z "},"◁":{"ha":1667,"x_min":264,"x_max":1236,"o":"m 1236 972 l 1236 0 l 264 488 l 1236 972 m 1181 882 l 389 488 l 1181 88 l 1181 882 z "},"☜":{"ha":1667,"x_min":21,"x_max":1639,"o":"m 610 833 q 672 946 629 906 q 765 986 714 986 q 958 926 843 986 q 1208 778 1074 865 l 1208 56 l 856 56 q 732 39 810 39 l 692 39 q 508 79 563 39 q 454 206 454 119 q 456 235 454 225 q 413 353 413 274 q 417 396 413 375 q 385 486 389 429 l 258 486 q 76 529 131 486 q 21 660 21 572 q 76 790 21 747 q 258 833 131 833 l 610 833 m 1111 729 q 901 853 971 817 q 789 889 831 889 q 719 836 742 889 q 696 714 696 783 q 710 624 696 647 q 758 601 725 601 q 806 624 792 601 q 821 714 821 647 l 838 714 q 913 507 885 626 q 942 275 942 388 q 931 146 942 190 l 1111 146 l 1111 729 m 1639 833 l 1639 0 l 1264 56 l 1264 778 l 1639 833 m 397 576 q 465 644 417 621 q 601 668 514 667 q 599 714 599 696 l 599 743 l 258 743 q 169 734 200 743 q 128 708 139 725 q 118 660 118 690 q 128 612 118 629 q 169 585 139 594 q 258 576 200 576 l 397 576 m 1542 721 l 1486 713 l 1486 121 l 1542 113 l 1542 721 m 1361 139 l 1417 131 l 1417 703 l 1361 694 l 1361 139 m 482 501 q 492 455 482 471 q 533 432 503 439 q 622 425 563 425 l 676 425 q 766 432 736 425 q 806 455 796 439 q 817 501 817 471 q 815 521 817 515 q 744 504 789 504 q 625 578 661 504 l 622 578 q 533 571 563 578 q 492 548 503 564 q 482 501 482 532 m 510 358 q 523 308 511 325 q 563 283 535 290 q 650 276 592 276 l 704 276 q 794 283 764 276 q 834 306 824 290 q 844 353 844 322 l 844 379 q 778 344 818 354 q 676 335 738 335 l 622 335 q 557 340 583 335 q 510 358 531 344 m 732 129 q 822 136 792 129 q 862 159 851 143 q 872 206 872 175 l 872 231 q 806 196 846 206 q 704 186 765 186 l 650 186 q 594 190 618 186 q 551 207 571 194 q 566 159 554 175 q 606 136 578 143 q 692 129 635 129 l 732 129 z "},"☞":{"ha":1667,"x_min":28,"x_max":1646,"o":"m 1408 833 q 1591 790 1536 833 q 1646 660 1646 747 q 1591 529 1646 572 q 1408 486 1536 486 l 1282 486 q 1250 396 1278 429 q 1254 353 1254 375 q 1211 235 1254 274 q 1213 206 1213 225 q 1158 79 1213 119 q 975 39 1104 39 l 935 39 q 811 56 857 39 l 458 56 l 458 778 q 708 926 593 865 q 901 986 824 986 q 995 946 953 986 q 1057 833 1038 906 l 1408 833 m 556 146 l 736 146 q 725 275 725 190 q 753 507 725 388 q 829 714 782 626 l 846 714 q 860 624 846 647 q 908 601 875 601 q 956 624 942 601 q 971 714 971 647 q 948 836 971 783 q 878 889 925 889 q 766 853 836 889 q 556 729 696 817 l 556 146 m 28 833 l 403 778 l 403 56 l 28 0 l 28 833 m 1408 576 q 1497 585 1467 576 q 1538 612 1528 594 q 1549 660 1549 629 q 1538 708 1549 690 q 1497 734 1528 725 q 1408 743 1467 743 l 1068 743 l 1068 714 q 1065 668 1068 696 q 1201 644 1153 667 q 1269 576 1250 621 l 1408 576 m 125 113 l 181 121 l 181 713 l 125 721 l 125 113 m 306 694 l 250 703 l 250 131 l 306 139 l 306 694 m 1044 425 q 1134 432 1104 425 q 1174 455 1164 439 q 1185 501 1185 471 q 1174 548 1185 532 q 1134 571 1164 564 q 1044 578 1104 578 l 1042 578 q 922 504 1006 504 q 851 521 879 504 q 850 501 850 515 q 860 455 850 471 q 901 432 871 439 q 990 425 931 425 l 1044 425 m 1017 276 q 1103 283 1075 276 q 1144 308 1132 290 q 1157 358 1156 325 q 1110 340 1136 344 q 1044 335 1083 335 l 990 335 q 889 344 929 335 q 822 379 849 354 l 822 353 q 833 306 822 322 q 873 283 843 290 q 963 276 903 276 l 1017 276 m 975 129 q 1060 136 1032 129 q 1101 159 1089 143 q 1115 207 1113 175 q 1072 190 1096 194 q 1017 186 1049 186 l 963 186 q 861 196 901 186 q 794 231 821 206 l 794 206 q 805 159 794 175 q 845 136 815 143 q 935 129 875 129 l 975 129 z "},"✨":{"ha":1667,"x_min":14,"x_max":1653,"o":"m 1167 0 q 1083 229 1151 118 q 907 413 1015 340 q 669 492 799 485 l 669 536 q 906 611 797 543 q 1084 781 1015 679 q 1167 983 1153 882 l 1211 983 q 1291 782 1225 883 q 1453 612 1357 681 q 1653 536 1550 543 l 1653 492 q 1452 412 1549 485 q 1290 228 1356 339 q 1211 0 1225 117 l 1167 0 m 426 382 q 310 572 414 499 q 14 656 206 644 l 14 697 q 309 802 204 728 q 426 972 414 876 l 471 972 q 581 798 483 874 q 856 700 678 722 l 856 658 q 577 567 671 636 q 471 382 483 497 l 426 382 m 579 -4 q 535 100 571 60 q 428 165 500 140 q 239 204 357 190 l 239 249 q 490 313 413 269 q 579 442 568 357 l 624 442 q 669 347 632 383 q 788 286 707 310 q 1008 249 868 263 l 1008 204 q 788 166 868 190 q 669 101 707 142 q 624 -4 632 61 l 579 -4 z "},"❤":{"ha":1667,"x_min":28,"x_max":1639,"o":"m 833 -21 q 443 117 625 28 q 144 342 261 206 q 28 653 28 478 q 138 909 28 825 q 418 993 249 993 q 701 894 588 993 q 825 544 815 794 l 842 544 q 956 895 851 797 q 1236 993 1060 993 q 1527 910 1415 993 q 1639 654 1639 826 q 1522 342 1639 478 q 1224 117 1406 207 q 833 -21 1042 28 m 186 613 q 248 778 193 711 q 401 869 303 844 l 401 886 q 367 888 389 888 q 217 833 268 888 q 165 675 165 779 q 169 613 165 646 l 186 613 z "},"@":{"ha":1667,"x_min":42,"x_max":1625,"o":"m 833 993 q 1422 864 1219 993 q 1625 488 1625 735 q 1547 281 1625 357 q 1333 206 1469 206 l 357 206 l 457 767 l 1264 767 l 1363 290 q 1542 488 1542 303 q 1362 803 1542 696 q 833 910 1182 910 q 305 803 485 910 q 125 488 125 696 q 304 170 125 278 q 833 63 483 63 l 833 -21 q 244 109 447 -21 q 42 488 42 239 q 244 864 42 735 q 833 993 447 993 m 889 289 l 872 575 l 844 575 l 832 289 l 889 289 z "},"&":{"ha":1667,"x_min":14,"x_max":1653,"o":"m 864 -21 q 242 42 471 -21 q 14 269 14 106 q 67 403 14 361 q 223 455 119 444 q 543 465 326 465 l 543 521 q 228 533 335 521 q 67 583 121 544 q 14 703 14 621 q 123 885 14 821 q 409 971 232 949 q 831 993 586 993 q 1247 980 1040 993 q 1581 951 1454 967 l 1581 599 l 832 599 l 832 446 q 917 357 832 357 q 975 377 957 357 q 993 446 993 397 l 894 446 l 894 543 l 1653 543 l 1653 439 l 1542 439 l 1574 54 q 1252 3 1453 28 q 864 -21 1051 -21 z "},"¶":{"ha":1667,"x_min":14,"x_max":1639,"o":"m 1639 972 l 1639 0 l 1250 0 l 1250 694 l 1194 694 l 1194 0 l 806 0 l 806 292 q 329 322 496 293 q 88 426 163 351 q 14 644 14 501 q 86 865 14 796 q 316 953 158 933 q 806 972 474 972 l 1639 972 z "},"§":{"ha":1667,"x_min":14,"x_max":1653,"o":"m 768 -21 q 335 8 542 -21 q 14 74 129 38 l 14 404 q 257 318 89 357 q 642 279 425 279 q 999 374 999 279 q 852 340 932 353 q 642 326 772 326 q 340 356 482 326 q 106 455 197 386 q 14 635 14 524 q 265 917 14 840 q 871 993 515 993 q 1303 964 1097 993 q 1625 899 1510 935 l 1625 568 q 1387 654 1550 615 q 1018 693 1224 693 q 754 673 847 693 q 661 604 661 653 q 1018 646 792 646 q 1653 338 1653 646 q 1394 56 1653 132 q 768 -21 1136 -21 m 863 451 q 937 458 903 451 q 988 471 971 464 q 922 509 969 492 q 807 526 875 526 q 728 520 764 526 q 674 506 692 514 q 738 468 689 485 q 863 451 788 451 z "},"©":{"ha":1667,"x_min":47,"x_max":1619,"o":"m 835 -21 q 382 31 554 -21 q 128 192 210 82 q 47 478 47 301 q 128 776 47 663 q 382 941 210 889 q 835 993 554 993 q 1286 941 1114 993 q 1539 776 1458 889 q 1619 478 1619 663 q 1538 192 1619 301 q 1285 31 1457 82 q 835 -21 1114 -21 m 835 63 q 1247 105 1094 63 q 1468 238 1400 147 q 1536 478 1536 328 q 1468 730 1536 636 q 1248 867 1400 824 q 835 910 1096 910 q 419 867 572 910 q 199 730 267 824 q 131 478 131 636 q 199 238 131 328 q 420 105 267 147 q 835 63 574 63 m 857 186 q 541 215 660 186 q 367 307 422 243 q 311 481 311 371 q 365 656 311 589 q 538 756 418 724 q 857 788 657 788 q 1094 776 967 788 q 1306 751 1221 764 l 1314 517 l 857 517 q 822 511 835 518 q 810 490 810 504 q 822 471 810 478 q 857 465 835 464 l 1313 467 l 1314 246 q 1126 206 1251 226 q 857 186 1000 186 z "},"®":{"ha":1667,"x_min":47,"x_max":1619,"o":"m 835 993 q 1286 941 1114 993 q 1539 776 1458 889 q 1619 478 1619 663 q 1538 192 1619 301 q 1285 31 1457 82 q 835 -21 1114 -21 q 382 31 554 -21 q 128 192 210 82 q 47 478 47 301 q 128 776 47 663 q 382 941 210 889 q 835 993 554 993 m 835 63 q 1247 105 1094 63 q 1468 238 1400 147 q 1536 478 1536 328 q 1468 730 1536 636 q 1248 867 1400 824 q 835 910 1096 910 q 419 867 572 910 q 199 730 267 824 q 131 478 131 636 q 199 238 131 328 q 420 105 267 147 q 835 63 574 63 m 1346 594 q 1274 453 1346 499 l 1336 204 l 918 204 l 896 390 l 869 390 l 869 204 l 385 204 l 385 779 l 932 779 q 1177 762 1088 779 q 1306 704 1267 744 q 1346 594 1346 664 m 872 447 q 899 466 888 447 q 910 521 910 485 q 901 567 910 551 q 879 582 893 582 l 869 582 l 869 447 l 872 447 z "},"™":{"ha":1667,"x_min":246,"x_max":1421,"o":"m 499 724 l 249 724 l 249 972 l 1418 972 l 1418 724 l 1168 724 l 1168 514 l 499 514 l 499 724 m 947 0 l 918 293 l 917 292 l 903 292 l 868 0 l 839 0 l 800 292 l 785 292 l 760 0 l 246 0 l 271 460 l 800 460 l 846 186 l 860 186 l 901 460 l 1396 460 l 1421 0 l 947 0 z "},"°":{"ha":1667,"x_min":528,"x_max":1140,"o":"m 835 499 q 604 565 681 499 q 528 736 528 631 q 604 906 528 840 q 835 972 681 972 q 1064 906 988 972 q 1140 736 1140 840 q 1064 565 1140 631 q 835 499 988 499 m 835 647 q 967 736 967 647 q 835 824 967 824 q 701 736 701 824 q 835 647 701 647 z "},"|":{"ha":1667,"x_min":417,"x_max":1250,"o":"m 417 993 l 1250 993 l 1250 -21 l 417 -21 l 417 993 z "},"¦":{"ha":1667,"x_min":417,"x_max":1250,"o":"m 417 993 l 1250 993 l 1250 514 l 417 514 l 417 993 m 417 458 l 1250 458 l 1250 -21 l 417 -21 l 417 458 z "},"†":{"ha":1667,"x_min":139,"x_max":1514,"o":"m 1514 442 l 1253 442 l 1253 0 l 419 0 l 419 442 l 139 442 l 139 747 l 419 747 l 419 972 l 1253 972 l 1253 747 l 1514 747 l 1514 442 z "},"‡":{"ha":1667,"x_min":139,"x_max":1514,"o":"m 1253 514 l 1253 458 l 1514 458 l 1514 153 l 1253 153 l 1253 0 l 419 0 l 419 153 l 139 153 l 139 458 l 419 458 l 419 514 l 139 514 l 139 819 l 419 819 l 419 972 l 1253 972 l 1253 819 l 1514 819 l 1514 514 l 1253 514 z "},"№":{"ha":1667,"x_min":28,"x_max":1653,"o":"m 1264 688 q 978 724 1081 688 q 875 847 875 760 q 974 963 875 933 q 1264 993 1074 993 q 1553 963 1454 993 q 1653 847 1653 933 q 1550 724 1653 760 q 1264 688 1447 688 m 889 528 l 1639 528 l 1639 0 l 889 0 l 792 603 l 778 603 l 778 0 l 28 0 l 28 972 l 778 972 l 875 369 l 889 369 l 889 528 m 1264 926 q 1238 908 1247 926 q 1229 840 1229 890 q 1238 772 1229 790 q 1264 754 1247 754 q 1299 840 1299 754 q 1290 908 1299 890 q 1264 926 1281 926 m 892 639 l 1639 639 l 1639 583 l 892 583 l 892 639 z "}}}
